G04*
G04 #@! TF.GenerationSoftware,Altium Limited,Altium Designer,25.8.1 (18)*
G04*
G04 Layer_Color=32896*
%FSLAX25Y25*%
%MOIN*%
G70*
G04*
G04 #@! TF.SameCoordinates,32EA78B9-D10A-4EA7-89C3-F5576A3C80F4*
G04*
G04*
G04 #@! TF.FilePolarity,Positive*
G04*
G01*
G75*
%ADD12C,0.00600*%
%ADD79C,0.01000*%
D12*
X265614Y39522D02*
Y42950D01*
Y44131D02*
Y47559D01*
X265804Y48739D02*
Y50453D01*
X265995Y51024D01*
X266185Y51215D01*
X266566Y51405D01*
X267137D01*
X267518Y51215D01*
X267709Y51024D01*
X267899Y50453D01*
Y48739D01*
X263900D01*
X267899Y52300D02*
X263900D01*
X267899Y53138D02*
X263900D01*
X267899D02*
X263900Y55804D01*
X267899D02*
X263900D01*
X267137Y56909D02*
X267328Y57290D01*
X267899Y57861D01*
X263900D01*
X265614Y59842D02*
Y63269D01*
Y64450D02*
Y67878D01*
X111941Y53728D02*
X111751Y53157D01*
Y54299D01*
X111941Y53728D01*
X112322Y54109D01*
X112893Y54299D01*
X113274D01*
X113846Y54109D01*
X114226Y53728D01*
X114417Y53347D01*
X114607Y52776D01*
Y51824D01*
X114417Y51252D01*
X114226Y50871D01*
X113846Y50490D01*
X113274Y50300D01*
X112893D01*
X112322Y50490D01*
X111941Y50871D01*
X113274Y54299D02*
X113655Y54109D01*
X114036Y53728D01*
X114226Y53347D01*
X114417Y52776D01*
Y51824D01*
X114226Y51252D01*
X114036Y50871D01*
X113655Y50490D01*
X113274Y50300D01*
X111941Y51824D02*
Y50300D01*
X111751Y51824D02*
Y50300D01*
X112513Y51824D02*
X111179D01*
X110094Y54299D02*
X110284Y54109D01*
X110094Y53918D01*
X109904Y54109D01*
X110094Y54299D01*
Y52966D02*
Y50300D01*
X109904Y52966D02*
Y50300D01*
X110665Y52966D02*
X109904D01*
X110665Y50300D02*
X109332D01*
X107466D02*
X107657Y50490D01*
X107847Y51062D01*
Y54299D01*
X108037D01*
Y51062D01*
X107847Y50490D01*
X107466Y50300D01*
X107085D01*
X106704Y50490D01*
X106514Y50871D01*
X108609Y52966D02*
X107085D01*
X105295Y54299D02*
Y50300D01*
X105105Y54299D02*
Y50300D01*
X102819Y54299D02*
Y50300D01*
X102629Y54299D02*
Y50300D01*
X105866Y54299D02*
X104533D01*
X103391D02*
X102058D01*
X105105Y52395D02*
X102819D01*
X105866Y50300D02*
X104533D01*
X103391D02*
X102058D01*
X101010Y52966D02*
Y50871D01*
X100820Y50490D01*
X100249Y50300D01*
X99868D01*
X99296Y50490D01*
X98915Y50871D01*
X100820Y52966D02*
Y50871D01*
X100629Y50490D01*
X100249Y50300D01*
X98915Y52966D02*
Y50300D01*
X98725Y52966D02*
Y50300D01*
X101582Y52966D02*
X100820D01*
X99487D02*
X98725D01*
X98915Y50300D02*
X98154D01*
X97068Y54299D02*
Y50300D01*
X96878Y54299D02*
Y50300D01*
Y52395D02*
X96497Y52776D01*
X96116Y52966D01*
X95735D01*
X95164Y52776D01*
X94783Y52395D01*
X94593Y51824D01*
Y51443D01*
X94783Y50871D01*
X95164Y50490D01*
X95735Y50300D01*
X96116D01*
X96497Y50490D01*
X96878Y50871D01*
X95735Y52966D02*
X95354Y52776D01*
X94973Y52395D01*
X94783Y51824D01*
Y51443D01*
X94973Y50871D01*
X95354Y50490D01*
X95735Y50300D01*
X97640Y54299D02*
X96878D01*
X197022Y63398D02*
Y57400D01*
X196736Y63398D02*
Y57400D01*
X197879Y63398D02*
X194451D01*
X193594Y63113D01*
X193308Y62827D01*
X193023Y62256D01*
Y61399D01*
X193308Y60827D01*
X193594Y60542D01*
X194451Y60256D01*
X196736D01*
X194451Y63398D02*
X193880Y63113D01*
X193594Y62827D01*
X193308Y62256D01*
Y61399D01*
X193594Y60827D01*
X193880Y60542D01*
X194451Y60256D01*
X197879Y57400D02*
X195879D01*
X191366Y61399D02*
Y57400D01*
X191080Y61399D02*
Y57400D01*
Y59685D02*
X190795Y60542D01*
X190223Y61113D01*
X189652Y61399D01*
X188795D01*
X188510Y61113D01*
Y60827D01*
X188795Y60542D01*
X189081Y60827D01*
X188795Y61113D01*
X192223Y61399D02*
X191080D01*
X192223Y57400D02*
X190223D01*
X185881Y61399D02*
X186738Y61113D01*
X187310Y60542D01*
X187595Y59685D01*
Y59114D01*
X187310Y58257D01*
X186738Y57685D01*
X185881Y57400D01*
X185310D01*
X184453Y57685D01*
X183882Y58257D01*
X183596Y59114D01*
Y59685D01*
X183882Y60542D01*
X184453Y61113D01*
X185310Y61399D01*
X185881D01*
X186453Y61113D01*
X187024Y60542D01*
X187310Y59685D01*
Y59114D01*
X187024Y58257D01*
X186453Y57685D01*
X185881Y57400D01*
X185310D02*
X184739Y57685D01*
X184168Y58257D01*
X183882Y59114D01*
Y59685D01*
X184168Y60542D01*
X184739Y61113D01*
X185310Y61399D01*
X179283Y63398D02*
Y57400D01*
X178997Y63398D02*
Y57400D01*
X179283Y60542D02*
X179854Y61113D01*
X180426Y61399D01*
X180997D01*
X181854Y61113D01*
X182425Y60542D01*
X182711Y59685D01*
Y59114D01*
X182425Y58257D01*
X181854Y57685D01*
X180997Y57400D01*
X180426D01*
X179854Y57685D01*
X179283Y58257D01*
X180997Y61399D02*
X181568Y61113D01*
X182139Y60542D01*
X182425Y59685D01*
Y59114D01*
X182139Y58257D01*
X181568Y57685D01*
X180997Y57400D01*
X180140Y63398D02*
X178997D01*
X179283Y57400D02*
X178140D01*
X176455Y61399D02*
Y58257D01*
X176169Y57685D01*
X175312Y57400D01*
X174741D01*
X173884Y57685D01*
X173313Y58257D01*
X176169Y61399D02*
Y58257D01*
X175884Y57685D01*
X175312Y57400D01*
X173313Y61399D02*
Y57400D01*
X173027Y61399D02*
Y57400D01*
X177312Y61399D02*
X176169D01*
X174170D02*
X173027D01*
X173313Y57400D02*
X172170D01*
X167971Y60542D02*
X168257Y60256D01*
X167971Y59970D01*
X167685Y60256D01*
Y60542D01*
X168257Y61113D01*
X168828Y61399D01*
X169685D01*
X170542Y61113D01*
X171113Y60542D01*
X171399Y59685D01*
Y59114D01*
X171113Y58257D01*
X170542Y57685D01*
X169685Y57400D01*
X169114D01*
X168257Y57685D01*
X167685Y58257D01*
X169685Y61399D02*
X170256Y61113D01*
X170827Y60542D01*
X171113Y59685D01*
Y59114D01*
X170827Y58257D01*
X170256Y57685D01*
X169685Y57400D01*
X166486Y59685D02*
X163058D01*
Y60256D01*
X163343Y60827D01*
X163629Y61113D01*
X164200Y61399D01*
X165057D01*
X165914Y61113D01*
X166486Y60542D01*
X166771Y59685D01*
Y59114D01*
X166486Y58257D01*
X165914Y57685D01*
X165057Y57400D01*
X164486D01*
X163629Y57685D01*
X163058Y58257D01*
X163343Y59685D02*
Y60542D01*
X163629Y61113D01*
X165057Y61399D02*
X165629Y61113D01*
X166200Y60542D01*
X166486Y59685D01*
Y59114D01*
X166200Y58257D01*
X165629Y57685D01*
X165057Y57400D01*
X158716Y63398D02*
Y57400D01*
X158430Y63398D02*
Y57400D01*
X158716Y60542D02*
X159287Y61113D01*
X159859Y61399D01*
X160430D01*
X161287Y61113D01*
X161858Y60542D01*
X162144Y59685D01*
Y59114D01*
X161858Y58257D01*
X161287Y57685D01*
X160430Y57400D01*
X159859D01*
X159287Y57685D01*
X158716Y58257D01*
X160430Y61399D02*
X161001Y61113D01*
X161572Y60542D01*
X161858Y59685D01*
Y59114D01*
X161572Y58257D01*
X161001Y57685D01*
X160430Y57400D01*
X159573Y63398D02*
X158430D01*
X158716Y57400D02*
X157573D01*
X150489Y63398D02*
Y57400D01*
X150203Y63398D02*
Y57400D01*
X151346Y63398D02*
X147918D01*
X147061Y63113D01*
X146776Y62827D01*
X146490Y62256D01*
Y61684D01*
X146776Y61113D01*
X147061Y60827D01*
X147918Y60542D01*
Y63398D02*
X147347Y63113D01*
X147061Y62827D01*
X146776Y62256D01*
Y61684D01*
X147061Y61113D01*
X147347Y60827D01*
X147918Y60542D01*
X150203D02*
X147918D01*
X147061Y60256D01*
X146776Y59970D01*
X146490Y59399D01*
Y58542D01*
X146776Y57971D01*
X147061Y57685D01*
X147918Y57400D01*
X151346D01*
X147918Y60542D02*
X147347Y60256D01*
X147061Y59970D01*
X146776Y59399D01*
Y58542D01*
X147061Y57971D01*
X147347Y57685D01*
X147918Y57400D01*
X145119Y61399D02*
X143405Y57400D01*
X144833Y61399D02*
X143405Y57971D01*
X141691Y61399D02*
X143405Y57400D01*
X143976Y56257D01*
X144547Y55686D01*
X145119Y55400D01*
X145404D01*
X145690Y55686D01*
X145404Y55971D01*
X145119Y55686D01*
X145690Y61399D02*
X143976D01*
X142834D02*
X141120D01*
X134607D02*
X134892Y61113D01*
X134607Y60827D01*
X134321Y61113D01*
X134607Y61399D01*
Y57971D02*
X134892Y57685D01*
X134607Y57400D01*
X134321Y57685D01*
X134607Y57971D01*
X125356Y62398D02*
Y56400D01*
X125070Y62398D02*
X123356Y57257D01*
X125356Y62398D02*
X123356Y56400D01*
X121357Y62398D02*
X123356Y56400D01*
X121357Y62398D02*
Y56400D01*
X121071Y62398D02*
Y56400D01*
X126213Y62398D02*
X125070D01*
X121357D02*
X120214D01*
X126213Y56400D02*
X124499D01*
X122214D02*
X120214D01*
X118957Y62398D02*
X116958Y56400D01*
X118672Y62398D02*
X116958Y57257D01*
X114958Y62398D02*
X116958Y56400D01*
X119529Y62398D02*
X117815D01*
X116101D02*
X114387D01*
X90759Y55347D02*
X91140Y54966D01*
X91521Y54394D01*
X91902Y53633D01*
X92093Y52680D01*
Y51919D01*
X91902Y50967D01*
X91521Y50205D01*
X91140Y49633D01*
X90759Y49253D01*
X91140Y54966D02*
X91521Y54204D01*
X91712Y53633D01*
X91902Y52680D01*
Y51919D01*
X91712Y50967D01*
X91521Y50395D01*
X91140Y49633D01*
X89465Y54585D02*
Y50586D01*
X89274Y54585D02*
Y50586D01*
X90036Y54585D02*
X88703D01*
X90036Y50586D02*
X87179D01*
Y51728D01*
X87370Y50586D01*
X86037Y54585D02*
Y50586D01*
X85846Y54585D02*
Y50586D01*
X86608Y54585D02*
X85275D01*
X86608Y50586D02*
X83751D01*
Y51728D01*
X83942Y50586D01*
X82609Y54585D02*
Y50586D01*
X82418Y54585D02*
Y50586D01*
X83180Y54585D02*
X80895D01*
X80324Y54394D01*
X80133Y54204D01*
X79943Y53823D01*
Y53252D01*
X80133Y52871D01*
X80324Y52680D01*
X80895Y52490D01*
X82418D01*
X80895Y54585D02*
X80514Y54394D01*
X80324Y54204D01*
X80133Y53823D01*
Y53252D01*
X80324Y52871D01*
X80514Y52680D01*
X80895Y52490D01*
X83180Y50586D02*
X81847D01*
X76744Y54014D02*
X76553Y53442D01*
Y54585D01*
X76744Y54014D01*
X77124Y54394D01*
X77696Y54585D01*
X78076D01*
X78648Y54394D01*
X79029Y54014D01*
X79219Y53633D01*
X79410Y53061D01*
Y52109D01*
X79219Y51538D01*
X79029Y51157D01*
X78648Y50776D01*
X78076Y50586D01*
X77696D01*
X77124Y50776D01*
X76744Y51157D01*
X76553Y51538D01*
X78076Y54585D02*
X78457Y54394D01*
X78838Y54014D01*
X79029Y53633D01*
X79219Y53061D01*
Y52109D01*
X79029Y51538D01*
X78838Y51157D01*
X78457Y50776D01*
X78076Y50586D01*
X75410Y54585D02*
Y50586D01*
X75220Y54585D02*
Y50586D01*
X72935Y54585D02*
Y50586D01*
X72744Y54585D02*
Y50586D01*
X75982Y54585D02*
X74649D01*
X73506D02*
X72173D01*
X75220Y52680D02*
X72935D01*
X75982Y50586D02*
X74649D01*
X73506D02*
X72173D01*
X69221Y54014D02*
X69031Y54585D01*
Y53442D01*
X69221Y54014D01*
X69602Y54394D01*
X70174Y54585D01*
X70745D01*
X71316Y54394D01*
X71697Y54014D01*
Y53633D01*
X71507Y53252D01*
X71316Y53061D01*
X70935Y52871D01*
X69793Y52490D01*
X69412Y52300D01*
X69031Y51919D01*
X71697Y53633D02*
X71316Y53252D01*
X70935Y53061D01*
X69793Y52680D01*
X69412Y52490D01*
X69221Y52300D01*
X69031Y51919D01*
Y51157D01*
X69412Y50776D01*
X69983Y50586D01*
X70554D01*
X71126Y50776D01*
X71507Y51157D01*
X71697Y51728D01*
Y50586D01*
X71507Y51157D01*
X68441Y55347D02*
X68060Y54966D01*
X67679Y54394D01*
X67298Y53633D01*
X67107Y52680D01*
Y51919D01*
X67298Y50967D01*
X67679Y50205D01*
X68060Y49633D01*
X68441Y49253D01*
X68060Y54966D02*
X67679Y54204D01*
X67488Y53633D01*
X67298Y52680D01*
Y51919D01*
X67488Y50967D01*
X67679Y50395D01*
X68060Y49633D01*
X267328Y13448D02*
X263900D01*
X265614Y11734D02*
Y15162D01*
X267899Y16724D02*
Y18819D01*
X266376Y17676D01*
Y18247D01*
X266185Y18628D01*
X265995Y18819D01*
X265423Y19009D01*
X265043D01*
X264471Y18819D01*
X264090Y18438D01*
X263900Y17866D01*
Y17295D01*
X264090Y16724D01*
X264281Y16533D01*
X264662Y16343D01*
X267899Y19904D02*
X263900Y21428D01*
X267899Y22951D02*
X263900Y21428D01*
X267899Y23846D02*
Y25941D01*
X266376Y24798D01*
Y25370D01*
X266185Y25750D01*
X265995Y25941D01*
X265423Y26131D01*
X265043D01*
X264471Y25941D01*
X264090Y25560D01*
X263900Y24989D01*
Y24417D01*
X264090Y23846D01*
X264281Y23656D01*
X264662Y23465D01*
X197699Y11734D02*
X193700D01*
X197699Y13715D02*
X197509Y13334D01*
X197128Y12953D01*
X196747Y12763D01*
X196176Y12572D01*
X195223D01*
X194652Y12763D01*
X194271Y12953D01*
X193890Y13334D01*
X193700Y13715D01*
Y14477D01*
X193890Y14857D01*
X194271Y15238D01*
X194652Y15429D01*
X195223Y15619D01*
X196176D01*
X196747Y15429D01*
X197128Y15238D01*
X197509Y14857D01*
X197699Y14477D01*
Y13715D01*
Y18457D02*
X195033Y16552D01*
Y19409D01*
X197699Y18457D02*
X193700D01*
X196747Y20304D02*
X196937D01*
X197318Y20494D01*
X197509Y20685D01*
X197699Y21066D01*
Y21827D01*
X197509Y22208D01*
X197318Y22399D01*
X196937Y22589D01*
X196556D01*
X196176Y22399D01*
X195604Y22018D01*
X193700Y20113D01*
Y22780D01*
X147399Y11734D02*
X143400D01*
X147399Y13715D02*
X147209Y13334D01*
X146828Y12953D01*
X146447Y12763D01*
X145876Y12572D01*
X144923D01*
X144352Y12763D01*
X143971Y12953D01*
X143590Y13334D01*
X143400Y13715D01*
Y14477D01*
X143590Y14857D01*
X143971Y15238D01*
X144352Y15429D01*
X144923Y15619D01*
X145876D01*
X146447Y15429D01*
X146828Y15238D01*
X147209Y14857D01*
X147399Y14477D01*
Y13715D01*
Y16933D02*
Y19028D01*
X145876Y17885D01*
Y18457D01*
X145685Y18838D01*
X145495Y19028D01*
X144923Y19218D01*
X144543D01*
X143971Y19028D01*
X143590Y18647D01*
X143400Y18076D01*
Y17504D01*
X143590Y16933D01*
X143781Y16743D01*
X144162Y16552D01*
X147399Y22780D02*
X143400Y20875D01*
X147399Y20113D02*
Y22780D01*
X188299Y11734D02*
X184300D01*
X188299Y13715D02*
X188109Y13334D01*
X187728Y12953D01*
X187347Y12763D01*
X186776Y12572D01*
X185824D01*
X185252Y12763D01*
X184871Y12953D01*
X184490Y13334D01*
X184300Y13715D01*
Y14477D01*
X184490Y14857D01*
X184871Y15238D01*
X185252Y15429D01*
X185824Y15619D01*
X186776D01*
X187347Y15429D01*
X187728Y15238D01*
X188109Y14857D01*
X188299Y14477D01*
Y13715D01*
Y18457D02*
X185633Y16552D01*
Y19409D01*
X188299Y18457D02*
X184300D01*
X187537Y20113D02*
X187728Y20494D01*
X188299Y21066D01*
X184300D01*
X167199Y11734D02*
X163200D01*
X167199Y13715D02*
X167009Y13334D01*
X166628Y12953D01*
X166247Y12763D01*
X165676Y12572D01*
X164724D01*
X164152Y12763D01*
X163771Y12953D01*
X163390Y13334D01*
X163200Y13715D01*
Y14477D01*
X163390Y14857D01*
X163771Y15238D01*
X164152Y15429D01*
X164724Y15619D01*
X165676D01*
X166247Y15429D01*
X166628Y15238D01*
X167009Y14857D01*
X167199Y14477D01*
Y13715D01*
Y16933D02*
Y19028D01*
X165676Y17885D01*
Y18457D01*
X165485Y18838D01*
X165295Y19028D01*
X164724Y19218D01*
X164343D01*
X163771Y19028D01*
X163390Y18647D01*
X163200Y18076D01*
Y17504D01*
X163390Y16933D01*
X163581Y16743D01*
X163962Y16552D01*
X165866Y22589D02*
X165295Y22399D01*
X164914Y22018D01*
X164724Y21447D01*
Y21256D01*
X164914Y20685D01*
X165295Y20304D01*
X165866Y20113D01*
X166057D01*
X166628Y20304D01*
X167009Y20685D01*
X167199Y21256D01*
Y21447D01*
X167009Y22018D01*
X166628Y22399D01*
X165866Y22589D01*
X164914D01*
X163962Y22399D01*
X163390Y22018D01*
X163200Y21447D01*
Y21066D01*
X163390Y20494D01*
X163771Y20304D01*
X177699Y11734D02*
X173700D01*
X177699Y13715D02*
X177509Y13334D01*
X177128Y12953D01*
X176747Y12763D01*
X176176Y12572D01*
X175224D01*
X174652Y12763D01*
X174271Y12953D01*
X173890Y13334D01*
X173700Y13715D01*
Y14477D01*
X173890Y14857D01*
X174271Y15238D01*
X174652Y15429D01*
X175224Y15619D01*
X176176D01*
X176747Y15429D01*
X177128Y15238D01*
X177509Y14857D01*
X177699Y14477D01*
Y13715D01*
Y18457D02*
X175033Y16552D01*
Y19409D01*
X177699Y18457D02*
X173700D01*
X177699Y21256D02*
X177509Y20685D01*
X176937Y20304D01*
X175985Y20113D01*
X175414D01*
X174462Y20304D01*
X173890Y20685D01*
X173700Y21256D01*
Y21637D01*
X173890Y22208D01*
X174462Y22589D01*
X175414Y22780D01*
X175985D01*
X176937Y22589D01*
X177509Y22208D01*
X177699Y21637D01*
Y21256D01*
X207699Y13067D02*
X203700D01*
X207699Y11734D02*
Y14400D01*
Y14876D02*
X203700Y17543D01*
X207699D02*
X203700Y14876D01*
X128099Y11734D02*
X124100D01*
X128099Y13715D02*
X127909Y13334D01*
X127528Y12953D01*
X127147Y12763D01*
X126576Y12572D01*
X125624D01*
X125052Y12763D01*
X124671Y12953D01*
X124290Y13334D01*
X124100Y13715D01*
Y14477D01*
X124290Y14857D01*
X124671Y15238D01*
X125052Y15429D01*
X125624Y15619D01*
X126576D01*
X127147Y15429D01*
X127528Y15238D01*
X127909Y14857D01*
X128099Y14477D01*
Y13715D01*
Y16933D02*
Y19028D01*
X126576Y17885D01*
Y18457D01*
X126385Y18838D01*
X126195Y19028D01*
X125624Y19218D01*
X125243D01*
X124671Y19028D01*
X124290Y18647D01*
X124100Y18076D01*
Y17504D01*
X124290Y16933D01*
X124481Y16743D01*
X124862Y16552D01*
X128099Y22399D02*
Y20494D01*
X126385Y20304D01*
X126576Y20494D01*
X126766Y21066D01*
Y21637D01*
X126576Y22208D01*
X126195Y22589D01*
X125624Y22780D01*
X125243D01*
X124671Y22589D01*
X124290Y22208D01*
X124100Y21637D01*
Y21066D01*
X124290Y20494D01*
X124481Y20304D01*
X124862Y20113D01*
X157399Y11734D02*
X153400D01*
X157399Y13715D02*
X157209Y13334D01*
X156828Y12953D01*
X156447Y12763D01*
X155876Y12572D01*
X154923D01*
X154352Y12763D01*
X153971Y12953D01*
X153590Y13334D01*
X153400Y13715D01*
Y14477D01*
X153590Y14857D01*
X153971Y15238D01*
X154352Y15429D01*
X154923Y15619D01*
X155876D01*
X156447Y15429D01*
X156828Y15238D01*
X157209Y14857D01*
X157399Y14477D01*
Y13715D01*
Y16933D02*
Y19028D01*
X155876Y17885D01*
Y18457D01*
X155685Y18838D01*
X155495Y19028D01*
X154923Y19218D01*
X154543D01*
X153971Y19028D01*
X153590Y18647D01*
X153400Y18076D01*
Y17504D01*
X153590Y16933D01*
X153781Y16743D01*
X154162Y16552D01*
X157399Y21066D02*
X157209Y20494D01*
X156828Y20304D01*
X156447D01*
X156066Y20494D01*
X155876Y20875D01*
X155685Y21637D01*
X155495Y22208D01*
X155114Y22589D01*
X154733Y22780D01*
X154162D01*
X153781Y22589D01*
X153590Y22399D01*
X153400Y21827D01*
Y21066D01*
X153590Y20494D01*
X153781Y20304D01*
X154162Y20113D01*
X154733D01*
X155114Y20304D01*
X155495Y20685D01*
X155685Y21256D01*
X155876Y22018D01*
X156066Y22399D01*
X156447Y22589D01*
X156828D01*
X157209Y22399D01*
X157399Y21827D01*
Y21066D01*
X138099Y11734D02*
X134100D01*
X138099Y13715D02*
X137909Y13334D01*
X137528Y12953D01*
X137147Y12763D01*
X136576Y12572D01*
X135624D01*
X135052Y12763D01*
X134671Y12953D01*
X134290Y13334D01*
X134100Y13715D01*
Y14477D01*
X134290Y14857D01*
X134671Y15238D01*
X135052Y15429D01*
X135624Y15619D01*
X136576D01*
X137147Y15429D01*
X137528Y15238D01*
X137909Y14857D01*
X138099Y14477D01*
Y13715D01*
Y16933D02*
Y19028D01*
X136576Y17885D01*
Y18457D01*
X136385Y18838D01*
X136195Y19028D01*
X135624Y19218D01*
X135243D01*
X134671Y19028D01*
X134290Y18647D01*
X134100Y18076D01*
Y17504D01*
X134290Y16933D01*
X134481Y16743D01*
X134862Y16552D01*
X137528Y22399D02*
X137909Y22208D01*
X138099Y21637D01*
Y21256D01*
X137909Y20685D01*
X137337Y20304D01*
X136385Y20113D01*
X135433D01*
X134671Y20304D01*
X134290Y20685D01*
X134100Y21256D01*
Y21447D01*
X134290Y22018D01*
X134671Y22399D01*
X135243Y22589D01*
X135433D01*
X136004Y22399D01*
X136385Y22018D01*
X136576Y21447D01*
Y21256D01*
X136385Y20685D01*
X136004Y20304D01*
X135433Y20113D01*
X117599Y11734D02*
X113600D01*
X117599Y13715D02*
X117409Y13334D01*
X117028Y12953D01*
X116647Y12763D01*
X116076Y12572D01*
X115123D01*
X114552Y12763D01*
X114171Y12953D01*
X113791Y13334D01*
X113600Y13715D01*
Y14477D01*
X113791Y14857D01*
X114171Y15238D01*
X114552Y15429D01*
X115123Y15619D01*
X116076D01*
X116647Y15429D01*
X117028Y15238D01*
X117409Y14857D01*
X117599Y14477D01*
Y13715D01*
Y16933D02*
Y19028D01*
X116076Y17885D01*
Y18457D01*
X115885Y18838D01*
X115695Y19028D01*
X115123Y19218D01*
X114743D01*
X114171Y19028D01*
X113791Y18647D01*
X113600Y18076D01*
Y17504D01*
X113791Y16933D01*
X113981Y16743D01*
X114362Y16552D01*
X117599Y22018D02*
X114933Y20113D01*
Y22970D01*
X117599Y22018D02*
X113600D01*
X247699Y14210D02*
Y11734D01*
X243700D01*
Y14210D01*
X245795Y11734D02*
Y13258D01*
X247699Y14876D02*
X243700D01*
X247699D02*
X243700Y17543D01*
X247699D02*
X243700D01*
X217899Y11734D02*
X213900D01*
X217899D02*
Y13448D01*
X217709Y14019D01*
X217518Y14210D01*
X217137Y14400D01*
X216757D01*
X216376Y14210D01*
X216185Y14019D01*
X215995Y13448D01*
Y11734D01*
Y13067D02*
X213900Y14400D01*
X217899Y15295D02*
X213900Y17962D01*
X217899D02*
X213900Y15295D01*
X237899Y11734D02*
X233900D01*
X237899Y13715D02*
X237709Y13334D01*
X237328Y12953D01*
X236947Y12763D01*
X236376Y12572D01*
X235423D01*
X234852Y12763D01*
X234471Y12953D01*
X234090Y13334D01*
X233900Y13715D01*
Y14477D01*
X234090Y14857D01*
X234471Y15238D01*
X234852Y15429D01*
X235423Y15619D01*
X236376D01*
X236947Y15429D01*
X237328Y15238D01*
X237709Y14857D01*
X237899Y14477D01*
Y13715D01*
Y18457D02*
X235233Y16552D01*
Y19409D01*
X237899Y18457D02*
X233900D01*
X237328Y22399D02*
X237709Y22208D01*
X237899Y21637D01*
Y21256D01*
X237709Y20685D01*
X237137Y20304D01*
X236185Y20113D01*
X235233D01*
X234471Y20304D01*
X234090Y20685D01*
X233900Y21256D01*
Y21447D01*
X234090Y22018D01*
X234471Y22399D01*
X235043Y22589D01*
X235233D01*
X235804Y22399D01*
X236185Y22018D01*
X236376Y21447D01*
Y21256D01*
X236185Y20685D01*
X235804Y20304D01*
X235233Y20113D01*
X257047Y14591D02*
X257428Y14400D01*
X257809Y14019D01*
X257999Y13639D01*
Y12877D01*
X257809Y12496D01*
X257428Y12115D01*
X257047Y11925D01*
X256476Y11734D01*
X255523D01*
X254952Y11925D01*
X254571Y12115D01*
X254190Y12496D01*
X254000Y12877D01*
Y13639D01*
X254190Y14019D01*
X254571Y14400D01*
X254952Y14591D01*
X255523D01*
Y13639D02*
Y14591D01*
X257999Y15505D02*
X254000D01*
X257999D02*
X254000Y18171D01*
X257999D02*
X254000D01*
X257999Y19276D02*
X254000D01*
X257999D02*
Y20609D01*
X257809Y21180D01*
X257428Y21561D01*
X257047Y21751D01*
X256476Y21942D01*
X255523D01*
X254952Y21751D01*
X254571Y21561D01*
X254190Y21180D01*
X254000Y20609D01*
Y19276D01*
X228099Y11734D02*
X224100D01*
X228099Y13715D02*
X227909Y13334D01*
X227528Y12953D01*
X227147Y12763D01*
X226576Y12572D01*
X225623D01*
X225052Y12763D01*
X224671Y12953D01*
X224290Y13334D01*
X224100Y13715D01*
Y14477D01*
X224290Y14857D01*
X224671Y15238D01*
X225052Y15429D01*
X225623Y15619D01*
X226576D01*
X227147Y15429D01*
X227528Y15238D01*
X227909Y14857D01*
X228099Y14477D01*
Y13715D01*
Y18457D02*
X225433Y16552D01*
Y19409D01*
X228099Y18457D02*
X224100D01*
X228099Y22399D02*
Y20494D01*
X226385Y20304D01*
X226576Y20494D01*
X226766Y21066D01*
Y21637D01*
X226576Y22208D01*
X226195Y22589D01*
X225623Y22780D01*
X225243D01*
X224671Y22589D01*
X224290Y22208D01*
X224100Y21637D01*
Y21066D01*
X224290Y20494D01*
X224481Y20304D01*
X224862Y20113D01*
X46999Y11734D02*
X43000D01*
X46999Y13715D02*
X46809Y13334D01*
X46428Y12953D01*
X46047Y12763D01*
X45476Y12572D01*
X44524D01*
X43952Y12763D01*
X43571Y12953D01*
X43190Y13334D01*
X43000Y13715D01*
Y14477D01*
X43190Y14857D01*
X43571Y15238D01*
X43952Y15429D01*
X44524Y15619D01*
X45476D01*
X46047Y15429D01*
X46428Y15238D01*
X46809Y14857D01*
X46999Y14477D01*
Y13715D01*
Y18457D02*
X44333Y16552D01*
Y19409D01*
X46999Y18457D02*
X43000D01*
X46999Y22780D02*
X43000Y20875D01*
X46999Y20113D02*
Y22780D01*
X58299Y11734D02*
X54300D01*
X58299Y13715D02*
X58109Y13334D01*
X57728Y12953D01*
X57347Y12763D01*
X56776Y12572D01*
X55823D01*
X55252Y12763D01*
X54871Y12953D01*
X54490Y13334D01*
X54300Y13715D01*
Y14477D01*
X54490Y14857D01*
X54871Y15238D01*
X55252Y15429D01*
X55823Y15619D01*
X56776D01*
X57347Y15429D01*
X57728Y15238D01*
X58109Y14857D01*
X58299Y14477D01*
Y13715D01*
Y18457D02*
X55633Y16552D01*
Y19409D01*
X58299Y18457D02*
X54300D01*
X58299Y21066D02*
X58109Y20494D01*
X57728Y20304D01*
X57347D01*
X56966Y20494D01*
X56776Y20875D01*
X56585Y21637D01*
X56395Y22208D01*
X56014Y22589D01*
X55633Y22780D01*
X55062D01*
X54681Y22589D01*
X54490Y22399D01*
X54300Y21827D01*
Y21066D01*
X54490Y20494D01*
X54681Y20304D01*
X55062Y20113D01*
X55633D01*
X56014Y20304D01*
X56395Y20685D01*
X56585Y21256D01*
X56776Y22018D01*
X56966Y22399D01*
X57347Y22589D01*
X57728D01*
X58109Y22399D01*
X58299Y21827D01*
Y21066D01*
X35747Y14591D02*
X36128Y14400D01*
X36509Y14019D01*
X36699Y13639D01*
Y12877D01*
X36509Y12496D01*
X36128Y12115D01*
X35747Y11925D01*
X35176Y11734D01*
X34223D01*
X33652Y11925D01*
X33271Y12115D01*
X32890Y12496D01*
X32700Y12877D01*
Y13639D01*
X32890Y14019D01*
X33271Y14400D01*
X33652Y14591D01*
X34223D01*
Y13639D02*
Y14591D01*
X36699Y15505D02*
X32700D01*
X36699D02*
X32700Y18171D01*
X36699D02*
X32700D01*
X36699Y19276D02*
X32700D01*
X36699D02*
Y20609D01*
X36509Y21180D01*
X36128Y21561D01*
X35747Y21751D01*
X35176Y21942D01*
X34223D01*
X33652Y21751D01*
X33271Y21561D01*
X32890Y21180D01*
X32700Y20609D01*
Y19276D01*
X107799Y11734D02*
X103800D01*
X107799Y13715D02*
X107609Y13334D01*
X107228Y12953D01*
X106847Y12763D01*
X106276Y12572D01*
X105324D01*
X104752Y12763D01*
X104371Y12953D01*
X103990Y13334D01*
X103800Y13715D01*
Y14477D01*
X103990Y14857D01*
X104371Y15238D01*
X104752Y15429D01*
X105324Y15619D01*
X106276D01*
X106847Y15429D01*
X107228Y15238D01*
X107609Y14857D01*
X107799Y14477D01*
Y13715D01*
Y16933D02*
Y19028D01*
X106276Y17885D01*
Y18457D01*
X106085Y18838D01*
X105895Y19028D01*
X105324Y19218D01*
X104943D01*
X104371Y19028D01*
X103990Y18647D01*
X103800Y18076D01*
Y17504D01*
X103990Y16933D01*
X104181Y16743D01*
X104562Y16552D01*
X107799Y20494D02*
Y22589D01*
X106276Y21447D01*
Y22018D01*
X106085Y22399D01*
X105895Y22589D01*
X105324Y22780D01*
X104943D01*
X104371Y22589D01*
X103990Y22208D01*
X103800Y21637D01*
Y21066D01*
X103990Y20494D01*
X104181Y20304D01*
X104562Y20113D01*
X87399Y11734D02*
X83400D01*
X87399Y13715D02*
X87209Y13334D01*
X86828Y12953D01*
X86447Y12763D01*
X85876Y12572D01*
X84923D01*
X84352Y12763D01*
X83971Y12953D01*
X83590Y13334D01*
X83400Y13715D01*
Y14477D01*
X83590Y14857D01*
X83971Y15238D01*
X84352Y15429D01*
X84923Y15619D01*
X85876D01*
X86447Y15429D01*
X86828Y15238D01*
X87209Y14857D01*
X87399Y14477D01*
Y13715D01*
X86447Y16743D02*
X86637D01*
X87018Y16933D01*
X87209Y17124D01*
X87399Y17504D01*
Y18266D01*
X87209Y18647D01*
X87018Y18838D01*
X86637Y19028D01*
X86256D01*
X85876Y18838D01*
X85304Y18457D01*
X83400Y16552D01*
Y19218D01*
X86637Y20113D02*
X86828Y20494D01*
X87399Y21066D01*
X83400D01*
X97699Y11734D02*
X93700D01*
X97699Y13715D02*
X97509Y13334D01*
X97128Y12953D01*
X96747Y12763D01*
X96176Y12572D01*
X95223D01*
X94652Y12763D01*
X94271Y12953D01*
X93890Y13334D01*
X93700Y13715D01*
Y14477D01*
X93890Y14857D01*
X94271Y15238D01*
X94652Y15429D01*
X95223Y15619D01*
X96176D01*
X96747Y15429D01*
X97128Y15238D01*
X97509Y14857D01*
X97699Y14477D01*
Y13715D01*
X96747Y16743D02*
X96937D01*
X97318Y16933D01*
X97509Y17124D01*
X97699Y17504D01*
Y18266D01*
X97509Y18647D01*
X97318Y18838D01*
X96937Y19028D01*
X96557D01*
X96176Y18838D01*
X95604Y18457D01*
X93700Y16552D01*
Y19218D01*
X97128Y22399D02*
X97509Y22208D01*
X97699Y21637D01*
Y21256D01*
X97509Y20685D01*
X96937Y20304D01*
X95985Y20113D01*
X95033D01*
X94271Y20304D01*
X93890Y20685D01*
X93700Y21256D01*
Y21447D01*
X93890Y22018D01*
X94271Y22399D01*
X94843Y22589D01*
X95033D01*
X95604Y22399D01*
X95985Y22018D01*
X96176Y21447D01*
Y21256D01*
X95985Y20685D01*
X95604Y20304D01*
X95033Y20113D01*
X77399Y11734D02*
X74543D01*
X73971Y11925D01*
X73590Y12306D01*
X73400Y12877D01*
Y13258D01*
X73590Y13829D01*
X73971Y14210D01*
X74543Y14400D01*
X77399D01*
X76828Y18171D02*
X77209Y17790D01*
X77399Y17219D01*
Y16457D01*
X77209Y15886D01*
X76828Y15505D01*
X76447D01*
X76066Y15695D01*
X75876Y15886D01*
X75685Y16267D01*
X75304Y17409D01*
X75114Y17790D01*
X74923Y17981D01*
X74543Y18171D01*
X73971D01*
X73590Y17790D01*
X73400Y17219D01*
Y16457D01*
X73590Y15886D01*
X73971Y15505D01*
X77399Y19066D02*
X73400D01*
X77399D02*
Y20780D01*
X77209Y21351D01*
X77018Y21542D01*
X76637Y21732D01*
X76257D01*
X75876Y21542D01*
X75685Y21351D01*
X75495Y20780D01*
Y19066D02*
Y20780D01*
X75304Y21351D01*
X75114Y21542D01*
X74733Y21732D01*
X74162D01*
X73781Y21542D01*
X73590Y21351D01*
X73400Y20780D01*
Y19066D01*
X76828Y24341D02*
X73400D01*
X75114Y22627D02*
Y26055D01*
X67999Y11734D02*
X65143D01*
X64571Y11925D01*
X64190Y12306D01*
X64000Y12877D01*
Y13258D01*
X64190Y13829D01*
X64571Y14210D01*
X65143Y14400D01*
X67999D01*
X67428Y18171D02*
X67809Y17790D01*
X67999Y17219D01*
Y16457D01*
X67809Y15886D01*
X67428Y15505D01*
X67047D01*
X66666Y15695D01*
X66476Y15886D01*
X66285Y16267D01*
X65904Y17409D01*
X65714Y17790D01*
X65523Y17981D01*
X65143Y18171D01*
X64571D01*
X64190Y17790D01*
X64000Y17219D01*
Y16457D01*
X64190Y15886D01*
X64571Y15505D01*
X67999Y19066D02*
X64000D01*
X67999D02*
Y20780D01*
X67809Y21351D01*
X67618Y21542D01*
X67237Y21732D01*
X66856D01*
X66476Y21542D01*
X66285Y21351D01*
X66095Y20780D01*
Y19066D02*
Y20780D01*
X65904Y21351D01*
X65714Y21542D01*
X65333Y21732D01*
X64762D01*
X64381Y21542D01*
X64190Y21351D01*
X64000Y20780D01*
Y19066D01*
X65714Y22627D02*
Y26055D01*
X39899Y83176D02*
X35900D01*
X39899D02*
X35900Y85843D01*
X39899D02*
X35900D01*
X38947Y89804D02*
X39328Y89613D01*
X39709Y89232D01*
X39899Y88851D01*
Y88090D01*
X39709Y87709D01*
X39328Y87328D01*
X38947Y87138D01*
X38376Y86947D01*
X37424D01*
X36852Y87138D01*
X36471Y87328D01*
X36090Y87709D01*
X35900Y88090D01*
Y88851D01*
X36090Y89232D01*
X36471Y89613D01*
X36852Y89804D01*
X59328Y80301D02*
X55900D01*
X57614Y78587D02*
Y82015D01*
X59899Y85481D02*
Y83576D01*
X58185Y83386D01*
X58376Y83576D01*
X58566Y84148D01*
Y84719D01*
X58376Y85290D01*
X57995Y85671D01*
X57424Y85862D01*
X57043D01*
X56471Y85671D01*
X56090Y85290D01*
X55900Y84719D01*
Y84148D01*
X56090Y83576D01*
X56281Y83386D01*
X56662Y83196D01*
X59899Y86757D02*
X55900Y88280D01*
X59899Y89804D02*
X55900Y88280D01*
X48547Y82453D02*
X48928Y82262D01*
X49309Y81881D01*
X49499Y81501D01*
Y80739D01*
X49309Y80358D01*
X48928Y79977D01*
X48547Y79787D01*
X47976Y79596D01*
X47023D01*
X46452Y79787D01*
X46071Y79977D01*
X45690Y80358D01*
X45500Y80739D01*
Y81501D01*
X45690Y81881D01*
X46071Y82262D01*
X46452Y82453D01*
X47023D01*
Y81501D02*
Y82453D01*
X49499Y83367D02*
X45500D01*
X49499D02*
X45500Y86033D01*
X49499D02*
X45500D01*
X49499Y87138D02*
X45500D01*
X49499D02*
Y88471D01*
X49309Y89042D01*
X48928Y89423D01*
X48547Y89613D01*
X47976Y89804D01*
X47023D01*
X46452Y89613D01*
X46071Y89423D01*
X45690Y89042D01*
X45500Y88471D01*
Y87138D01*
X80799Y79387D02*
X76800D01*
X80799Y81367D02*
X80609Y80986D01*
X80228Y80606D01*
X79847Y80415D01*
X79276Y80225D01*
X78324D01*
X77752Y80415D01*
X77371Y80606D01*
X76990Y80986D01*
X76800Y81367D01*
Y82129D01*
X76990Y82510D01*
X77371Y82891D01*
X77752Y83081D01*
X78324Y83272D01*
X79276D01*
X79847Y83081D01*
X80228Y82891D01*
X80609Y82510D01*
X80799Y82129D01*
Y81367D01*
X80037Y84205D02*
X80228Y84586D01*
X80799Y85157D01*
X76800D01*
X80799Y89804D02*
X76800Y87899D01*
X80799Y87138D02*
Y89804D01*
X70699Y79387D02*
X66700D01*
X70699Y81367D02*
X70509Y80986D01*
X70128Y80606D01*
X69747Y80415D01*
X69176Y80225D01*
X68224D01*
X67652Y80415D01*
X67271Y80606D01*
X66890Y80986D01*
X66700Y81367D01*
Y82129D01*
X66890Y82510D01*
X67271Y82891D01*
X67652Y83081D01*
X68224Y83272D01*
X69176D01*
X69747Y83081D01*
X70128Y82891D01*
X70509Y82510D01*
X70699Y82129D01*
Y81367D01*
X69937Y84205D02*
X70128Y84586D01*
X70699Y85157D01*
X66700D01*
X70699Y88090D02*
X70509Y87518D01*
X70128Y87328D01*
X69747D01*
X69366Y87518D01*
X69176Y87899D01*
X68985Y88661D01*
X68795Y89232D01*
X68414Y89613D01*
X68033Y89804D01*
X67462D01*
X67081Y89613D01*
X66890Y89423D01*
X66700Y88851D01*
Y88090D01*
X66890Y87518D01*
X67081Y87328D01*
X67462Y87138D01*
X68033D01*
X68414Y87328D01*
X68795Y87709D01*
X68985Y88280D01*
X69176Y89042D01*
X69366Y89423D01*
X69747Y89613D01*
X70128D01*
X70509Y89423D01*
X70699Y88851D01*
Y88090D01*
X101099Y79387D02*
X97100D01*
X101099Y81367D02*
X100909Y80986D01*
X100528Y80606D01*
X100147Y80415D01*
X99576Y80225D01*
X98624D01*
X98052Y80415D01*
X97671Y80606D01*
X97290Y80986D01*
X97100Y81367D01*
Y82129D01*
X97290Y82510D01*
X97671Y82891D01*
X98052Y83081D01*
X98624Y83272D01*
X99576D01*
X100147Y83081D01*
X100528Y82891D01*
X100909Y82510D01*
X101099Y82129D01*
Y81367D01*
X100337Y84205D02*
X100528Y84586D01*
X101099Y85157D01*
X97100D01*
X101099Y89423D02*
Y87518D01*
X99385Y87328D01*
X99576Y87518D01*
X99766Y88090D01*
Y88661D01*
X99576Y89232D01*
X99195Y89613D01*
X98624Y89804D01*
X98243D01*
X97671Y89613D01*
X97290Y89232D01*
X97100Y88661D01*
Y88090D01*
X97290Y87518D01*
X97481Y87328D01*
X97862Y87138D01*
X90599Y79577D02*
X86600D01*
X90599Y81558D02*
X90409Y81177D01*
X90028Y80796D01*
X89647Y80606D01*
X89076Y80415D01*
X88124D01*
X87552Y80606D01*
X87171Y80796D01*
X86790Y81177D01*
X86600Y81558D01*
Y82319D01*
X86790Y82700D01*
X87171Y83081D01*
X87552Y83272D01*
X88124Y83462D01*
X89076D01*
X89647Y83272D01*
X90028Y83081D01*
X90409Y82700D01*
X90599Y82319D01*
Y81558D01*
X89837Y84395D02*
X90028Y84776D01*
X90599Y85347D01*
X86600D01*
X90028Y89613D02*
X90409Y89423D01*
X90599Y88851D01*
Y88471D01*
X90409Y87899D01*
X89837Y87518D01*
X88885Y87328D01*
X87933D01*
X87171Y87518D01*
X86790Y87899D01*
X86600Y88471D01*
Y88661D01*
X86790Y89232D01*
X87171Y89613D01*
X87743Y89804D01*
X87933D01*
X88504Y89613D01*
X88885Y89232D01*
X89076Y88661D01*
Y88471D01*
X88885Y87899D01*
X88504Y87518D01*
X87933Y87328D01*
X120599Y79387D02*
X116600D01*
X120599Y81367D02*
X120409Y80986D01*
X120028Y80606D01*
X119647Y80415D01*
X119076Y80225D01*
X118123D01*
X117552Y80415D01*
X117171Y80606D01*
X116790Y80986D01*
X116600Y81367D01*
Y82129D01*
X116790Y82510D01*
X117171Y82891D01*
X117552Y83081D01*
X118123Y83272D01*
X119076D01*
X119647Y83081D01*
X120028Y82891D01*
X120409Y82510D01*
X120599Y82129D01*
Y81367D01*
X119837Y84205D02*
X120028Y84586D01*
X120599Y85157D01*
X116600D01*
X120599Y87518D02*
Y89613D01*
X119076Y88471D01*
Y89042D01*
X118885Y89423D01*
X118695Y89613D01*
X118123Y89804D01*
X117743D01*
X117171Y89613D01*
X116790Y89232D01*
X116600Y88661D01*
Y88090D01*
X116790Y87518D01*
X116981Y87328D01*
X117362Y87138D01*
X110799Y79196D02*
X106800D01*
X110799Y81177D02*
X110609Y80796D01*
X110228Y80415D01*
X109847Y80225D01*
X109276Y80034D01*
X108324D01*
X107752Y80225D01*
X107371Y80415D01*
X106990Y80796D01*
X106800Y81177D01*
Y81939D01*
X106990Y82319D01*
X107371Y82700D01*
X107752Y82891D01*
X108324Y83081D01*
X109276D01*
X109847Y82891D01*
X110228Y82700D01*
X110609Y82319D01*
X110799Y81939D01*
Y81177D01*
X110037Y84014D02*
X110228Y84395D01*
X110799Y84967D01*
X106800D01*
X110799Y88851D02*
X108133Y86947D01*
Y89804D01*
X110799Y88851D02*
X106800D01*
X140799Y81101D02*
X136800D01*
X140799Y83081D02*
X140609Y82700D01*
X140228Y82319D01*
X139847Y82129D01*
X139276Y81939D01*
X138323D01*
X137752Y82129D01*
X137371Y82319D01*
X136990Y82700D01*
X136800Y83081D01*
Y83843D01*
X136990Y84224D01*
X137371Y84605D01*
X137752Y84795D01*
X138323Y84986D01*
X139276D01*
X139847Y84795D01*
X140228Y84605D01*
X140609Y84224D01*
X140799Y83843D01*
Y83081D01*
X140037Y85919D02*
X140228Y86300D01*
X140799Y86871D01*
X136800D01*
X140037Y88851D02*
X140228Y89232D01*
X140799Y89804D01*
X136800D01*
X130699Y79387D02*
X126700D01*
X130699Y81367D02*
X130509Y80986D01*
X130128Y80606D01*
X129747Y80415D01*
X129176Y80225D01*
X128224D01*
X127652Y80415D01*
X127271Y80606D01*
X126891Y80986D01*
X126700Y81367D01*
Y82129D01*
X126891Y82510D01*
X127271Y82891D01*
X127652Y83081D01*
X128224Y83272D01*
X129176D01*
X129747Y83081D01*
X130128Y82891D01*
X130509Y82510D01*
X130699Y82129D01*
Y81367D01*
X129937Y84205D02*
X130128Y84586D01*
X130699Y85157D01*
X126700D01*
X129747Y87328D02*
X129937D01*
X130318Y87518D01*
X130509Y87709D01*
X130699Y88090D01*
Y88851D01*
X130509Y89232D01*
X130318Y89423D01*
X129937Y89613D01*
X129557D01*
X129176Y89423D01*
X128604Y89042D01*
X126700Y87138D01*
Y89804D01*
X161199Y82510D02*
X157200D01*
X161199Y84491D02*
X161009Y84110D01*
X160628Y83729D01*
X160247Y83538D01*
X159676Y83348D01*
X158723D01*
X158152Y83538D01*
X157771Y83729D01*
X157390Y84110D01*
X157200Y84491D01*
Y85252D01*
X157390Y85633D01*
X157771Y86014D01*
X158152Y86204D01*
X158723Y86395D01*
X159676D01*
X160247Y86204D01*
X160628Y86014D01*
X161009Y85633D01*
X161199Y85252D01*
Y84491D01*
X159866Y89804D02*
X159295Y89613D01*
X158914Y89232D01*
X158723Y88661D01*
Y88471D01*
X158914Y87899D01*
X159295Y87518D01*
X159866Y87328D01*
X160056D01*
X160628Y87518D01*
X161009Y87899D01*
X161199Y88471D01*
Y88661D01*
X161009Y89232D01*
X160628Y89613D01*
X159866Y89804D01*
X158914D01*
X157962Y89613D01*
X157390Y89232D01*
X157200Y88661D01*
Y88280D01*
X157390Y87709D01*
X157771Y87518D01*
X150399Y79387D02*
X146400D01*
X150399Y81367D02*
X150209Y80986D01*
X149828Y80606D01*
X149447Y80415D01*
X148876Y80225D01*
X147924D01*
X147352Y80415D01*
X146971Y80606D01*
X146590Y80986D01*
X146400Y81367D01*
Y82129D01*
X146590Y82510D01*
X146971Y82891D01*
X147352Y83081D01*
X147924Y83272D01*
X148876D01*
X149447Y83081D01*
X149828Y82891D01*
X150209Y82510D01*
X150399Y82129D01*
Y81367D01*
X149637Y84205D02*
X149828Y84586D01*
X150399Y85157D01*
X146400D01*
X150399Y88280D02*
X150209Y87709D01*
X149637Y87328D01*
X148685Y87138D01*
X148114D01*
X147162Y87328D01*
X146590Y87709D01*
X146400Y88280D01*
Y88661D01*
X146590Y89232D01*
X147162Y89613D01*
X148114Y89804D01*
X148685D01*
X149637Y89613D01*
X150209Y89232D01*
X150399Y88661D01*
Y88280D01*
X181499Y82319D02*
X177500D01*
X181499Y84300D02*
X181309Y83919D01*
X180928Y83538D01*
X180547Y83348D01*
X179976Y83157D01*
X179024D01*
X178452Y83348D01*
X178071Y83538D01*
X177690Y83919D01*
X177500Y84300D01*
Y85062D01*
X177690Y85443D01*
X178071Y85824D01*
X178452Y86014D01*
X179024Y86204D01*
X179976D01*
X180547Y86014D01*
X180928Y85824D01*
X181309Y85443D01*
X181499Y85062D01*
Y84300D01*
Y89804D02*
X177500Y87899D01*
X181499Y87138D02*
Y89804D01*
X170599Y82319D02*
X166600D01*
X170599Y84300D02*
X170409Y83919D01*
X170028Y83538D01*
X169647Y83348D01*
X169076Y83157D01*
X168123D01*
X167552Y83348D01*
X167171Y83538D01*
X166790Y83919D01*
X166600Y84300D01*
Y85062D01*
X166790Y85443D01*
X167171Y85824D01*
X167552Y86014D01*
X168123Y86204D01*
X169076D01*
X169647Y86014D01*
X170028Y85824D01*
X170409Y85443D01*
X170599Y85062D01*
Y84300D01*
Y88090D02*
X170409Y87518D01*
X170028Y87328D01*
X169647D01*
X169266Y87518D01*
X169076Y87899D01*
X168885Y88661D01*
X168695Y89232D01*
X168314Y89613D01*
X167933Y89804D01*
X167362D01*
X166981Y89613D01*
X166790Y89423D01*
X166600Y88851D01*
Y88090D01*
X166790Y87518D01*
X166981Y87328D01*
X167362Y87138D01*
X167933D01*
X168314Y87328D01*
X168695Y87709D01*
X168885Y88280D01*
X169076Y89042D01*
X169266Y89423D01*
X169647Y89613D01*
X170028D01*
X170409Y89423D01*
X170599Y88851D01*
Y88090D01*
X201199Y82319D02*
X197200D01*
X201199Y84300D02*
X201009Y83919D01*
X200628Y83538D01*
X200247Y83348D01*
X199676Y83157D01*
X198723D01*
X198152Y83348D01*
X197771Y83538D01*
X197390Y83919D01*
X197200Y84300D01*
Y85062D01*
X197390Y85443D01*
X197771Y85824D01*
X198152Y86014D01*
X198723Y86204D01*
X199676D01*
X200247Y86014D01*
X200628Y85824D01*
X201009Y85443D01*
X201199Y85062D01*
Y84300D01*
Y89423D02*
Y87518D01*
X199485Y87328D01*
X199676Y87518D01*
X199866Y88090D01*
Y88661D01*
X199676Y89232D01*
X199295Y89613D01*
X198723Y89804D01*
X198343D01*
X197771Y89613D01*
X197390Y89232D01*
X197200Y88661D01*
Y88090D01*
X197390Y87518D01*
X197581Y87328D01*
X197962Y87138D01*
X190799Y82510D02*
X186800D01*
X190799Y84491D02*
X190609Y84110D01*
X190228Y83729D01*
X189847Y83538D01*
X189276Y83348D01*
X188323D01*
X187752Y83538D01*
X187371Y83729D01*
X186990Y84110D01*
X186800Y84491D01*
Y85252D01*
X186990Y85633D01*
X187371Y86014D01*
X187752Y86204D01*
X188323Y86395D01*
X189276D01*
X189847Y86204D01*
X190228Y86014D01*
X190609Y85633D01*
X190799Y85252D01*
Y84491D01*
X190228Y89613D02*
X190609Y89423D01*
X190799Y88851D01*
Y88471D01*
X190609Y87899D01*
X190037Y87518D01*
X189085Y87328D01*
X188133D01*
X187371Y87518D01*
X186990Y87899D01*
X186800Y88471D01*
Y88661D01*
X186990Y89232D01*
X187371Y89613D01*
X187943Y89804D01*
X188133D01*
X188704Y89613D01*
X189085Y89232D01*
X189276Y88661D01*
Y88471D01*
X189085Y87899D01*
X188704Y87518D01*
X188133Y87328D01*
X220999Y82319D02*
X217000D01*
X220999Y84300D02*
X220809Y83919D01*
X220428Y83538D01*
X220047Y83348D01*
X219476Y83157D01*
X218524D01*
X217952Y83348D01*
X217571Y83538D01*
X217190Y83919D01*
X217000Y84300D01*
Y85062D01*
X217190Y85443D01*
X217571Y85824D01*
X217952Y86014D01*
X218524Y86204D01*
X219476D01*
X220047Y86014D01*
X220428Y85824D01*
X220809Y85443D01*
X220999Y85062D01*
Y84300D01*
Y87518D02*
Y89613D01*
X219476Y88471D01*
Y89042D01*
X219285Y89423D01*
X219095Y89613D01*
X218524Y89804D01*
X218143D01*
X217571Y89613D01*
X217190Y89232D01*
X217000Y88661D01*
Y88090D01*
X217190Y87518D01*
X217381Y87328D01*
X217762Y87138D01*
X211499Y82129D02*
X207500D01*
X211499Y84110D02*
X211309Y83729D01*
X210928Y83348D01*
X210547Y83157D01*
X209976Y82967D01*
X209023D01*
X208452Y83157D01*
X208071Y83348D01*
X207691Y83729D01*
X207500Y84110D01*
Y84871D01*
X207691Y85252D01*
X208071Y85633D01*
X208452Y85824D01*
X209023Y86014D01*
X209976D01*
X210547Y85824D01*
X210928Y85633D01*
X211309Y85252D01*
X211499Y84871D01*
Y84110D01*
Y88851D02*
X208833Y86947D01*
Y89804D01*
X211499Y88851D02*
X207500D01*
X247599Y82319D02*
X243600D01*
X247599Y84300D02*
X247409Y83919D01*
X247028Y83538D01*
X246647Y83348D01*
X246076Y83157D01*
X245124D01*
X244552Y83348D01*
X244171Y83538D01*
X243790Y83919D01*
X243600Y84300D01*
Y85062D01*
X243790Y85443D01*
X244171Y85824D01*
X244552Y86014D01*
X245124Y86204D01*
X246076D01*
X246647Y86014D01*
X247028Y85824D01*
X247409Y85443D01*
X247599Y85062D01*
Y84300D01*
Y88280D02*
X247409Y87709D01*
X246837Y87328D01*
X245885Y87138D01*
X245314D01*
X244362Y87328D01*
X243790Y87709D01*
X243600Y88280D01*
Y88661D01*
X243790Y89232D01*
X244362Y89613D01*
X245314Y89804D01*
X245885D01*
X246837Y89613D01*
X247409Y89232D01*
X247599Y88661D01*
Y88280D01*
X257899Y80396D02*
Y82491D01*
X256376Y81348D01*
Y81920D01*
X256185Y82301D01*
X255995Y82491D01*
X255423Y82681D01*
X255043D01*
X254471Y82491D01*
X254090Y82110D01*
X253900Y81539D01*
Y80967D01*
X254090Y80396D01*
X254281Y80206D01*
X254662Y80015D01*
X257899Y83576D02*
X253900Y85100D01*
X257899Y86623D02*
X253900Y85100D01*
X257899Y87518D02*
Y89613D01*
X256376Y88471D01*
Y89042D01*
X256185Y89423D01*
X255995Y89613D01*
X255423Y89804D01*
X255043D01*
X254471Y89613D01*
X254090Y89232D01*
X253900Y88661D01*
Y88090D01*
X254090Y87518D01*
X254281Y87328D01*
X254662Y87138D01*
X229899Y82319D02*
X225900D01*
X229899Y84300D02*
X229709Y83919D01*
X229328Y83538D01*
X228947Y83348D01*
X228376Y83157D01*
X227424D01*
X226852Y83348D01*
X226471Y83538D01*
X226090Y83919D01*
X225900Y84300D01*
Y85062D01*
X226090Y85443D01*
X226471Y85824D01*
X226852Y86014D01*
X227424Y86204D01*
X228376D01*
X228947Y86014D01*
X229328Y85824D01*
X229709Y85443D01*
X229899Y85062D01*
Y84300D01*
X228947Y87328D02*
X229137D01*
X229518Y87518D01*
X229709Y87709D01*
X229899Y88090D01*
Y88851D01*
X229709Y89232D01*
X229518Y89423D01*
X229137Y89613D01*
X228756D01*
X228376Y89423D01*
X227804Y89042D01*
X225900Y87138D01*
Y89804D01*
X237999Y84034D02*
X234000D01*
X237999Y86014D02*
X237809Y85633D01*
X237428Y85252D01*
X237047Y85062D01*
X236476Y84871D01*
X235524D01*
X234952Y85062D01*
X234571Y85252D01*
X234190Y85633D01*
X234000Y86014D01*
Y86776D01*
X234190Y87157D01*
X234571Y87537D01*
X234952Y87728D01*
X235524Y87918D01*
X236476D01*
X237047Y87728D01*
X237428Y87537D01*
X237809Y87157D01*
X237999Y86776D01*
Y86014D01*
X237237Y88851D02*
X237428Y89232D01*
X237999Y89804D01*
X234000D01*
X266947Y82453D02*
X267328Y82262D01*
X267709Y81881D01*
X267899Y81501D01*
Y80739D01*
X267709Y80358D01*
X267328Y79977D01*
X266947Y79787D01*
X266376Y79596D01*
X265423D01*
X264852Y79787D01*
X264471Y79977D01*
X264090Y80358D01*
X263900Y80739D01*
Y81501D01*
X264090Y81881D01*
X264471Y82262D01*
X264852Y82453D01*
X265423D01*
Y81501D02*
Y82453D01*
X267899Y83367D02*
X263900D01*
X267899D02*
X263900Y86033D01*
X267899D02*
X263900D01*
X267899Y87138D02*
X263900D01*
X267899D02*
Y88471D01*
X267709Y89042D01*
X267328Y89423D01*
X266947Y89613D01*
X266376Y89804D01*
X265423D01*
X264852Y89613D01*
X264471Y89423D01*
X264090Y89042D01*
X263900Y88471D01*
Y87138D01*
X262600Y-7400D02*
Y-6067D01*
Y-6734D01*
X266599D01*
X265932Y-7400D01*
X264500Y104500D02*
Y105833D01*
Y105166D01*
X268499D01*
X267832Y104500D01*
D79*
X270500Y-100D02*
Y9900D01*
X30500D02*
X270500D01*
X30500Y-100D02*
Y9900D01*
Y-100D02*
X270500D01*
Y92000D02*
Y102000D01*
X30500D02*
X270500D01*
X30500Y92000D02*
Y102000D01*
Y92000D02*
X270500D01*
M02*
