G04*
G04 #@! TF.GenerationSoftware,Altium Limited,Altium Designer,25.8.1 (18)*
G04*
G04 Layer_Color=8421504*
%FSLAX25Y25*%
%MOIN*%
G70*
G04*
G04 #@! TF.SameCoordinates,32EA78B9-D10A-4EA7-89C3-F5576A3C80F4*
G04*
G04*
G04 #@! TF.FilePolarity,Positive*
G04*
G01*
G75*
%ADD16R,0.05105X0.05105*%
%ADD17R,0.02362X0.02126*%
G04:AMPARAMS|DCode=18|XSize=33.06mil|YSize=9.55mil|CornerRadius=4.77mil|HoleSize=0mil|Usage=FLASHONLY|Rotation=270.000|XOffset=0mil|YOffset=0mil|HoleType=Round|Shape=RoundedRectangle|*
%AMROUNDEDRECTD18*
21,1,0.03306,0.00000,0,0,270.0*
21,1,0.02351,0.00955,0,0,270.0*
1,1,0.00955,0.00000,-0.01176*
1,1,0.00955,0.00000,0.01176*
1,1,0.00955,0.00000,0.01176*
1,1,0.00955,0.00000,-0.01176*
%
%ADD18ROUNDEDRECTD18*%
%ADD19R,0.02126X0.02362*%
G04:AMPARAMS|DCode=20|XSize=9.55mil|YSize=33.06mil|CornerRadius=4.77mil|HoleSize=0mil|Usage=FLASHONLY|Rotation=270.000|XOffset=0mil|YOffset=0mil|HoleType=Round|Shape=RoundedRectangle|*
%AMROUNDEDRECTD20*
21,1,0.00955,0.02351,0,0,270.0*
21,1,0.00000,0.03306,0,0,270.0*
1,1,0.00955,-0.01176,0.00000*
1,1,0.00955,-0.01176,0.00000*
1,1,0.00955,0.01176,0.00000*
1,1,0.00955,0.01176,0.00000*
%
%ADD20ROUNDEDRECTD20*%
G04:AMPARAMS|DCode=21|XSize=23.62mil|YSize=21.26mil|CornerRadius=5.63mil|HoleSize=0mil|Usage=FLASHONLY|Rotation=270.000|XOffset=0mil|YOffset=0mil|HoleType=Round|Shape=RoundedRectangle|*
%AMROUNDEDRECTD21*
21,1,0.02362,0.00999,0,0,270.0*
21,1,0.01235,0.02126,0,0,270.0*
1,1,0.01127,-0.00500,-0.00618*
1,1,0.01127,-0.00500,0.00618*
1,1,0.01127,0.00500,0.00618*
1,1,0.01127,0.00500,-0.00618*
%
%ADD21ROUNDEDRECTD21*%
G04:AMPARAMS|DCode=22|XSize=53.43mil|YSize=22.53mil|CornerRadius=11.26mil|HoleSize=0mil|Usage=FLASHONLY|Rotation=0.000|XOffset=0mil|YOffset=0mil|HoleType=Round|Shape=RoundedRectangle|*
%AMROUNDEDRECTD22*
21,1,0.05343,0.00000,0,0,0.0*
21,1,0.03091,0.02253,0,0,0.0*
1,1,0.02253,0.01545,0.00000*
1,1,0.02253,-0.01545,0.00000*
1,1,0.02253,-0.01545,0.00000*
1,1,0.02253,0.01545,0.00000*
%
%ADD22ROUNDEDRECTD22*%
%ADD23R,0.01378X0.02362*%
%ADD24R,0.04528X0.02362*%
G04:AMPARAMS|DCode=25|XSize=23.62mil|YSize=21.26mil|CornerRadius=5.63mil|HoleSize=0mil|Usage=FLASHONLY|Rotation=180.000|XOffset=0mil|YOffset=0mil|HoleType=Round|Shape=RoundedRectangle|*
%AMROUNDEDRECTD25*
21,1,0.02362,0.00999,0,0,180.0*
21,1,0.01235,0.02126,0,0,180.0*
1,1,0.01127,-0.00618,0.00500*
1,1,0.01127,0.00618,0.00500*
1,1,0.01127,0.00618,-0.00500*
1,1,0.01127,-0.00618,-0.00500*
%
%ADD25ROUNDEDRECTD25*%
%ADD26R,0.06102X0.05118*%
G04:AMPARAMS|DCode=27|XSize=125.98mil|YSize=68.9mil|CornerRadius=2.07mil|HoleSize=0mil|Usage=FLASHONLY|Rotation=90.000|XOffset=0mil|YOffset=0mil|HoleType=Round|Shape=RoundedRectangle|*
%AMROUNDEDRECTD27*
21,1,0.12598,0.06476,0,0,90.0*
21,1,0.12185,0.06890,0,0,90.0*
1,1,0.00413,0.03238,0.06093*
1,1,0.00413,0.03238,-0.06093*
1,1,0.00413,-0.03238,-0.06093*
1,1,0.00413,-0.03238,0.06093*
%
%ADD27ROUNDEDRECTD27*%
G04:AMPARAMS|DCode=28|XSize=35.43mil|YSize=68.9mil|CornerRadius=1.95mil|HoleSize=0mil|Usage=FLASHONLY|Rotation=90.000|XOffset=0mil|YOffset=0mil|HoleType=Round|Shape=RoundedRectangle|*
%AMROUNDEDRECTD28*
21,1,0.03543,0.06500,0,0,90.0*
21,1,0.03154,0.06890,0,0,90.0*
1,1,0.00390,0.03250,0.01577*
1,1,0.00390,0.03250,-0.01577*
1,1,0.00390,-0.03250,-0.01577*
1,1,0.00390,-0.03250,0.01577*
%
%ADD28ROUNDEDRECTD28*%
%ADD29R,0.02362X0.01378*%
%ADD30R,0.02756X0.02362*%
%ADD31R,0.03150X0.03150*%
%ADD32R,0.01575X0.03150*%
%ADD33R,0.03150X0.01575*%
%ADD34R,0.04724X0.04724*%
%ADD35R,0.00955X0.03306*%
%ADD36R,0.04528X0.01181*%
%ADD37R,0.05343X0.02253*%
G36*
X243637Y54134D02*
Y58858D01*
X245999D01*
X248361Y56496D01*
Y54134D01*
X243637D01*
D02*
G37*
D16*
X71000Y77000D02*
D03*
D17*
X58900Y60801D02*
D03*
Y57399D02*
D03*
X102200Y68501D02*
D03*
Y82699D02*
D03*
X38500Y16201D02*
D03*
Y23499D02*
D03*
X43000Y83299D02*
D03*
Y77501D02*
D03*
Y74099D02*
D03*
Y86701D02*
D03*
X102200Y65099D02*
D03*
X165950Y27150D02*
D03*
X38500Y26901D02*
D03*
X102200Y86101D02*
D03*
X165950Y30552D02*
D03*
X38500Y12799D02*
D03*
X179000Y18799D02*
D03*
Y22201D02*
D03*
Y81201D02*
D03*
Y77799D02*
D03*
D18*
X74937Y69459D02*
D03*
X69032D02*
D03*
X71000Y84541D02*
D03*
Y69459D02*
D03*
X67063D02*
D03*
X72969Y84541D02*
D03*
X69032D02*
D03*
X67063D02*
D03*
X72969Y69459D02*
D03*
D19*
X84021Y56089D02*
D03*
X55501Y74556D02*
D03*
X90699Y86300D02*
D03*
X55501Y79656D02*
D03*
X67201Y51400D02*
D03*
X72099D02*
D03*
X87391Y61189D02*
D03*
X87423Y56089D02*
D03*
X202099Y14600D02*
D03*
X84073Y66289D02*
D03*
X83989Y61189D02*
D03*
X212499Y14600D02*
D03*
X195899Y52000D02*
D03*
X192498D02*
D03*
Y44800D02*
D03*
X195899D02*
D03*
D03*
Y52000D02*
D03*
X198901Y85300D02*
D03*
X195499D02*
D03*
X198901Y80200D02*
D03*
X195499D02*
D03*
X215901Y14600D02*
D03*
X94101Y86300D02*
D03*
X75501Y51400D02*
D03*
X63799D02*
D03*
X199301Y44800D02*
D03*
Y52000D02*
D03*
X205501Y14600D02*
D03*
X87475Y66289D02*
D03*
X52099Y79656D02*
D03*
Y74556D02*
D03*
D20*
X63459Y75032D02*
D03*
Y73063D02*
D03*
X78541Y80937D02*
D03*
Y77000D02*
D03*
X63459D02*
D03*
X78541Y78969D02*
D03*
Y73063D02*
D03*
Y75032D02*
D03*
X63459Y80937D02*
D03*
Y78969D02*
D03*
D21*
X90707Y81300D02*
D03*
X55393Y69556D02*
D03*
X72107Y56400D02*
D03*
Y61300D02*
D03*
X43668Y63023D02*
D03*
X46193Y37100D02*
D03*
X52207Y88000D02*
D03*
X245303Y86555D02*
D03*
X266996D02*
D03*
X263607Y13300D02*
D03*
X257310Y86555D02*
D03*
X75493Y56400D02*
D03*
Y61300D02*
D03*
X94093Y81300D02*
D03*
X52007Y69556D02*
D03*
X40282Y63023D02*
D03*
X42807Y37100D02*
D03*
X55593Y88000D02*
D03*
X248689Y86555D02*
D03*
X263610D02*
D03*
X266993Y13300D02*
D03*
X253924Y86555D02*
D03*
D22*
X109271Y79260D02*
D03*
Y64789D02*
D03*
X116756Y68529D02*
D03*
Y83000D02*
D03*
D23*
X32295Y62900D02*
D03*
X32212Y37100D02*
D03*
X34771D02*
D03*
X34854Y62900D02*
D03*
D24*
X23484Y34798D02*
D03*
Y9602D02*
D03*
Y92298D02*
D03*
Y67102D02*
D03*
Y12751D02*
D03*
Y31649D02*
D03*
Y70251D02*
D03*
Y89149D02*
D03*
D25*
X164350Y64776D02*
D03*
X166050Y18712D02*
D03*
X56000Y33807D02*
D03*
Y24593D02*
D03*
X51100D02*
D03*
X63900Y57407D02*
D03*
Y60793D02*
D03*
X166050Y22098D02*
D03*
X164350Y68162D02*
D03*
X56000Y37193D02*
D03*
Y21207D02*
D03*
X51100D02*
D03*
D26*
X155650Y83858D02*
D03*
X124350D02*
D03*
X155650Y33858D02*
D03*
X124350D02*
D03*
Y16142D02*
D03*
X155650D02*
D03*
Y66142D02*
D03*
X124350D02*
D03*
D27*
X90303Y29000D02*
D03*
D28*
X65697D02*
D03*
Y19945D02*
D03*
Y38055D02*
D03*
D29*
X36000Y85559D02*
D03*
Y74721D02*
D03*
X32600Y24479D02*
D03*
Y15021D02*
D03*
Y21921D02*
D03*
X36000Y83000D02*
D03*
Y77280D02*
D03*
X32600Y17580D02*
D03*
D30*
X173000Y18130D02*
D03*
X173000Y81870D02*
D03*
Y78130D02*
D03*
X173000Y21870D02*
D03*
D31*
X267062Y77559D02*
D03*
X211944D02*
D03*
X267062Y22441D02*
D03*
X211944D02*
D03*
D32*
X262928Y77559D02*
D03*
X259582D02*
D03*
X252889Y22441D02*
D03*
X256235D02*
D03*
X246196D02*
D03*
X256235Y77559D02*
D03*
X252889D02*
D03*
X249542D02*
D03*
X246196D02*
D03*
X242849D02*
D03*
X239503D02*
D03*
X236157D02*
D03*
X232810D02*
D03*
X229464D02*
D03*
X226117D02*
D03*
X222771D02*
D03*
X219424D02*
D03*
X216078D02*
D03*
Y22441D02*
D03*
X219424D02*
D03*
X222771D02*
D03*
X226117D02*
D03*
X229464D02*
D03*
X232810D02*
D03*
X236157D02*
D03*
X239503D02*
D03*
X242849D02*
D03*
X249542D02*
D03*
X259582D02*
D03*
X262928D02*
D03*
D33*
X267062Y26575D02*
D03*
Y29921D02*
D03*
Y33268D02*
D03*
Y36614D02*
D03*
Y39961D02*
D03*
Y43307D02*
D03*
Y46654D02*
D03*
Y50000D02*
D03*
Y53347D02*
D03*
Y56693D02*
D03*
Y60039D02*
D03*
Y63386D02*
D03*
Y66732D02*
D03*
Y70079D02*
D03*
Y73425D02*
D03*
X211944Y46654D02*
D03*
Y50000D02*
D03*
Y73425D02*
D03*
Y70079D02*
D03*
Y66732D02*
D03*
Y63386D02*
D03*
Y60039D02*
D03*
Y56693D02*
D03*
Y53347D02*
D03*
Y43307D02*
D03*
Y39961D02*
D03*
Y36614D02*
D03*
Y33268D02*
D03*
Y29921D02*
D03*
Y26575D02*
D03*
D34*
X239503Y50000D02*
D03*
X245999D02*
D03*
Y43504D02*
D03*
X239503D02*
D03*
X233007D02*
D03*
Y50000D02*
D03*
Y56496D02*
D03*
X239503D02*
D03*
D35*
X74937Y84541D02*
D03*
D36*
X23484Y21216D02*
D03*
Y25153D02*
D03*
Y27121D02*
D03*
Y29090D02*
D03*
Y23184D02*
D03*
Y19247D02*
D03*
Y17279D02*
D03*
Y15310D02*
D03*
Y86590D02*
D03*
Y84621D02*
D03*
Y82653D02*
D03*
Y80684D02*
D03*
Y78716D02*
D03*
Y76747D02*
D03*
Y74779D02*
D03*
Y72810D02*
D03*
D37*
X109271Y72269D02*
D03*
Y86740D02*
D03*
M02*
