G04*
G04 #@! TF.GenerationSoftware,Altium Limited,Altium Designer,25.8.1 (18)*
G04*
G04 Layer_Physical_Order=2*
G04 Layer_Color=36540*
%FSLAX25Y25*%
%MOIN*%
G70*
G04*
G04 #@! TF.SameCoordinates,32EA78B9-D10A-4EA7-89C3-F5576A3C80F4*
G04*
G04*
G04 #@! TF.FilePolarity,Positive*
G04*
G01*
G75*
G04:AMPARAMS|DCode=54|XSize=39.37mil|YSize=70.87mil|CornerRadius=19.68mil|HoleSize=0mil|Usage=FLASHONLY|Rotation=270.000|XOffset=0mil|YOffset=0mil|HoleType=Round|Shape=RoundedRectangle|*
%AMROUNDEDRECTD54*
21,1,0.03937,0.03150,0,0,270.0*
21,1,0.00000,0.07087,0,0,270.0*
1,1,0.03937,-0.01575,0.00000*
1,1,0.03937,-0.01575,0.00000*
1,1,0.03937,0.01575,0.00000*
1,1,0.03937,0.01575,0.00000*
%
%ADD54ROUNDEDRECTD54*%
G04:AMPARAMS|DCode=55|XSize=39.37mil|YSize=86.61mil|CornerRadius=19.68mil|HoleSize=0mil|Usage=FLASHONLY|Rotation=270.000|XOffset=0mil|YOffset=0mil|HoleType=Round|Shape=RoundedRectangle|*
%AMROUNDEDRECTD55*
21,1,0.03937,0.04724,0,0,270.0*
21,1,0.00000,0.08661,0,0,270.0*
1,1,0.03937,-0.02362,0.00000*
1,1,0.03937,-0.02362,0.00000*
1,1,0.03937,0.02362,0.00000*
1,1,0.03937,0.02362,0.00000*
%
%ADD55ROUNDEDRECTD55*%
%ADD60C,0.01500*%
%ADD62C,0.02000*%
%ADD66C,0.06400*%
%ADD67R,0.06400X0.06400*%
%ADD68R,0.04000X0.04000*%
%ADD69C,0.04000*%
%ADD70R,0.04000X0.04000*%
%ADD71C,0.02400*%
%ADD72C,0.04000*%
%ADD73C,0.06000*%
G36*
X269500Y94740D02*
X269000Y93820D01*
X262320D01*
Y100900D01*
X263060Y101680D01*
X263102Y101700D01*
X269500D01*
Y94740D01*
D02*
G37*
G36*
X261300Y92800D02*
X269000D01*
Y80743D01*
X268974Y80705D01*
X268897Y80315D01*
Y20229D01*
X267897Y19815D01*
X267746Y19965D01*
X266938Y20300D01*
X266062D01*
X265254Y19965D01*
X264635Y19346D01*
X264300Y18538D01*
Y17662D01*
X264635Y16854D01*
X265254Y16235D01*
X266062Y15900D01*
X266938D01*
X267746Y16235D01*
X268000Y16489D01*
X269000Y16074D01*
Y2200D01*
X268600Y1800D01*
X268300Y1600D01*
X268200Y1500D01*
X259454D01*
X259176Y1885D01*
X258964Y2500D01*
X259414Y3279D01*
X259700Y4347D01*
Y5453D01*
X259414Y6521D01*
X258861Y7479D01*
X258079Y8261D01*
X257121Y8814D01*
X256053Y9100D01*
X254947D01*
X253879Y8814D01*
X252921Y8261D01*
X252139Y7479D01*
X251586Y6521D01*
X251300Y5453D01*
Y4347D01*
X251586Y3279D01*
X252036Y2500D01*
X251824Y1885D01*
X251546Y1500D01*
X249454D01*
X249176Y1885D01*
X248964Y2500D01*
X249414Y3279D01*
X249700Y4347D01*
Y5453D01*
X249414Y6521D01*
X248861Y7479D01*
X248079Y8261D01*
X247121Y8814D01*
X246053Y9100D01*
X244947D01*
X243879Y8814D01*
X242921Y8261D01*
X242139Y7479D01*
X241586Y6521D01*
X241300Y5453D01*
Y4347D01*
X241586Y3279D01*
X242036Y2500D01*
X241824Y1885D01*
X241546Y1500D01*
X239454D01*
X239176Y1885D01*
X238964Y2500D01*
X239414Y3279D01*
X239700Y4347D01*
Y5453D01*
X239414Y6521D01*
X238861Y7479D01*
X238079Y8261D01*
X237121Y8814D01*
X236053Y9100D01*
X234947D01*
X233879Y8814D01*
X232921Y8261D01*
X232800Y8140D01*
X231800Y8554D01*
Y16824D01*
X232100Y17700D01*
X254900D01*
Y24047D01*
X255798Y24758D01*
X256673D01*
X257482Y25093D01*
X258100Y25711D01*
X258435Y26520D01*
Y27395D01*
X258100Y28204D01*
X257482Y28823D01*
X256673Y29158D01*
X255798D01*
X254900Y29868D01*
Y72700D01*
X253300Y74300D01*
X251311D01*
X250746Y74865D01*
X249938Y75200D01*
X249062D01*
X248254Y74865D01*
X247689Y74300D01*
X244703D01*
X244096Y74907D01*
X243287Y75242D01*
X242412D01*
X241603Y74907D01*
X240996Y74300D01*
X238010D01*
X237403Y74907D01*
X236594Y75242D01*
X235719D01*
X234910Y74907D01*
X234303Y74300D01*
X231317D01*
X230710Y74907D01*
X229901Y75242D01*
X229026D01*
X228217Y74907D01*
X227610Y74300D01*
X224624D01*
X224017Y74907D01*
X223208Y75242D01*
X222333D01*
X221525Y74907D01*
X220917Y74300D01*
X217931D01*
X217324Y74907D01*
X216515Y75242D01*
X215640D01*
X214832Y74907D01*
X214224Y74300D01*
X206050D01*
X205865Y74746D01*
X205246Y75365D01*
X204438Y75700D01*
X203562D01*
X202754Y75365D01*
X202135Y74746D01*
X201950Y74300D01*
X185300D01*
X185200Y74400D01*
X179600Y68800D01*
X148783D01*
X147817Y68883D01*
X147816Y68884D01*
X147816Y68884D01*
X147800Y68900D01*
X147100Y68200D01*
X147100Y68186D01*
Y50780D01*
X144632Y47942D01*
X141526Y47602D01*
X140526Y48498D01*
Y50000D01*
X140500Y50197D01*
Y53000D01*
X140400D01*
Y68100D01*
X110800D01*
X101700Y77200D01*
X97500D01*
Y88500D01*
X93975Y92025D01*
X94492Y92922D01*
X94947Y92800D01*
X96053D01*
X97121Y93086D01*
X98079Y93639D01*
X98861Y94421D01*
X99414Y95379D01*
X99700Y96447D01*
Y97553D01*
X99414Y98621D01*
X98861Y99579D01*
X98540Y99900D01*
X98954Y100900D01*
X102046D01*
X102460Y99900D01*
X102139Y99579D01*
X101586Y98621D01*
X101300Y97553D01*
Y96447D01*
X101586Y95379D01*
X102139Y94421D01*
X102921Y93639D01*
X103879Y93086D01*
X104947Y92800D01*
X106053D01*
X107121Y93086D01*
X108079Y93639D01*
X108861Y94421D01*
X109414Y95379D01*
X109700Y96447D01*
Y97553D01*
X109414Y98621D01*
X108861Y99579D01*
X108540Y99900D01*
X108954Y100900D01*
X112046D01*
X112460Y99900D01*
X112139Y99579D01*
X111586Y98621D01*
X111300Y97553D01*
Y96447D01*
X111586Y95379D01*
X112139Y94421D01*
X112921Y93639D01*
X113879Y93086D01*
X114947Y92800D01*
X116053D01*
X117121Y93086D01*
X118079Y93639D01*
X118861Y94421D01*
X119414Y95379D01*
X119700Y96447D01*
Y97553D01*
X119414Y98621D01*
X118861Y99579D01*
X118540Y99900D01*
X118954Y100900D01*
X122046D01*
X122460Y99900D01*
X122139Y99579D01*
X121586Y98621D01*
X121300Y97553D01*
Y96447D01*
X121586Y95379D01*
X122139Y94421D01*
X122921Y93639D01*
X123879Y93086D01*
X124947Y92800D01*
X126053D01*
X127121Y93086D01*
X128079Y93639D01*
X128861Y94421D01*
X129414Y95379D01*
X129700Y96447D01*
Y97553D01*
X129414Y98621D01*
X128861Y99579D01*
X128540Y99900D01*
X128954Y100900D01*
X132046D01*
X132460Y99900D01*
X132139Y99579D01*
X131586Y98621D01*
X131300Y97553D01*
Y96447D01*
X131586Y95379D01*
X132139Y94421D01*
X132921Y93639D01*
X133879Y93086D01*
X134947Y92800D01*
X136053D01*
X137121Y93086D01*
X138079Y93639D01*
X138861Y94421D01*
X139414Y95379D01*
X139700Y96447D01*
Y97553D01*
X139414Y98621D01*
X138861Y99579D01*
X138540Y99900D01*
X138954Y100900D01*
X142046D01*
X142460Y99900D01*
X142139Y99579D01*
X141586Y98621D01*
X141300Y97553D01*
Y96447D01*
X141586Y95379D01*
X142139Y94421D01*
X142921Y93639D01*
X143879Y93086D01*
X144947Y92800D01*
X146053D01*
X147121Y93086D01*
X148079Y93639D01*
X148861Y94421D01*
X149414Y95379D01*
X149700Y96447D01*
Y97553D01*
X149414Y98621D01*
X148861Y99579D01*
X148540Y99900D01*
X148954Y100900D01*
X152046D01*
X152460Y99900D01*
X152139Y99579D01*
X151586Y98621D01*
X151300Y97553D01*
Y96447D01*
X151586Y95379D01*
X152139Y94421D01*
X152921Y93639D01*
X153879Y93086D01*
X154947Y92800D01*
X156053D01*
X157121Y93086D01*
X158079Y93639D01*
X158861Y94421D01*
X159414Y95379D01*
X159700Y96447D01*
Y97553D01*
X159414Y98621D01*
X158861Y99579D01*
X158540Y99900D01*
X158954Y100900D01*
X162046D01*
X162460Y99900D01*
X162139Y99579D01*
X161586Y98621D01*
X161300Y97553D01*
Y96447D01*
X161586Y95379D01*
X162139Y94421D01*
X162921Y93639D01*
X163879Y93086D01*
X164947Y92800D01*
X166053D01*
X167121Y93086D01*
X168079Y93639D01*
X168861Y94421D01*
X169414Y95379D01*
X169700Y96447D01*
Y97553D01*
X169414Y98621D01*
X168861Y99579D01*
X168540Y99900D01*
X168954Y100900D01*
X172046D01*
X172460Y99900D01*
X172139Y99579D01*
X171586Y98621D01*
X171300Y97553D01*
Y96447D01*
X171586Y95379D01*
X172139Y94421D01*
X172921Y93639D01*
X173879Y93086D01*
X174947Y92800D01*
X176053D01*
X177121Y93086D01*
X178079Y93639D01*
X178861Y94421D01*
X179414Y95379D01*
X179700Y96447D01*
Y97553D01*
X179414Y98621D01*
X178861Y99579D01*
X178540Y99900D01*
X178954Y100900D01*
X182046D01*
X182460Y99900D01*
X182139Y99579D01*
X181586Y98621D01*
X181300Y97553D01*
Y96447D01*
X181586Y95379D01*
X182139Y94421D01*
X182921Y93639D01*
X183879Y93086D01*
X184947Y92800D01*
X186053D01*
X187121Y93086D01*
X188079Y93639D01*
X188861Y94421D01*
X189414Y95379D01*
X189700Y96447D01*
Y97553D01*
X189414Y98621D01*
X188861Y99579D01*
X188540Y99900D01*
X188954Y100900D01*
X192046D01*
X192460Y99900D01*
X192139Y99579D01*
X191586Y98621D01*
X191300Y97553D01*
Y96447D01*
X191586Y95379D01*
X192139Y94421D01*
X192921Y93639D01*
X193879Y93086D01*
X194947Y92800D01*
X196053D01*
X197121Y93086D01*
X198079Y93639D01*
X198861Y94421D01*
X199414Y95379D01*
X199700Y96447D01*
Y97553D01*
X199414Y98621D01*
X198861Y99579D01*
X198540Y99900D01*
X198954Y100900D01*
X202046D01*
X202460Y99900D01*
X202139Y99579D01*
X201586Y98621D01*
X201300Y97553D01*
Y96447D01*
X201586Y95379D01*
X202139Y94421D01*
X202921Y93639D01*
X203879Y93086D01*
X204947Y92800D01*
X206053D01*
X207121Y93086D01*
X208079Y93639D01*
X208861Y94421D01*
X209414Y95379D01*
X209700Y96447D01*
Y97553D01*
X209414Y98621D01*
X208861Y99579D01*
X208540Y99900D01*
X208954Y100900D01*
X212046D01*
X212460Y99900D01*
X212139Y99579D01*
X211586Y98621D01*
X211300Y97553D01*
Y96447D01*
X211586Y95379D01*
X212139Y94421D01*
X212921Y93639D01*
X213879Y93086D01*
X214947Y92800D01*
X216053D01*
X217121Y93086D01*
X218079Y93639D01*
X218861Y94421D01*
X219414Y95379D01*
X219700Y96447D01*
Y97553D01*
X219414Y98621D01*
X218861Y99579D01*
X218540Y99900D01*
X218954Y100900D01*
X222046D01*
X222460Y99900D01*
X222139Y99579D01*
X221586Y98621D01*
X221300Y97553D01*
Y96447D01*
X221586Y95379D01*
X222139Y94421D01*
X222921Y93639D01*
X223879Y93086D01*
X224947Y92800D01*
X226053D01*
X227121Y93086D01*
X228079Y93639D01*
X228861Y94421D01*
X229414Y95379D01*
X229700Y96447D01*
Y97553D01*
X229414Y98621D01*
X228861Y99579D01*
X228540Y99900D01*
X228954Y100900D01*
X232046D01*
X232460Y99900D01*
X232139Y99579D01*
X231586Y98621D01*
X231300Y97553D01*
Y96447D01*
X231586Y95379D01*
X232139Y94421D01*
X232921Y93639D01*
X233879Y93086D01*
X234947Y92800D01*
X236053D01*
X237121Y93086D01*
X238079Y93639D01*
X238861Y94421D01*
X239414Y95379D01*
X239700Y96447D01*
Y97553D01*
X239414Y98621D01*
X238861Y99579D01*
X238540Y99900D01*
X238954Y100900D01*
X242046D01*
X242460Y99900D01*
X242139Y99579D01*
X241586Y98621D01*
X241300Y97553D01*
Y96447D01*
X241586Y95379D01*
X242139Y94421D01*
X242921Y93639D01*
X243879Y93086D01*
X244947Y92800D01*
X246053D01*
X247121Y93086D01*
X248079Y93639D01*
X248861Y94421D01*
X249414Y95379D01*
X249700Y96447D01*
Y97553D01*
X249414Y98621D01*
X248861Y99579D01*
X248540Y99900D01*
X248954Y100900D01*
X261300D01*
Y92800D01*
D02*
G37*
G36*
X93509Y100700D02*
X92921Y100361D01*
X92139Y99579D01*
X91586Y98621D01*
X91300Y97553D01*
Y96447D01*
X91586Y95379D01*
X92139Y94421D01*
X92921Y93639D01*
X93440Y93340D01*
X93037Y92422D01*
X93033Y92415D01*
X93007Y92285D01*
X92964Y92158D01*
X92968Y92091D01*
X92955Y92025D01*
X92981Y91895D01*
X92990Y91761D01*
X93020Y91701D01*
X93033Y91635D01*
X93107Y91524D01*
X93166Y91405D01*
X93216Y91360D01*
X93254Y91304D01*
X95932Y88626D01*
X95518Y87626D01*
X91900D01*
X91117Y87523D01*
X90387Y87221D01*
X89760Y86740D01*
X87799Y84778D01*
X86654Y85047D01*
X86540Y85321D01*
X85921Y85940D01*
X85113Y86275D01*
X84237D01*
X83429Y85940D01*
X82810Y85321D01*
X82475Y84513D01*
Y83637D01*
X82810Y82829D01*
X83429Y82210D01*
X83703Y82096D01*
X83972Y80951D01*
X82460Y79440D01*
X81980Y78813D01*
X81677Y78083D01*
X81574Y77300D01*
Y55153D01*
X79947Y53526D01*
X79100D01*
X78317Y53423D01*
X77587Y53120D01*
X76960Y52640D01*
X76480Y52013D01*
X76177Y51283D01*
X76074Y50500D01*
X76177Y49717D01*
X76480Y48987D01*
X76960Y48360D01*
X77587Y47879D01*
X78317Y47577D01*
X79100Y47474D01*
X81200D01*
X81983Y47577D01*
X82713Y47879D01*
X83340Y48360D01*
X86740Y51760D01*
X86740Y51760D01*
X87221Y52387D01*
X87523Y53117D01*
X87626Y53900D01*
X87626Y53900D01*
Y76047D01*
X93153Y81574D01*
X96480D01*
Y77200D01*
X96558Y76810D01*
X96779Y76479D01*
X97110Y76258D01*
X97500Y76180D01*
X101278D01*
X110079Y67379D01*
X110410Y67158D01*
X110800Y67080D01*
X139380D01*
Y53000D01*
X137697D01*
X137500Y53026D01*
X137303Y53000D01*
X134500D01*
Y50197D01*
X134474Y50000D01*
Y45080D01*
X107229Y17834D01*
X69327D01*
X67820Y19342D01*
Y20000D01*
X67742Y20390D01*
X67521Y20721D01*
X67190Y20942D01*
X66800Y21020D01*
X64569D01*
X64456Y21035D01*
X64342Y21020D01*
X46641D01*
X46066Y21665D01*
X45951Y21967D01*
X46005Y22098D01*
Y22893D01*
X45700Y23628D01*
X45138Y24191D01*
X44403Y24496D01*
X43607D01*
X42872Y24191D01*
X42309Y23628D01*
X42005Y22893D01*
Y22098D01*
X42309Y21363D01*
X42774Y20898D01*
X42305Y20428D01*
X42000Y19693D01*
Y18898D01*
X42305Y18163D01*
X42867Y17600D01*
X43602Y17296D01*
X44259D01*
X44493Y17214D01*
X45250Y16566D01*
X45189Y11824D01*
X45190Y11821D01*
X45189Y11818D01*
X45226Y11626D01*
X45262Y11433D01*
X45264Y11431D01*
X45265Y11427D01*
X45372Y11265D01*
X45479Y11100D01*
X45482Y11098D01*
X45483Y11095D01*
X46186Y10384D01*
X46189Y10382D01*
X46191Y10379D01*
X46353Y10270D01*
X46516Y10160D01*
X46519Y10160D01*
X46521Y10158D01*
X46714Y10120D01*
X46905Y10080D01*
X46908Y10081D01*
X46912Y10080D01*
X54900D01*
X54947Y9100D01*
X53879Y8814D01*
X52921Y8261D01*
X52139Y7479D01*
X51586Y6521D01*
X51300Y5453D01*
Y4347D01*
X51586Y3279D01*
X52139Y2321D01*
X52360Y2100D01*
X51946Y1100D01*
X49054D01*
X48640Y2100D01*
X48861Y2321D01*
X49414Y3279D01*
X49700Y4347D01*
Y5453D01*
X49414Y6521D01*
X48861Y7479D01*
X48079Y8261D01*
X47121Y8814D01*
X46053Y9100D01*
X44947D01*
X43879Y8814D01*
X42921Y8261D01*
X42139Y7479D01*
X41586Y6521D01*
X41300Y5453D01*
Y4347D01*
X41586Y3279D01*
X42139Y2321D01*
X42360Y2100D01*
X41946Y1100D01*
X1000D01*
X901Y100824D01*
X1776Y101700D01*
X33241D01*
X33509Y100700D01*
X32921Y100361D01*
X32139Y99579D01*
X31586Y98621D01*
X31300Y97553D01*
Y96447D01*
X31586Y95379D01*
X32139Y94421D01*
X32921Y93639D01*
X33879Y93086D01*
X34947Y92800D01*
X36053D01*
X37121Y93086D01*
X38079Y93639D01*
X38861Y94421D01*
X39414Y95379D01*
X39700Y96447D01*
Y97553D01*
X39414Y98621D01*
X38861Y99579D01*
X38079Y100361D01*
X37491Y100700D01*
X37759Y101700D01*
X53241D01*
X53509Y100700D01*
X52921Y100361D01*
X52139Y99579D01*
X51586Y98621D01*
X51300Y97553D01*
Y96447D01*
X51586Y95379D01*
X52139Y94421D01*
X52921Y93639D01*
X53879Y93086D01*
X54947Y92800D01*
X56053D01*
X57121Y93086D01*
X58079Y93639D01*
X58861Y94421D01*
X59414Y95379D01*
X59700Y96447D01*
Y97553D01*
X59414Y98621D01*
X58861Y99579D01*
X58079Y100361D01*
X57491Y100700D01*
X57759Y101700D01*
X63241D01*
X63509Y100700D01*
X62921Y100361D01*
X62139Y99579D01*
X61586Y98621D01*
X61300Y97553D01*
Y96447D01*
X61586Y95379D01*
X62139Y94421D01*
X62921Y93639D01*
X63879Y93086D01*
X64947Y92800D01*
X66053D01*
X67121Y93086D01*
X68079Y93639D01*
X68861Y94421D01*
X69414Y95379D01*
X69700Y96447D01*
Y97553D01*
X69414Y98621D01*
X68861Y99579D01*
X68079Y100361D01*
X67491Y100700D01*
X67759Y101700D01*
X73241D01*
X73509Y100700D01*
X72921Y100361D01*
X72139Y99579D01*
X71586Y98621D01*
X71300Y97553D01*
Y96447D01*
X71586Y95379D01*
X72139Y94421D01*
X72921Y93639D01*
X73879Y93086D01*
X74947Y92800D01*
X76053D01*
X77121Y93086D01*
X78079Y93639D01*
X78861Y94421D01*
X79414Y95379D01*
X79700Y96447D01*
Y97553D01*
X79414Y98621D01*
X78861Y99579D01*
X78079Y100361D01*
X77491Y100700D01*
X77759Y101700D01*
X83241D01*
X83509Y100700D01*
X82921Y100361D01*
X82139Y99579D01*
X81586Y98621D01*
X81300Y97553D01*
Y96447D01*
X81586Y95379D01*
X82139Y94421D01*
X82921Y93639D01*
X83879Y93086D01*
X84947Y92800D01*
X86053D01*
X87121Y93086D01*
X88079Y93639D01*
X88861Y94421D01*
X89414Y95379D01*
X89700Y96447D01*
Y97553D01*
X89414Y98621D01*
X88861Y99579D01*
X88079Y100361D01*
X87491Y100700D01*
X87759Y101700D01*
X93241D01*
X93509Y100700D01*
D02*
G37*
G36*
X204669Y74501D02*
X205001Y74169D01*
X205108Y73910D01*
X205329Y73579D01*
X205660Y73358D01*
X206050Y73280D01*
X213878D01*
Y72605D01*
X214213Y71796D01*
X214832Y71177D01*
X215640Y70842D01*
X216515D01*
X217324Y71177D01*
X217943Y71796D01*
X218278Y72605D01*
Y73280D01*
X220571D01*
Y72605D01*
X220906Y71796D01*
X221525Y71177D01*
X222333Y70842D01*
X223208D01*
X224017Y71177D01*
X224636Y71796D01*
X224971Y72605D01*
Y73280D01*
X227264D01*
Y72605D01*
X227599Y71796D01*
X228217Y71177D01*
X229026Y70842D01*
X229901D01*
X230710Y71177D01*
X231329Y71796D01*
X231664Y72605D01*
Y73280D01*
X233957D01*
Y72605D01*
X234292Y71796D01*
X234910Y71177D01*
X235719Y70842D01*
X236594D01*
X237403Y71177D01*
X238022Y71796D01*
X238356Y72605D01*
Y73280D01*
X240650D01*
Y72605D01*
X240984Y71796D01*
X241603Y71177D01*
X242412Y70842D01*
X243287D01*
X244096Y71177D01*
X244714Y71796D01*
X245050Y72605D01*
Y73280D01*
X247300D01*
Y72562D01*
X247635Y71754D01*
X248254Y71135D01*
X249062Y70800D01*
X249938D01*
X250746Y71135D01*
X251365Y71754D01*
X251700Y72562D01*
Y73280D01*
X252878D01*
X253880Y72278D01*
Y29868D01*
X253892Y29810D01*
X253887Y29750D01*
X253930Y29616D01*
X253958Y29478D01*
X253991Y29428D01*
X254009Y29372D01*
X254101Y29264D01*
X254179Y29147D01*
X254229Y29114D01*
X254267Y29069D01*
X255165Y28358D01*
X255290Y28294D01*
X255408Y28216D01*
X255466Y28204D01*
X255519Y28177D01*
X255660Y28166D01*
X255798Y28138D01*
X256470D01*
X256904Y27958D01*
X257236Y27626D01*
X257416Y27192D01*
Y26723D01*
X257236Y26289D01*
X256904Y25957D01*
X256470Y25777D01*
X255798D01*
X255660Y25750D01*
X255519Y25738D01*
X255466Y25711D01*
X255408Y25700D01*
X255290Y25621D01*
X255165Y25557D01*
X254267Y24847D01*
X254229Y24801D01*
X254179Y24768D01*
X254101Y24651D01*
X254009Y24543D01*
X253991Y24487D01*
X253958Y24437D01*
X253930Y24299D01*
X253887Y24165D01*
X253892Y24105D01*
X253880Y24047D01*
Y18720D01*
X232100D01*
X232068Y18713D01*
X232036Y18718D01*
X231874Y18675D01*
X231710Y18642D01*
X231683Y18624D01*
X231652Y18616D01*
X231518Y18514D01*
X231379Y18421D01*
X231361Y18394D01*
X231335Y18374D01*
X231251Y18229D01*
X231158Y18090D01*
X231152Y18058D01*
X231135Y18030D01*
X230835Y17155D01*
X230813Y16989D01*
X230780Y16824D01*
Y8554D01*
X230858Y8164D01*
X231079Y7833D01*
X231410Y7612D01*
X231708Y6733D01*
X231586Y6521D01*
X231300Y5453D01*
Y4347D01*
X231586Y3279D01*
X232139Y2321D01*
X232360Y2100D01*
X231946Y1100D01*
X229054D01*
X228640Y2100D01*
X228861Y2321D01*
X229414Y3279D01*
X229700Y4347D01*
Y5453D01*
X229414Y6521D01*
X228861Y7479D01*
X228079Y8261D01*
X227121Y8814D01*
X226053Y9100D01*
X224947D01*
X223879Y8814D01*
X222921Y8261D01*
X222139Y7479D01*
X221586Y6521D01*
X221300Y5453D01*
Y4347D01*
X221586Y3279D01*
X222139Y2321D01*
X222360Y2100D01*
X221946Y1100D01*
X219054D01*
X218640Y2100D01*
X218861Y2321D01*
X219414Y3279D01*
X219700Y4347D01*
Y5453D01*
X219414Y6521D01*
X218861Y7479D01*
X218079Y8261D01*
X217121Y8814D01*
X216053Y9100D01*
X214947D01*
X213879Y8814D01*
X212921Y8261D01*
X212139Y7479D01*
X211586Y6521D01*
X211300Y5453D01*
Y4347D01*
X211586Y3279D01*
X212139Y2321D01*
X212360Y2100D01*
X211946Y1100D01*
X209054D01*
X208640Y2100D01*
X208861Y2321D01*
X209414Y3279D01*
X209700Y4347D01*
Y5453D01*
X209414Y6521D01*
X208861Y7479D01*
X208079Y8261D01*
X207121Y8814D01*
X206053Y9100D01*
X204947D01*
X203879Y8814D01*
X202921Y8261D01*
X202139Y7479D01*
X201586Y6521D01*
X201300Y5453D01*
Y4347D01*
X201586Y3279D01*
X202139Y2321D01*
X202360Y2100D01*
X201946Y1100D01*
X199054D01*
X198640Y2100D01*
X198861Y2321D01*
X199414Y3279D01*
X199700Y4347D01*
Y5453D01*
X199414Y6521D01*
X198861Y7479D01*
X198079Y8261D01*
X197121Y8814D01*
X196053Y9100D01*
X194947D01*
X193879Y8814D01*
X192921Y8261D01*
X192139Y7479D01*
X191586Y6521D01*
X191300Y5453D01*
Y4347D01*
X191586Y3279D01*
X192139Y2321D01*
X192360Y2100D01*
X191946Y1100D01*
X189054D01*
X188640Y2100D01*
X188861Y2321D01*
X189414Y3279D01*
X189700Y4347D01*
Y5453D01*
X189414Y6521D01*
X188861Y7479D01*
X188079Y8261D01*
X187121Y8814D01*
X186053Y9100D01*
X184947D01*
X183879Y8814D01*
X182921Y8261D01*
X182139Y7479D01*
X181586Y6521D01*
X181300Y5453D01*
Y4347D01*
X181586Y3279D01*
X182139Y2321D01*
X182360Y2100D01*
X181946Y1100D01*
X179054D01*
X178640Y2100D01*
X178861Y2321D01*
X179414Y3279D01*
X179700Y4347D01*
Y5453D01*
X179414Y6521D01*
X178861Y7479D01*
X178079Y8261D01*
X177121Y8814D01*
X176053Y9100D01*
X174947D01*
X173879Y8814D01*
X172921Y8261D01*
X172139Y7479D01*
X171586Y6521D01*
X171300Y5453D01*
Y4347D01*
X171586Y3279D01*
X172139Y2321D01*
X172360Y2100D01*
X171946Y1100D01*
X169054D01*
X168640Y2100D01*
X168861Y2321D01*
X169414Y3279D01*
X169700Y4347D01*
Y5453D01*
X169414Y6521D01*
X168861Y7479D01*
X168079Y8261D01*
X167121Y8814D01*
X166053Y9100D01*
X164947D01*
X163879Y8814D01*
X162921Y8261D01*
X162139Y7479D01*
X161586Y6521D01*
X161300Y5453D01*
Y4347D01*
X161586Y3279D01*
X162139Y2321D01*
X162360Y2100D01*
X161946Y1100D01*
X159054D01*
X158640Y2100D01*
X158861Y2321D01*
X159414Y3279D01*
X159700Y4347D01*
Y5453D01*
X159414Y6521D01*
X158861Y7479D01*
X158079Y8261D01*
X157121Y8814D01*
X156053Y9100D01*
X154947D01*
X153879Y8814D01*
X152921Y8261D01*
X152139Y7479D01*
X151586Y6521D01*
X151300Y5453D01*
Y4347D01*
X151586Y3279D01*
X152139Y2321D01*
X152360Y2100D01*
X151946Y1100D01*
X149054D01*
X148640Y2100D01*
X148861Y2321D01*
X149414Y3279D01*
X149700Y4347D01*
Y5453D01*
X149414Y6521D01*
X148861Y7479D01*
X148079Y8261D01*
X147121Y8814D01*
X146053Y9100D01*
X144947D01*
X143879Y8814D01*
X142921Y8261D01*
X142139Y7479D01*
X141586Y6521D01*
X141300Y5453D01*
Y4347D01*
X141586Y3279D01*
X142139Y2321D01*
X142360Y2100D01*
X141946Y1100D01*
X139054D01*
X138640Y2100D01*
X138861Y2321D01*
X139414Y3279D01*
X139700Y4347D01*
Y5453D01*
X139414Y6521D01*
X138861Y7479D01*
X138079Y8261D01*
X137121Y8814D01*
X136053Y9100D01*
X134947D01*
X133879Y8814D01*
X132921Y8261D01*
X132139Y7479D01*
X131586Y6521D01*
X131300Y5453D01*
Y4347D01*
X131586Y3279D01*
X132139Y2321D01*
X132360Y2100D01*
X131946Y1100D01*
X129054D01*
X128640Y2100D01*
X128861Y2321D01*
X129414Y3279D01*
X129700Y4347D01*
Y5453D01*
X129414Y6521D01*
X128861Y7479D01*
X128079Y8261D01*
X127121Y8814D01*
X126053Y9100D01*
X124947D01*
X123879Y8814D01*
X122921Y8261D01*
X122139Y7479D01*
X121586Y6521D01*
X121300Y5453D01*
Y4347D01*
X121586Y3279D01*
X122139Y2321D01*
X122360Y2100D01*
X121946Y1100D01*
X119054D01*
X118640Y2100D01*
X118861Y2321D01*
X119414Y3279D01*
X119700Y4347D01*
Y5453D01*
X119414Y6521D01*
X118861Y7479D01*
X118079Y8261D01*
X117121Y8814D01*
X116053Y9100D01*
X114947D01*
X113879Y8814D01*
X112921Y8261D01*
X112139Y7479D01*
X111586Y6521D01*
X111300Y5453D01*
Y4347D01*
X111586Y3279D01*
X112139Y2321D01*
X112360Y2100D01*
X111946Y1100D01*
X109054D01*
X108640Y2100D01*
X108861Y2321D01*
X109414Y3279D01*
X109700Y4347D01*
Y5453D01*
X109414Y6521D01*
X108861Y7479D01*
X108079Y8261D01*
X107994Y8310D01*
X107641Y9640D01*
X107714Y9765D01*
X108900D01*
X108900Y9765D01*
X109944Y9903D01*
X110917Y10306D01*
X111753Y10947D01*
X140353Y39547D01*
X140994Y40383D01*
X141397Y41356D01*
X141534Y42400D01*
X141397Y43444D01*
X140994Y44417D01*
X140526Y45027D01*
Y45867D01*
X140537Y45886D01*
X140717Y46094D01*
X141321Y46540D01*
X141526Y46591D01*
X141581Y46583D01*
X141609Y46591D01*
X141637Y46588D01*
X144744Y46929D01*
X144914Y46982D01*
X145087Y47030D01*
X145104Y47042D01*
X145123Y47048D01*
X145260Y47164D01*
X145402Y47273D01*
X147869Y50111D01*
X147951Y50254D01*
X148042Y50390D01*
X148049Y50425D01*
X148067Y50457D01*
X148088Y50619D01*
X148120Y50780D01*
Y66830D01*
X148544Y67532D01*
X148783Y67780D01*
X179600D01*
X179990Y67858D01*
X180321Y68079D01*
X185522Y73280D01*
X195108D01*
X195800Y72338D01*
Y71462D01*
X196135Y70654D01*
X196754Y70035D01*
X197562Y69700D01*
X198438D01*
X199246Y70035D01*
X199865Y70654D01*
X200200Y71462D01*
Y72338D01*
X200892Y73280D01*
X201950D01*
X202340Y73358D01*
X202671Y73579D01*
X202892Y73910D01*
X202999Y74169D01*
X203331Y74501D01*
X203765Y74680D01*
X204235D01*
X204669Y74501D01*
D02*
G37*
G36*
X66800Y12100D02*
Y11100D01*
X46912D01*
X46209Y11812D01*
X46313Y20000D01*
X66800D01*
Y12100D01*
D02*
G37*
G36*
X256728Y7864D02*
X257453Y7445D01*
X258045Y6853D01*
X258464Y6128D01*
X258680Y5319D01*
Y4481D01*
X258464Y3672D01*
X258081Y3010D01*
X258069Y2976D01*
X258048Y2947D01*
X258006Y2788D01*
X257953Y2633D01*
X257956Y2597D01*
X257946Y2562D01*
X257968Y2400D01*
X257979Y2236D01*
X257995Y2204D01*
X258000Y2168D01*
X258024Y2100D01*
X257398Y1130D01*
X257341Y1100D01*
X253659D01*
X253602Y1130D01*
X252976Y2100D01*
X253000Y2168D01*
X253005Y2204D01*
X253021Y2236D01*
X253031Y2400D01*
X253054Y2562D01*
X253044Y2597D01*
X253047Y2633D01*
X252994Y2788D01*
X252952Y2947D01*
X252930Y2976D01*
X252919Y3010D01*
X252536Y3672D01*
X252320Y4481D01*
Y5319D01*
X252536Y6128D01*
X252955Y6853D01*
X253547Y7445D01*
X254272Y7864D01*
X255081Y8080D01*
X255919D01*
X256728Y7864D01*
D02*
G37*
%LPC*%
G36*
X147938Y86000D02*
X147062D01*
X146254Y85665D01*
X145635Y85046D01*
X145300Y84238D01*
Y83362D01*
X145635Y82554D01*
X146254Y81935D01*
X147062Y81600D01*
X147938D01*
X148746Y81935D01*
X149365Y82554D01*
X149700Y83362D01*
Y84238D01*
X149365Y85046D01*
X148746Y85665D01*
X147938Y86000D01*
D02*
G37*
G36*
X257738Y85900D02*
X256862D01*
X256054Y85565D01*
X255435Y84946D01*
X255100Y84138D01*
Y83262D01*
X255435Y82454D01*
X256054Y81835D01*
X256862Y81500D01*
X257738D01*
X258546Y81835D01*
X259165Y82454D01*
X259500Y83262D01*
Y84138D01*
X259165Y84946D01*
X258546Y85565D01*
X257738Y85900D01*
D02*
G37*
G36*
X246338Y85700D02*
X245462D01*
X244654Y85365D01*
X244035Y84746D01*
X243700Y83938D01*
Y83062D01*
X244035Y82254D01*
X244654Y81635D01*
X245462Y81300D01*
X246338D01*
X247146Y81635D01*
X247765Y82254D01*
X248100Y83062D01*
Y83938D01*
X247765Y84746D01*
X247146Y85365D01*
X246338Y85700D01*
D02*
G37*
G36*
X168038Y82200D02*
X167162D01*
X166354Y81865D01*
X165735Y81246D01*
X165400Y80438D01*
Y79562D01*
X165735Y78754D01*
X166354Y78135D01*
X167162Y77800D01*
X168038D01*
X168846Y78135D01*
X169465Y78754D01*
X169800Y79562D01*
Y80438D01*
X169465Y81246D01*
X168846Y81865D01*
X168038Y82200D01*
D02*
G37*
G36*
X124738Y80300D02*
X123862D01*
X123054Y79965D01*
X122435Y79346D01*
X122100Y78538D01*
Y77662D01*
X122435Y76854D01*
X123054Y76235D01*
X123862Y75900D01*
X124738D01*
X125546Y76235D01*
X126165Y76854D01*
X126500Y77662D01*
Y78538D01*
X126165Y79346D01*
X125546Y79965D01*
X124738Y80300D01*
D02*
G37*
G36*
X262983Y75625D02*
X262108D01*
X261299Y75290D01*
X260872Y74863D01*
X260828Y74907D01*
X260019Y75242D01*
X259144D01*
X258335Y74907D01*
X257717Y74289D01*
X257382Y73480D01*
Y72605D01*
X257717Y71796D01*
X258335Y71177D01*
X259144Y70842D01*
X259421D01*
X260104Y70601D01*
X260345Y69919D01*
Y69641D01*
X260680Y68832D01*
X261107Y68405D01*
X260680Y67979D01*
X260345Y67170D01*
Y66295D01*
X260680Y65486D01*
X261107Y65059D01*
X260680Y64632D01*
X260345Y63823D01*
Y62948D01*
X260680Y62140D01*
X261107Y61713D01*
X260680Y61286D01*
X260345Y60477D01*
Y59602D01*
X260680Y58793D01*
X261107Y58366D01*
X260680Y57939D01*
X260345Y57130D01*
Y56255D01*
X260680Y55447D01*
X261107Y55020D01*
X260680Y54593D01*
X260345Y53784D01*
Y52909D01*
X260680Y52100D01*
X261107Y51673D01*
X260680Y51246D01*
X260345Y50438D01*
Y49562D01*
X260680Y48754D01*
X261107Y48327D01*
X260680Y47900D01*
X260345Y47091D01*
Y46216D01*
X260680Y45407D01*
X261107Y44980D01*
X260680Y44553D01*
X260345Y43745D01*
Y42869D01*
X260680Y42061D01*
X261107Y41634D01*
X260680Y41207D01*
X260345Y40398D01*
Y39523D01*
X260680Y38714D01*
X261107Y38287D01*
X260680Y37860D01*
X260345Y37052D01*
Y36177D01*
X260680Y35368D01*
X261107Y34941D01*
X260680Y34514D01*
X260345Y33705D01*
Y32830D01*
X260680Y32021D01*
X261107Y31594D01*
X260680Y31168D01*
X260345Y30359D01*
Y29484D01*
X260680Y28675D01*
X261107Y28248D01*
X260680Y27821D01*
X260345Y27012D01*
Y26137D01*
X260680Y25329D01*
X261299Y24710D01*
X262108Y24375D01*
X262983D01*
X263792Y24710D01*
X264410Y25329D01*
X264745Y26137D01*
Y27012D01*
X264410Y27821D01*
X263983Y28248D01*
X264410Y28675D01*
X264745Y29484D01*
Y30359D01*
X264410Y31168D01*
X263983Y31594D01*
X264410Y32021D01*
X264745Y32830D01*
Y33705D01*
X264410Y34514D01*
X263983Y34941D01*
X264410Y35368D01*
X264745Y36177D01*
Y37052D01*
X264410Y37860D01*
X263983Y38287D01*
X264410Y38714D01*
X264745Y39523D01*
Y40398D01*
X264410Y41207D01*
X263983Y41634D01*
X264410Y42061D01*
X264745Y42869D01*
Y43745D01*
X264410Y44553D01*
X263983Y44980D01*
X264410Y45407D01*
X264745Y46216D01*
Y47091D01*
X264410Y47900D01*
X263983Y48327D01*
X264410Y48754D01*
X264745Y49562D01*
Y50438D01*
X264410Y51246D01*
X263983Y51673D01*
X264410Y52100D01*
X264745Y52909D01*
Y53784D01*
X264410Y54593D01*
X263983Y55020D01*
X264410Y55447D01*
X264745Y56255D01*
Y57130D01*
X264410Y57939D01*
X263983Y58366D01*
X264410Y58793D01*
X264745Y59602D01*
Y60477D01*
X264410Y61286D01*
X263983Y61713D01*
X264410Y62140D01*
X264745Y62948D01*
Y63823D01*
X264410Y64632D01*
X263983Y65059D01*
X264410Y65486D01*
X264745Y66295D01*
Y67170D01*
X264410Y67979D01*
X263983Y68405D01*
X264410Y68832D01*
X264745Y69641D01*
Y70516D01*
X264410Y71325D01*
X263983Y71752D01*
X264410Y72179D01*
X264745Y72988D01*
Y73863D01*
X264410Y74671D01*
X263792Y75290D01*
X262983Y75625D01*
D02*
G37*
G36*
X79338Y92000D02*
X78462D01*
X77654Y91665D01*
X77035Y91046D01*
X76700Y90238D01*
Y89362D01*
X77035Y88554D01*
X77654Y87935D01*
X78462Y87600D01*
X79338D01*
X80146Y87935D01*
X80765Y88554D01*
X81100Y89362D01*
Y90238D01*
X80765Y91046D01*
X80146Y91665D01*
X79338Y92000D01*
D02*
G37*
G36*
X33898Y82500D02*
X33102D01*
X32367Y82196D01*
X31804Y81633D01*
X31500Y80898D01*
Y80102D01*
X31804Y79367D01*
X32367Y78804D01*
X33102Y78500D01*
X33898D01*
X34633Y78804D01*
X35195Y79367D01*
X35198Y79373D01*
X36280D01*
X36339Y79232D01*
X36901Y78669D01*
X37636Y78365D01*
X38432D01*
X39167Y78669D01*
X39730Y79232D01*
X40034Y79967D01*
Y80763D01*
X39730Y81498D01*
X39167Y82060D01*
X38432Y82365D01*
X37636D01*
X36901Y82060D01*
X36339Y81498D01*
X36336Y81492D01*
X35254D01*
X35195Y81633D01*
X34633Y82196D01*
X33898Y82500D01*
D02*
G37*
G36*
X49698Y81100D02*
X48902D01*
X48167Y80796D01*
X47605Y80233D01*
X47300Y79498D01*
Y78702D01*
X47605Y77967D01*
X47824Y77747D01*
X48058Y77106D01*
X47824Y76464D01*
X47605Y76245D01*
X47300Y75510D01*
Y74714D01*
X47605Y73979D01*
X48167Y73416D01*
X48902Y73112D01*
X49698D01*
X50433Y73416D01*
X50995Y73979D01*
X51300Y74714D01*
Y75510D01*
X50995Y76245D01*
X50776Y76464D01*
X50542Y77106D01*
X50776Y77747D01*
X50995Y77967D01*
X51300Y78702D01*
Y79498D01*
X50995Y80233D01*
X50433Y80796D01*
X49698Y81100D01*
D02*
G37*
G36*
X56511Y65524D02*
X55636D01*
X54827Y65189D01*
X54208Y64570D01*
X53873Y63761D01*
Y62886D01*
X54208Y62078D01*
X54827Y61459D01*
X55636Y61124D01*
X56511D01*
X57319Y61459D01*
X57938Y62078D01*
X58273Y62886D01*
Y63761D01*
X57938Y64570D01*
X57319Y65189D01*
X56511Y65524D01*
D02*
G37*
G36*
X99138Y64000D02*
X98262D01*
X97454Y63665D01*
X96835Y63046D01*
X96500Y62238D01*
Y61362D01*
X96835Y60554D01*
X97454Y59935D01*
X98262Y59600D01*
X99138D01*
X99946Y59935D01*
X100565Y60554D01*
X100900Y61362D01*
Y62238D01*
X100565Y63046D01*
X99946Y63665D01*
X99138Y64000D01*
D02*
G37*
G36*
X133638Y63300D02*
X132762D01*
X131954Y62965D01*
X131335Y62346D01*
X131000Y61538D01*
Y60662D01*
X131335Y59854D01*
X131954Y59235D01*
X132762Y58900D01*
X133638D01*
X134446Y59235D01*
X135065Y59854D01*
X135400Y60662D01*
Y61538D01*
X135065Y62346D01*
X134446Y62965D01*
X133638Y63300D01*
D02*
G37*
G36*
X56838Y53600D02*
X55962D01*
X55154Y53265D01*
X54535Y52646D01*
X54200Y51838D01*
Y50962D01*
X54535Y50154D01*
X55154Y49535D01*
X55962Y49200D01*
X56838D01*
X57646Y49535D01*
X58265Y50154D01*
X58600Y50962D01*
Y51838D01*
X58265Y52646D01*
X57646Y53265D01*
X56838Y53600D01*
D02*
G37*
G36*
X40500Y58000D02*
X34500D01*
Y52000D01*
X34500Y52000D01*
X34662Y51000D01*
X34500Y50395D01*
Y49605D01*
X34704Y48842D01*
X35099Y48158D01*
X35585Y47500D01*
X35099Y46842D01*
X34704Y46158D01*
X34500Y45395D01*
Y44605D01*
X34704Y43842D01*
X35099Y43158D01*
X35658Y42599D01*
X36342Y42204D01*
X37105Y42000D01*
X37895D01*
X38658Y42204D01*
X39342Y42599D01*
X39901Y43158D01*
X40296Y43842D01*
X40500Y44605D01*
Y45395D01*
X40296Y46158D01*
X39901Y46842D01*
X39415Y47500D01*
X39901Y48158D01*
X40296Y48842D01*
X40500Y49605D01*
Y50395D01*
X40338Y51000D01*
X40500Y52000D01*
X40500D01*
Y58000D01*
D02*
G37*
G36*
X78796Y25000D02*
X78001D01*
X77266Y24696D01*
X76798Y24228D01*
X76331Y24696D01*
X75596Y25000D01*
X74801D01*
X74066Y24696D01*
X73503Y24133D01*
X73198Y23398D01*
Y22602D01*
X73503Y21867D01*
X74066Y21305D01*
X74801Y21000D01*
X75596D01*
X76331Y21305D01*
X76798Y21772D01*
X77266Y21305D01*
X78001Y21000D01*
X78796D01*
X79531Y21305D01*
X80094Y21867D01*
X80398Y22602D01*
Y23398D01*
X80094Y24133D01*
X79531Y24696D01*
X78796Y25000D01*
D02*
G37*
G36*
X191638Y70900D02*
X190762D01*
X189954Y70565D01*
X189335Y69946D01*
X189000Y69138D01*
Y68262D01*
X189335Y67454D01*
X189954Y66835D01*
X190762Y66500D01*
X191638D01*
X192446Y66835D01*
X193065Y67454D01*
X193400Y68262D01*
Y69138D01*
X193065Y69946D01*
X192446Y70565D01*
X191638Y70900D01*
D02*
G37*
G36*
X246634Y68703D02*
X245758D01*
X244950Y68368D01*
X244331Y67749D01*
X243996Y66941D01*
Y66065D01*
X244331Y65257D01*
X244950Y64638D01*
X245758Y64303D01*
X246634D01*
X247442Y64638D01*
X248061Y65257D01*
X248396Y66065D01*
Y66941D01*
X248061Y67749D01*
X247442Y68368D01*
X246634Y68703D01*
D02*
G37*
G36*
X239941D02*
X239065D01*
X238257Y68368D01*
X237638Y67749D01*
X237303Y66941D01*
Y66065D01*
X237638Y65257D01*
X238257Y64638D01*
X239065Y64303D01*
X239941D01*
X240749Y64638D01*
X241368Y65257D01*
X241703Y66065D01*
Y66941D01*
X241368Y67749D01*
X240749Y68368D01*
X239941Y68703D01*
D02*
G37*
G36*
X233248D02*
X232372D01*
X231564Y68368D01*
X230945Y67749D01*
X230610Y66941D01*
Y66065D01*
X230945Y65257D01*
X231564Y64638D01*
X232372Y64303D01*
X233248D01*
X234056Y64638D01*
X234675Y65257D01*
X235010Y66065D01*
Y66941D01*
X234675Y67749D01*
X234056Y68368D01*
X233248Y68703D01*
D02*
G37*
G36*
X226555D02*
X225680D01*
X224871Y68368D01*
X224252Y67749D01*
X223917Y66941D01*
Y66065D01*
X224252Y65257D01*
X224871Y64638D01*
X225680Y64303D01*
X226555D01*
X227363Y64638D01*
X227982Y65257D01*
X228317Y66065D01*
Y66941D01*
X227982Y67749D01*
X227363Y68368D01*
X226555Y68703D01*
D02*
G37*
G36*
X219862D02*
X218987D01*
X218178Y68368D01*
X217559Y67749D01*
X217224Y66941D01*
Y66065D01*
X217559Y65257D01*
X218178Y64638D01*
X218987Y64303D01*
X219862D01*
X220671Y64638D01*
X221289Y65257D01*
X221624Y66065D01*
Y66941D01*
X221289Y67749D01*
X220671Y68368D01*
X219862Y68703D01*
D02*
G37*
G36*
X197938Y66900D02*
X197062D01*
X196254Y66565D01*
X195635Y65946D01*
X195300Y65138D01*
Y64262D01*
X195635Y63454D01*
X196254Y62835D01*
X197062Y62500D01*
X197938D01*
X198746Y62835D01*
X199365Y63454D01*
X199700Y64262D01*
Y65138D01*
X199365Y65946D01*
X198746Y66565D01*
X197938Y66900D01*
D02*
G37*
G36*
X192038Y64200D02*
X191162D01*
X190354Y63865D01*
X189735Y63246D01*
X189400Y62438D01*
Y61562D01*
X189735Y60754D01*
X190354Y60135D01*
X191162Y59800D01*
X192038D01*
X192846Y60135D01*
X193465Y60754D01*
X193800Y61562D01*
Y62438D01*
X193465Y63246D01*
X192846Y63865D01*
X192038Y64200D01*
D02*
G37*
G36*
X182638Y64100D02*
X181762D01*
X180954Y63765D01*
X180335Y63146D01*
X180000Y62338D01*
Y61462D01*
X180335Y60654D01*
X180954Y60035D01*
X181762Y59700D01*
X182638D01*
X183446Y60035D01*
X184065Y60654D01*
X184400Y61462D01*
Y62338D01*
X184065Y63146D01*
X183446Y63765D01*
X182638Y64100D01*
D02*
G37*
G36*
X157238Y60100D02*
X156362D01*
X155554Y59765D01*
X154935Y59146D01*
X154600Y58338D01*
Y57462D01*
X154935Y56654D01*
X155554Y56035D01*
X156362Y55700D01*
X157238D01*
X158046Y56035D01*
X158665Y56654D01*
X159000Y57462D01*
Y58338D01*
X158665Y59146D01*
X158046Y59765D01*
X157238Y60100D01*
D02*
G37*
G36*
X178138Y59800D02*
X177262D01*
X176454Y59465D01*
X175835Y58846D01*
X175500Y58038D01*
Y57162D01*
X175835Y56354D01*
X176454Y55735D01*
X177262Y55400D01*
X178138D01*
X178946Y55735D01*
X179565Y56354D01*
X179900Y57162D01*
Y58038D01*
X179565Y58846D01*
X178946Y59465D01*
X178138Y59800D01*
D02*
G37*
G36*
X173338Y57000D02*
X172462D01*
X171654Y56665D01*
X171035Y56046D01*
X170700Y55238D01*
Y54362D01*
X171035Y53554D01*
X171654Y52935D01*
X172462Y52600D01*
X173338D01*
X174146Y52935D01*
X174765Y53554D01*
X175100Y54362D01*
Y55238D01*
X174765Y56046D01*
X174146Y56665D01*
X173338Y57000D01*
D02*
G37*
G36*
X203598Y54000D02*
X202802D01*
X202067Y53695D01*
X201504Y53133D01*
X201200Y52398D01*
Y51602D01*
X201504Y50867D01*
X202067Y50305D01*
X202802Y50000D01*
X203598D01*
X204333Y50305D01*
X204895Y50867D01*
X205200Y51602D01*
Y52398D01*
X204895Y53133D01*
X204333Y53695D01*
X203598Y54000D01*
D02*
G37*
G36*
X189098Y53500D02*
X188302D01*
X187567Y53196D01*
X187004Y52633D01*
X186700Y51898D01*
Y51102D01*
X187004Y50367D01*
X187567Y49804D01*
X188302Y49500D01*
X189098D01*
X189833Y49804D01*
X190395Y50367D01*
X190700Y51102D01*
Y51898D01*
X190395Y52633D01*
X189833Y53196D01*
X189098Y53500D01*
D02*
G37*
G36*
Y47300D02*
X188302D01*
X187567Y46995D01*
X187004Y46433D01*
X186700Y45698D01*
Y44902D01*
X187004Y44167D01*
X187567Y43604D01*
X188302Y43300D01*
X189098D01*
X189833Y43604D01*
X190395Y44167D01*
X190700Y44902D01*
Y45698D01*
X190395Y46433D01*
X189833Y46995D01*
X189098Y47300D01*
D02*
G37*
G36*
X203598Y46800D02*
X202802D01*
X202067Y46496D01*
X201504Y45933D01*
X201200Y45198D01*
Y44402D01*
X201504Y43667D01*
X202067Y43104D01*
X202802Y42800D01*
X203598D01*
X204333Y43104D01*
X204895Y43667D01*
X205200Y44402D01*
Y45198D01*
X204895Y45933D01*
X204333Y46496D01*
X203598Y46800D01*
D02*
G37*
G36*
X194897Y40741D02*
X194022D01*
X193213Y40406D01*
X193062Y40255D01*
X192553Y39810D01*
X191756Y40255D01*
X191746Y40265D01*
X190938Y40600D01*
X190062D01*
X189254Y40265D01*
X188635Y39646D01*
X188300Y38838D01*
Y37962D01*
X188635Y37154D01*
X189254Y36535D01*
X190062Y36200D01*
X190938D01*
X191746Y36535D01*
X191897Y36685D01*
X192406Y37131D01*
X193203Y36685D01*
X193213Y36676D01*
X194022Y36341D01*
X194897D01*
X195705Y36676D01*
X196324Y37295D01*
X196659Y38103D01*
Y38978D01*
X196324Y39787D01*
X195705Y40406D01*
X194897Y40741D01*
D02*
G37*
G36*
X148128Y43009D02*
X147253D01*
X146445Y42674D01*
X145826Y42055D01*
X145491Y41247D01*
Y40372D01*
X145826Y39563D01*
X146445Y38944D01*
X147253Y38609D01*
X148128D01*
X148937Y38944D01*
X149556Y39563D01*
X149891Y40372D01*
Y41247D01*
X149556Y42055D01*
X148937Y42674D01*
X148128Y43009D01*
D02*
G37*
G36*
X176497Y39459D02*
X175622D01*
X174813Y39124D01*
X174194Y38505D01*
X173859Y37697D01*
Y36822D01*
X174194Y36013D01*
X174813Y35394D01*
X175622Y35059D01*
X176497D01*
X177305Y35394D01*
X177924Y36013D01*
X178259Y36822D01*
Y37697D01*
X177924Y38505D01*
X177305Y39124D01*
X176497Y39459D01*
D02*
G37*
G36*
X182938Y38700D02*
X182062D01*
X181254Y38365D01*
X180635Y37746D01*
X180300Y36938D01*
Y36062D01*
X180635Y35254D01*
X181254Y34635D01*
X182062Y34300D01*
X182938D01*
X183746Y34635D01*
X184365Y35254D01*
X184700Y36062D01*
Y36938D01*
X184365Y37746D01*
X183746Y38365D01*
X182938Y38700D01*
D02*
G37*
G36*
X249980Y35697D02*
X249105D01*
X248296Y35362D01*
X247677Y34743D01*
X247342Y33935D01*
Y33059D01*
X247677Y32251D01*
X248296Y31632D01*
X249105Y31297D01*
X249980D01*
X250789Y31632D01*
X251407Y32251D01*
X251742Y33059D01*
Y33935D01*
X251407Y34743D01*
X250789Y35362D01*
X249980Y35697D01*
D02*
G37*
G36*
X243287D02*
X242412D01*
X241603Y35362D01*
X240984Y34743D01*
X240650Y33935D01*
Y33059D01*
X240984Y32251D01*
X241603Y31632D01*
X242412Y31297D01*
X243287D01*
X244096Y31632D01*
X244714Y32251D01*
X245050Y33059D01*
Y33935D01*
X244714Y34743D01*
X244096Y35362D01*
X243287Y35697D01*
D02*
G37*
G36*
X236594D02*
X235719D01*
X234910Y35362D01*
X234292Y34743D01*
X233957Y33935D01*
Y33059D01*
X234292Y32251D01*
X234910Y31632D01*
X235719Y31297D01*
X236594D01*
X237403Y31632D01*
X238022Y32251D01*
X238357Y33059D01*
Y33935D01*
X238022Y34743D01*
X237403Y35362D01*
X236594Y35697D01*
D02*
G37*
G36*
X229901D02*
X229026D01*
X228217Y35362D01*
X227599Y34743D01*
X227264Y33935D01*
Y33059D01*
X227599Y32251D01*
X228217Y31632D01*
X229026Y31297D01*
X229901D01*
X230710Y31632D01*
X231329Y32251D01*
X231664Y33059D01*
Y33935D01*
X231329Y34743D01*
X230710Y35362D01*
X229901Y35697D01*
D02*
G37*
G36*
X223208D02*
X222333D01*
X221525Y35362D01*
X220906Y34743D01*
X220571Y33935D01*
Y33059D01*
X220906Y32251D01*
X221525Y31632D01*
X222333Y31297D01*
X223208D01*
X224017Y31632D01*
X224636Y32251D01*
X224971Y33059D01*
Y33935D01*
X224636Y34743D01*
X224017Y35362D01*
X223208Y35697D01*
D02*
G37*
G36*
X216515D02*
X215640D01*
X214832Y35362D01*
X214213Y34743D01*
X213878Y33935D01*
Y33059D01*
X214213Y32251D01*
X214832Y31632D01*
X215640Y31297D01*
X216515D01*
X217324Y31632D01*
X217943Y32251D01*
X218278Y33059D01*
Y33935D01*
X217943Y34743D01*
X217324Y35362D01*
X216515Y35697D01*
D02*
G37*
G36*
X164054Y35083D02*
X163179D01*
X162370Y34749D01*
X161751Y34130D01*
X161417Y33321D01*
Y32446D01*
X161751Y31637D01*
X162370Y31018D01*
X163179Y30683D01*
X164054D01*
X164863Y31018D01*
X165482Y31637D01*
X165817Y32446D01*
Y33321D01*
X165482Y34130D01*
X164863Y34749D01*
X164054Y35083D01*
D02*
G37*
G36*
X188538Y32700D02*
X187662D01*
X186854Y32365D01*
X186235Y31746D01*
X185900Y30938D01*
Y30062D01*
X186235Y29254D01*
X186854Y28635D01*
X187662Y28300D01*
X188538D01*
X189346Y28635D01*
X189965Y29254D01*
X190300Y30062D01*
Y30938D01*
X189965Y31746D01*
X189346Y32365D01*
X188538Y32700D01*
D02*
G37*
G36*
X195438Y32300D02*
X194562D01*
X193754Y31965D01*
X193135Y31346D01*
X192800Y30538D01*
Y29662D01*
X193135Y28854D01*
X193754Y28235D01*
X194562Y27900D01*
X195438D01*
X196246Y28235D01*
X196865Y28854D01*
X197200Y29662D01*
Y30538D01*
X196865Y31346D01*
X196246Y31965D01*
X195438Y32300D01*
D02*
G37*
G36*
X219838Y30700D02*
X218962D01*
X218154Y30365D01*
X217535Y29746D01*
X217200Y28938D01*
Y28062D01*
X217535Y27254D01*
X218154Y26635D01*
X218962Y26300D01*
X219838D01*
X220646Y26635D01*
X221265Y27254D01*
X221600Y28062D01*
Y28938D01*
X221265Y29746D01*
X220646Y30365D01*
X219838Y30700D01*
D02*
G37*
G36*
X246634Y29158D02*
X245758D01*
X244950Y28823D01*
X244331Y28204D01*
X243996Y27395D01*
Y26520D01*
X244331Y25711D01*
X244950Y25093D01*
X245758Y24758D01*
X246634D01*
X247442Y25093D01*
X248061Y25711D01*
X248396Y26520D01*
Y27395D01*
X248061Y28204D01*
X247442Y28823D01*
X246634Y29158D01*
D02*
G37*
G36*
X239941D02*
X239065D01*
X238257Y28823D01*
X237638Y28204D01*
X237303Y27395D01*
Y26520D01*
X237638Y25711D01*
X238257Y25093D01*
X239065Y24758D01*
X239941D01*
X240749Y25093D01*
X241368Y25711D01*
X241703Y26520D01*
Y27395D01*
X241368Y28204D01*
X240749Y28823D01*
X239941Y29158D01*
D02*
G37*
G36*
X233248D02*
X232372D01*
X231564Y28823D01*
X230945Y28204D01*
X230610Y27395D01*
Y26520D01*
X230945Y25711D01*
X231564Y25093D01*
X232372Y24758D01*
X233248D01*
X234056Y25093D01*
X234675Y25711D01*
X235010Y26520D01*
Y27395D01*
X234675Y28204D01*
X234056Y28823D01*
X233248Y29158D01*
D02*
G37*
G36*
X226555D02*
X225680D01*
X224871Y28823D01*
X224252Y28204D01*
X223917Y27395D01*
Y26520D01*
X224252Y25711D01*
X224871Y25093D01*
X225680Y24758D01*
X226555D01*
X227363Y25093D01*
X227982Y25711D01*
X228317Y26520D01*
Y27395D01*
X227982Y28204D01*
X227363Y28823D01*
X226555Y29158D01*
D02*
G37*
%LPD*%
D54*
X21220Y5192D02*
D03*
Y39208D02*
D03*
Y62692D02*
D03*
Y96708D02*
D03*
D55*
X5472Y5192D02*
D03*
Y39208D02*
D03*
Y62692D02*
D03*
Y96708D02*
D03*
D60*
X253728Y89272D02*
X253900Y89100D01*
X252671Y89272D02*
X253728D01*
X250543Y91400D02*
X252671Y89272D01*
X250300Y91400D02*
X250543D01*
D62*
X267000Y24400D02*
Y76628D01*
X265828Y77800D02*
X267000Y76628D01*
X248900Y77800D02*
X265828D01*
X262928Y15472D02*
Y20328D01*
Y15472D02*
X265500Y12900D01*
Y4900D02*
Y12900D01*
X262928Y20328D02*
X267000Y24400D01*
D66*
X35500Y4900D02*
D03*
X255500D02*
D03*
X45500Y97000D02*
D03*
X245500D02*
D03*
X215500Y4900D02*
D03*
X155500D02*
D03*
X45500D02*
D03*
X75500Y97000D02*
D03*
X195500Y4900D02*
D03*
X125500D02*
D03*
X105500Y97000D02*
D03*
X205500D02*
D03*
X165500Y4900D02*
D03*
X65500Y97000D02*
D03*
X235500D02*
D03*
X135500Y4900D02*
D03*
X55500D02*
D03*
X95500Y97000D02*
D03*
X225500Y4900D02*
D03*
X105500D02*
D03*
X195500Y97000D02*
D03*
X225500D02*
D03*
X175500Y4900D02*
D03*
X85500D02*
D03*
X235500D02*
D03*
X115500D02*
D03*
X85500Y97000D02*
D03*
X245500Y4900D02*
D03*
X185500D02*
D03*
X95500D02*
D03*
X215500Y97000D02*
D03*
X65500Y4900D02*
D03*
X75500D02*
D03*
X145500D02*
D03*
X205500D02*
D03*
X35500Y97000D02*
D03*
X55500D02*
D03*
X115500D02*
D03*
X125500D02*
D03*
X135500D02*
D03*
X145500D02*
D03*
X155500D02*
D03*
X165500D02*
D03*
X175500D02*
D03*
X185500D02*
D03*
X255500D02*
D03*
D67*
X265500D02*
D03*
Y4900D02*
D03*
D68*
X37500Y55000D02*
D03*
D69*
Y50000D02*
D03*
Y45000D02*
D03*
X142500Y50000D02*
D03*
D70*
X137500D02*
D03*
D71*
X182200Y61900D02*
D03*
X186500Y62500D02*
D03*
X56073Y63324D02*
D03*
X84675Y84075D02*
D03*
X256235Y26958D02*
D03*
X204000Y73500D02*
D03*
X262545Y26575D02*
D03*
Y29921D02*
D03*
Y33268D02*
D03*
Y36614D02*
D03*
Y39961D02*
D03*
Y43307D02*
D03*
Y46654D02*
D03*
Y50000D02*
D03*
Y53347D02*
D03*
Y56693D02*
D03*
Y60039D02*
D03*
Y63386D02*
D03*
Y66732D02*
D03*
Y70079D02*
D03*
Y73425D02*
D03*
X259582Y73042D02*
D03*
X229000Y56500D02*
D03*
Y50004D02*
D03*
Y43508D02*
D03*
X239499Y39497D02*
D03*
X250006Y43500D02*
D03*
Y49996D02*
D03*
Y56492D02*
D03*
X239507Y60503D02*
D03*
X242800Y53300D02*
D03*
X242700Y46700D02*
D03*
X236200D02*
D03*
X236300Y53200D02*
D03*
X257300Y83700D02*
D03*
X245900Y83500D02*
D03*
X266500Y18100D02*
D03*
X155700Y40900D02*
D03*
X252889Y26958D02*
D03*
X207000Y24200D02*
D03*
X163000Y18700D02*
D03*
X169400Y18300D02*
D03*
X147500Y83800D02*
D03*
X124300Y78100D02*
D03*
X161200Y64900D02*
D03*
X94100Y78300D02*
D03*
X90900Y60300D02*
D03*
X90600Y54900D02*
D03*
X77800Y59600D02*
D03*
X78900Y55300D02*
D03*
X62000Y55000D02*
D03*
X48600Y69500D02*
D03*
X49400Y88000D02*
D03*
X70200Y89000D02*
D03*
X73200Y79300D02*
D03*
X68800Y79200D02*
D03*
X73200Y74800D02*
D03*
X68600D02*
D03*
X124200Y40900D02*
D03*
X98000Y33100D02*
D03*
X101900D02*
D03*
X105800D02*
D03*
X109700D02*
D03*
X113600D02*
D03*
Y40700D02*
D03*
X109700D02*
D03*
X105800D02*
D03*
X101900D02*
D03*
X98000D02*
D03*
X113500Y47400D02*
D03*
X109600D02*
D03*
X105700D02*
D03*
X101800D02*
D03*
X97900D02*
D03*
X57350Y29000D02*
D03*
X53600D02*
D03*
X49850D02*
D03*
X29100Y9600D02*
D03*
X35588Y24479D02*
D03*
X35449Y15021D02*
D03*
X47500Y33700D02*
D03*
X27800Y37200D02*
D03*
X30500Y42200D02*
D03*
X73795Y20124D02*
D03*
X80000D02*
D03*
X206398Y52100D02*
D03*
Y45000D02*
D03*
X42000Y29500D02*
D03*
Y10000D02*
D03*
X185500Y51500D02*
D03*
Y45100D02*
D03*
X39600Y76700D02*
D03*
X38500Y87600D02*
D03*
X26900Y63300D02*
D03*
X31000Y58400D02*
D03*
X28000Y92400D02*
D03*
X48346Y82154D02*
D03*
X46600Y73000D02*
D03*
X45500Y67200D02*
D03*
X77320Y63820D02*
D03*
X133200Y61100D02*
D03*
X78900Y89800D02*
D03*
X98700Y61800D02*
D03*
X156800Y57900D02*
D03*
X188700Y51500D02*
D03*
Y45300D02*
D03*
X44005Y22496D02*
D03*
X163617Y32883D02*
D03*
X51500Y16700D02*
D03*
X48300D02*
D03*
X55300D02*
D03*
X56400Y51400D02*
D03*
X38034Y80365D02*
D03*
X33500Y80500D02*
D03*
X49300Y75112D02*
D03*
Y79100D02*
D03*
X182500Y36500D02*
D03*
X176059Y37259D02*
D03*
X188100Y30500D02*
D03*
X147691Y40809D02*
D03*
X44000Y19296D02*
D03*
X78399Y23000D02*
D03*
X75199D02*
D03*
X203200Y44800D02*
D03*
Y52000D02*
D03*
X172900Y54800D02*
D03*
X191600Y62000D02*
D03*
X79100Y50500D02*
D03*
X98800Y84600D02*
D03*
X182700Y77800D02*
D03*
X177700Y57600D02*
D03*
X197500Y64700D02*
D03*
X191200Y68700D02*
D03*
X198000Y71900D02*
D03*
X167600Y80000D02*
D03*
X194459Y38541D02*
D03*
X190500Y38400D02*
D03*
X195000Y30100D02*
D03*
X219400Y28500D02*
D03*
X246196Y26958D02*
D03*
X239503D02*
D03*
X232810D02*
D03*
X242849Y33497D02*
D03*
X226117Y26958D02*
D03*
X250300Y91400D02*
D03*
X253900Y89100D02*
D03*
X229464Y73042D02*
D03*
X236157D02*
D03*
X222771D02*
D03*
X216078D02*
D03*
X246196Y66503D02*
D03*
X216078Y33497D02*
D03*
X249542D02*
D03*
X236157D02*
D03*
X229464D02*
D03*
X222771D02*
D03*
X219424Y66503D02*
D03*
X226117D02*
D03*
X232810D02*
D03*
X239503D02*
D03*
X242849Y73042D02*
D03*
X249500Y73000D02*
D03*
D72*
X144150Y71900D02*
X176800D01*
X253900Y89100D02*
X255500Y90700D01*
Y97000D01*
X252400Y87600D02*
X253900Y89100D01*
X252400Y81300D02*
Y87600D01*
X248900Y77800D02*
X252400Y81300D01*
X182700Y77800D02*
X248900D01*
X144150Y51650D02*
Y71900D01*
X142500Y50000D02*
X144150Y51650D01*
X111500Y71900D02*
X144150D01*
X98800Y84600D02*
X111500Y71900D01*
X176800D02*
X182700Y77800D01*
X81200Y50500D02*
X84600Y53900D01*
Y77300D02*
X91900Y84600D01*
X84600Y53900D02*
Y77300D01*
X79100Y50500D02*
X81200D01*
X91900Y84600D02*
X98800D01*
X48300Y16700D02*
X51500D01*
X59728D02*
X60028Y17000D01*
X55300Y16700D02*
X59728D01*
X60028Y17000D02*
X64456D01*
X137500Y42400D02*
Y50000D01*
D73*
X64456Y17000D02*
X67656Y13800D01*
X108900D01*
X137500Y42400D01*
M02*
