G04*
G04 #@! TF.GenerationSoftware,Altium Limited,Altium Designer,25.8.1 (18)*
G04*
G04 Layer_Physical_Order=1*
G04 Layer_Color=255*
%FSLAX25Y25*%
%MOIN*%
G70*
G04*
G04 #@! TF.SameCoordinates,32EA78B9-D10A-4EA7-89C3-F5576A3C80F4*
G04*
G04*
G04 #@! TF.FilePolarity,Positive*
G04*
G01*
G75*
%ADD12C,0.00600*%
%ADD17R,0.02362X0.02126*%
G04:AMPARAMS|DCode=18|XSize=33.06mil|YSize=9.55mil|CornerRadius=4.77mil|HoleSize=0mil|Usage=FLASHONLY|Rotation=270.000|XOffset=0mil|YOffset=0mil|HoleType=Round|Shape=RoundedRectangle|*
%AMROUNDEDRECTD18*
21,1,0.03306,0.00000,0,0,270.0*
21,1,0.02351,0.00955,0,0,270.0*
1,1,0.00955,0.00000,-0.01176*
1,1,0.00955,0.00000,0.01176*
1,1,0.00955,0.00000,0.01176*
1,1,0.00955,0.00000,-0.01176*
%
%ADD18ROUNDEDRECTD18*%
%ADD19R,0.02126X0.02362*%
G04:AMPARAMS|DCode=20|XSize=9.55mil|YSize=33.06mil|CornerRadius=4.77mil|HoleSize=0mil|Usage=FLASHONLY|Rotation=270.000|XOffset=0mil|YOffset=0mil|HoleType=Round|Shape=RoundedRectangle|*
%AMROUNDEDRECTD20*
21,1,0.00955,0.02351,0,0,270.0*
21,1,0.00000,0.03306,0,0,270.0*
1,1,0.00955,-0.01176,0.00000*
1,1,0.00955,-0.01176,0.00000*
1,1,0.00955,0.01176,0.00000*
1,1,0.00955,0.01176,0.00000*
%
%ADD20ROUNDEDRECTD20*%
G04:AMPARAMS|DCode=21|XSize=23.62mil|YSize=21.26mil|CornerRadius=5.63mil|HoleSize=0mil|Usage=FLASHONLY|Rotation=270.000|XOffset=0mil|YOffset=0mil|HoleType=Round|Shape=RoundedRectangle|*
%AMROUNDEDRECTD21*
21,1,0.02362,0.00999,0,0,270.0*
21,1,0.01235,0.02126,0,0,270.0*
1,1,0.01127,-0.00500,-0.00618*
1,1,0.01127,-0.00500,0.00618*
1,1,0.01127,0.00500,0.00618*
1,1,0.01127,0.00500,-0.00618*
%
%ADD21ROUNDEDRECTD21*%
G04:AMPARAMS|DCode=22|XSize=53.43mil|YSize=22.53mil|CornerRadius=11.26mil|HoleSize=0mil|Usage=FLASHONLY|Rotation=0.000|XOffset=0mil|YOffset=0mil|HoleType=Round|Shape=RoundedRectangle|*
%AMROUNDEDRECTD22*
21,1,0.05343,0.00000,0,0,0.0*
21,1,0.03091,0.02253,0,0,0.0*
1,1,0.02253,0.01545,0.00000*
1,1,0.02253,-0.01545,0.00000*
1,1,0.02253,-0.01545,0.00000*
1,1,0.02253,0.01545,0.00000*
%
%ADD22ROUNDEDRECTD22*%
%ADD23R,0.01378X0.02362*%
%ADD24R,0.04528X0.02362*%
G04:AMPARAMS|DCode=25|XSize=23.62mil|YSize=21.26mil|CornerRadius=5.63mil|HoleSize=0mil|Usage=FLASHONLY|Rotation=180.000|XOffset=0mil|YOffset=0mil|HoleType=Round|Shape=RoundedRectangle|*
%AMROUNDEDRECTD25*
21,1,0.02362,0.00999,0,0,180.0*
21,1,0.01235,0.02126,0,0,180.0*
1,1,0.01127,-0.00618,0.00500*
1,1,0.01127,0.00618,0.00500*
1,1,0.01127,0.00618,-0.00500*
1,1,0.01127,-0.00618,-0.00500*
%
%ADD25ROUNDEDRECTD25*%
%ADD26R,0.06102X0.05118*%
G04:AMPARAMS|DCode=27|XSize=125.98mil|YSize=68.9mil|CornerRadius=2.07mil|HoleSize=0mil|Usage=FLASHONLY|Rotation=90.000|XOffset=0mil|YOffset=0mil|HoleType=Round|Shape=RoundedRectangle|*
%AMROUNDEDRECTD27*
21,1,0.12598,0.06476,0,0,90.0*
21,1,0.12185,0.06890,0,0,90.0*
1,1,0.00413,0.03238,0.06093*
1,1,0.00413,0.03238,-0.06093*
1,1,0.00413,-0.03238,-0.06093*
1,1,0.00413,-0.03238,0.06093*
%
%ADD27ROUNDEDRECTD27*%
G04:AMPARAMS|DCode=28|XSize=35.43mil|YSize=68.9mil|CornerRadius=1.95mil|HoleSize=0mil|Usage=FLASHONLY|Rotation=90.000|XOffset=0mil|YOffset=0mil|HoleType=Round|Shape=RoundedRectangle|*
%AMROUNDEDRECTD28*
21,1,0.03543,0.06500,0,0,90.0*
21,1,0.03154,0.06890,0,0,90.0*
1,1,0.00390,0.03250,0.01577*
1,1,0.00390,0.03250,-0.01577*
1,1,0.00390,-0.03250,-0.01577*
1,1,0.00390,-0.03250,0.01577*
%
%ADD28ROUNDEDRECTD28*%
%ADD29R,0.02362X0.01378*%
%ADD30R,0.02756X0.02362*%
%ADD31R,0.03150X0.03150*%
%ADD32R,0.01575X0.03150*%
%ADD33R,0.03150X0.01575*%
%ADD34R,0.04724X0.04724*%
%ADD35R,0.00955X0.03306*%
%ADD36R,0.04528X0.01181*%
%ADD37R,0.05343X0.02253*%
%ADD47R,0.08071X0.08071*%
G04:AMPARAMS|DCode=54|XSize=39.37mil|YSize=70.87mil|CornerRadius=19.68mil|HoleSize=0mil|Usage=FLASHONLY|Rotation=270.000|XOffset=0mil|YOffset=0mil|HoleType=Round|Shape=RoundedRectangle|*
%AMROUNDEDRECTD54*
21,1,0.03937,0.03150,0,0,270.0*
21,1,0.00000,0.07087,0,0,270.0*
1,1,0.03937,-0.01575,0.00000*
1,1,0.03937,-0.01575,0.00000*
1,1,0.03937,0.01575,0.00000*
1,1,0.03937,0.01575,0.00000*
%
%ADD54ROUNDEDRECTD54*%
G04:AMPARAMS|DCode=55|XSize=39.37mil|YSize=86.61mil|CornerRadius=19.68mil|HoleSize=0mil|Usage=FLASHONLY|Rotation=270.000|XOffset=0mil|YOffset=0mil|HoleType=Round|Shape=RoundedRectangle|*
%AMROUNDEDRECTD55*
21,1,0.03937,0.04724,0,0,270.0*
21,1,0.00000,0.08661,0,0,270.0*
1,1,0.03937,-0.02362,0.00000*
1,1,0.03937,-0.02362,0.00000*
1,1,0.03937,0.02362,0.00000*
1,1,0.03937,0.02362,0.00000*
%
%ADD55ROUNDEDRECTD55*%
%ADD59R,0.01575X0.01575*%
%ADD60C,0.01500*%
%ADD61C,0.01200*%
%ADD62C,0.02000*%
%ADD63C,0.00603*%
%ADD64C,0.01001*%
%ADD65C,0.01010*%
%ADD66C,0.06400*%
%ADD67R,0.06400X0.06400*%
%ADD68R,0.04000X0.04000*%
%ADD69C,0.04000*%
%ADD70R,0.04000X0.04000*%
%ADD71C,0.02400*%
G36*
X255200Y85600D02*
X255000Y85400D01*
X247500D01*
Y91900D01*
X248500Y92700D01*
X255200D01*
Y85600D01*
D02*
G37*
G36*
X91900Y80100D02*
X84800D01*
X83300Y81600D01*
Y87600D01*
X91900D01*
Y80100D01*
D02*
G37*
G36*
X59793Y72378D02*
X59787Y71434D01*
X59677Y71323D01*
X59593Y71265D01*
X57805Y69452D01*
X56400Y68200D01*
X56246Y67870D01*
X56249Y66842D01*
X56707Y66461D01*
X57499Y63754D01*
X57002Y62864D01*
X56719D01*
Y58738D01*
X57390D01*
X57515Y58616D01*
X59376Y58562D01*
X60060Y57833D01*
X59996Y56000D01*
X57800D01*
X54600Y59200D01*
X54251Y70082D01*
X54947Y70800D01*
X56800D01*
X58795Y72795D01*
X59793Y72378D01*
D02*
G37*
G36*
X41400Y52950D02*
X38082D01*
X37895Y53000D01*
X37105D01*
X36918Y52950D01*
X34100D01*
Y60550D01*
Y65750D01*
X34500Y66450D01*
X41400D01*
Y52950D01*
D02*
G37*
G36*
X252100Y62500D02*
Y37200D01*
X226905D01*
X226202Y38035D01*
X226500Y62700D01*
X251900D01*
X252100Y62500D01*
D02*
G37*
G36*
X37818Y51965D02*
X37951Y51956D01*
X38082Y51930D01*
X39170D01*
X40200Y50900D01*
X42200Y50700D01*
Y50700D01*
X42271Y50729D01*
X52300Y40700D01*
X68900D01*
X69500Y40100D01*
Y36000D01*
X67100Y35800D01*
X53500Y36200D01*
X50900Y39000D01*
X40903Y48797D01*
X38186Y47922D01*
X37895Y48000D01*
X37311D01*
X35546Y48471D01*
X35242Y51242D01*
X35930Y51930D01*
X36918D01*
X37049Y51956D01*
X37182Y51965D01*
X37239Y51980D01*
X37761D01*
X37818Y51965D01*
D02*
G37*
G36*
X117800Y46100D02*
Y14408D01*
X117092Y13702D01*
X83700Y13817D01*
Y21800D01*
X80000Y25500D01*
X69200D01*
X67420Y23720D01*
X57346D01*
X57248Y23700D01*
X57148D01*
X57055Y23662D01*
X56956Y23642D01*
X56880Y23591D01*
X56517Y23519D01*
X55483D01*
X55120Y23591D01*
X55044Y23642D01*
X54945Y23662D01*
X54852Y23700D01*
X54752D01*
X54654Y23720D01*
X52447D01*
X52348Y23700D01*
X52248D01*
X52155Y23662D01*
X52056Y23642D01*
X51980Y23591D01*
X51617Y23519D01*
X50583D01*
X50220Y23591D01*
X50144Y23642D01*
X50045Y23662D01*
X49952Y23700D01*
X49852D01*
X49753Y23720D01*
X48600D01*
Y32600D01*
X50900Y34900D01*
X63019D01*
X67070Y34781D01*
X67127Y34791D01*
X67185Y34784D01*
X68577Y34900D01*
X77600D01*
X92800Y50100D01*
X113800D01*
X117800Y46100D01*
D02*
G37*
G36*
X36837Y47071D02*
X37048Y47015D01*
X37050Y47015D01*
X37105Y47000D01*
X37212D01*
X37311Y46980D01*
X37761D01*
X37923Y46937D01*
X38015Y46931D01*
X38104Y46906D01*
X38212Y46918D01*
X38320Y46911D01*
X38407Y46941D01*
X38481Y46949D01*
X39907Y46844D01*
X40291Y44593D01*
X43447Y40328D01*
X43600Y38500D01*
X43894Y38000D01*
X43881Y37190D01*
X43858Y35698D01*
X43531Y32373D01*
X42067Y31700D01*
X41562D01*
X40754Y31365D01*
X40255Y30866D01*
X39250Y30404D01*
X36779Y30214D01*
X36701Y30229D01*
X35197D01*
X33943Y30588D01*
X34090Y35563D01*
X34077Y37082D01*
X34059Y39368D01*
X34409Y45607D01*
X35940Y47138D01*
X36837Y47071D01*
D02*
G37*
G36*
X69400Y15500D02*
X68500Y14600D01*
X46600D01*
Y21600D01*
X47700Y22700D01*
X49753D01*
X49872Y22621D01*
X50482Y22499D01*
X51718D01*
X52328Y22621D01*
X52447Y22700D01*
X54654D01*
X54772Y22621D01*
X55382Y22499D01*
X56618D01*
X57228Y22621D01*
X57346Y22700D01*
X69400D01*
Y15500D01*
D02*
G37*
D12*
X183472Y23200D02*
X200700D01*
X202099Y21801D01*
X188482Y59600D02*
X189282Y58800D01*
X183549Y61632D02*
X185582Y59600D01*
X188482D01*
X182468Y61632D02*
X183549D01*
X189282Y58800D02*
X198528D01*
X199480Y59752D01*
X182200Y61900D02*
X182468Y61632D01*
X199480Y59752D02*
X199480D01*
X200728Y61000D01*
X84021Y56089D02*
Y56207D01*
X81149Y59078D02*
X84021Y56207D01*
X74937Y68761D02*
X74960Y68738D01*
X81149Y59078D02*
Y63809D01*
X74937Y68761D02*
Y69459D01*
X74960Y68738D02*
X76221D01*
X78359Y66600D01*
X81149Y63809D01*
X86900Y86300D02*
X90699D01*
X84675Y84075D02*
X86900Y86300D01*
X78541Y77000D02*
X81628D01*
X102881Y69064D02*
Y69182D01*
X103900Y70201D01*
X102318Y68501D02*
X102881Y69064D01*
X107116Y78311D02*
X108065Y79260D01*
X109271D01*
X103900Y70201D02*
Y74940D01*
X107116Y78156D02*
Y78311D01*
X103900Y74940D02*
X107116Y78156D01*
X102122Y68579D02*
Y70478D01*
Y68579D02*
X102200Y68501D01*
X99500Y73100D02*
X102122Y70478D01*
X89400Y73100D02*
X99500D01*
X83028Y75600D02*
X86900D01*
X89400Y73100D01*
X81628Y77000D02*
X81800Y76828D01*
X83028Y75600D01*
X101519Y82136D02*
X102082Y82699D01*
X111401D02*
X114100Y80000D01*
Y71179D02*
Y80000D01*
X109751Y65268D02*
Y66829D01*
X109271Y64789D02*
X109751Y65268D01*
Y66829D02*
X114100Y71179D01*
X80063Y79360D02*
X81800D01*
X79672Y78969D02*
X80063Y79360D01*
X78541Y78969D02*
X79672D01*
X87728Y77600D02*
X89728Y75600D01*
X84600Y77600D02*
X87728D01*
X82840Y79360D02*
X84600Y77600D01*
X81800Y79360D02*
X82840D01*
X102082Y82699D02*
X111401D01*
X96300Y75600D02*
X101519Y80819D01*
X89728Y75600D02*
X96300D01*
X101519Y80819D02*
Y82136D01*
X202099Y14600D02*
Y21801D01*
X77155Y89532D02*
X78632D01*
X78900Y89800D01*
X74937Y84541D02*
Y86900D01*
Y87314D02*
X77155Y89532D01*
X74937Y86900D02*
Y87314D01*
X171200Y35472D02*
X183472Y23200D01*
X133200Y61100D02*
X149582D01*
X171200Y39482D01*
Y35472D02*
Y39482D01*
X67063Y68328D02*
Y69459D01*
X63900Y65165D02*
X67063Y68328D01*
X63900Y60793D02*
Y65165D01*
X63896Y60797D02*
X63900Y60793D01*
X58904Y60797D02*
X63896D01*
X58900Y60801D02*
X58904Y60797D01*
X81911Y66289D02*
X84073D01*
X78541Y73063D02*
X79714D01*
X80300Y72477D01*
Y67900D02*
Y72477D01*
Y67900D02*
X81911Y66289D01*
X84031Y66247D02*
X84073Y66289D01*
X84031Y61230D02*
Y66247D01*
X83989Y61189D02*
X84031Y61230D01*
X84600Y70700D02*
X89800D01*
X78541Y75032D02*
X80269D01*
X89800Y70700D02*
X98700Y61800D01*
X80269Y75032D02*
X84600Y70700D01*
X184182Y25318D02*
X201899D01*
X212499Y14718D01*
Y14600D02*
Y14718D01*
X173200Y36300D02*
X184182Y25318D01*
X156800Y57900D02*
X173200Y41500D01*
Y36300D02*
Y41500D01*
X178899Y18900D02*
X179000Y18799D01*
X176800Y18900D02*
X178899D01*
X176000Y19700D02*
X176800Y18900D01*
X176000Y19700D02*
Y21100D01*
X175200Y21900D02*
X176000Y21100D01*
X173030Y21900D02*
X175200D01*
X173000Y21870D02*
X173030Y21900D01*
X119799Y61701D02*
X131500Y50000D01*
X124350Y21350D02*
X131500Y28500D01*
Y50000D01*
X124350Y16142D02*
Y21350D01*
X119799Y61701D02*
Y65486D01*
X116756Y68529D02*
X119799Y65486D01*
X146700Y35076D02*
Y39523D01*
X124350Y16142D02*
X155650D01*
X32669Y72810D02*
X33979Y71500D01*
X23484Y72810D02*
X32669D01*
X43000Y74099D02*
X43100Y73999D01*
Y72086D02*
Y73999D01*
X42514Y71500D02*
X43100Y72086D01*
X33979Y71500D02*
X42514D01*
X28300Y84621D02*
X32514D01*
X33100Y88000D02*
X35700Y90600D01*
X42036D01*
X33100Y85207D02*
Y88000D01*
X32514Y84621D02*
X33100Y85207D01*
X23484Y84621D02*
X28300D01*
X42622Y87079D02*
Y90014D01*
X42036Y90600D02*
X42622Y90014D01*
Y87079D02*
X43000Y86701D01*
X185200Y36500D02*
X186000Y35700D01*
X182500Y36500D02*
X185200D01*
X186000Y35700D02*
X210242D01*
X176059Y37259D02*
X185918Y27400D01*
X207618D01*
X208444Y26575D01*
X211944D01*
X210242Y35700D02*
X211157Y36614D01*
X190877Y33277D02*
X211935D01*
X188100Y30500D02*
X190877Y33277D01*
X211157Y36614D02*
X211944D01*
X146700Y35076D02*
X154626Y27150D01*
X147691Y40514D02*
Y40809D01*
X146700Y39523D02*
X147691Y40514D01*
X166000Y22148D02*
Y27100D01*
X154626Y27150D02*
X165950D01*
X166000Y22148D02*
X166050Y22098D01*
X165950Y27150D02*
X166000Y27100D01*
X196818Y40000D02*
X207000D01*
X210020Y43020D02*
X211656D01*
X207000Y40000D02*
X210020Y43020D01*
X211656D02*
X211944Y43307D01*
X195578Y41241D02*
X196818Y40000D01*
X190500Y38400D02*
X193341Y41241D01*
X195578D01*
X211656Y39673D02*
X211944Y39961D01*
X210520Y39673D02*
X211656D01*
X208546Y37700D02*
X210520Y39673D01*
X195679Y37700D02*
X208546D01*
X194459Y38541D02*
X194838D01*
X195679Y37700D01*
X172900Y54800D02*
X208271D01*
X209593Y53479D01*
X211812D01*
X211944Y53347D01*
X38346Y12763D02*
X38464D01*
X28500Y14300D02*
X31200Y11600D01*
X37819Y12186D02*
Y12236D01*
X38346Y12763D01*
X31200Y11600D02*
X37233D01*
X37819Y12186D01*
X27490Y15310D02*
X28500Y14300D01*
X23484Y15310D02*
X27490D01*
X28500Y28000D02*
X29200Y28700D01*
X27621Y27121D02*
X28500Y28000D01*
X36701Y28700D02*
X37819Y27582D01*
X29200Y28700D02*
X36701D01*
X37819Y27464D02*
X38382Y26901D01*
X38500D01*
X37819Y27464D02*
Y27582D01*
X23484Y27121D02*
X27621D01*
X155715Y16207D02*
Y19615D01*
X158198Y22098D01*
X166050D01*
X155650Y16142D02*
X155715Y16207D01*
X195499Y80082D02*
Y80200D01*
X183579Y68162D02*
X195499Y80082D01*
X164350Y68162D02*
X183579D01*
X157670D02*
X164350D01*
X155650Y66142D02*
X157670Y68162D01*
X124350Y66142D02*
X155650D01*
X124350D02*
Y70950D01*
X116756Y78544D02*
X124350Y70950D01*
X116756Y78544D02*
Y83000D01*
X107726Y69126D02*
Y71643D01*
X104262Y65662D02*
X107726Y69126D01*
X108352Y72269D02*
X109271D01*
X107726Y71643D02*
X108352Y72269D01*
X102763Y65662D02*
X104262D01*
X102200Y65099D02*
X102763Y65662D01*
X107726Y86740D02*
X109271D01*
X107087Y86101D02*
X107726Y86740D01*
X102200Y86101D02*
X107087D01*
X198901Y85418D02*
X199464Y85981D01*
X199582D02*
X200301Y86700D01*
X238882D02*
X244782Y80800D01*
X200301Y86700D02*
X238882D01*
X199464Y85981D02*
X199582D01*
X198901Y80200D02*
Y85418D01*
X252601Y77846D02*
X252889Y77559D01*
X252601Y77846D02*
Y78983D01*
X250785Y80800D02*
X252601Y78983D01*
X244782Y80800D02*
X250785D01*
X195499Y85300D02*
Y87620D01*
X196780Y88900D02*
X237400D01*
X195499Y87620D02*
X196780Y88900D01*
X237400D02*
X245500Y97000D01*
X174951Y82551D02*
X183300Y90900D01*
X224914D01*
X225500Y91486D02*
Y97000D01*
X224914Y90900D02*
X225500Y91486D01*
X188453Y56800D02*
X199357D01*
X187653Y57600D02*
X188453Y56800D01*
X200728Y61000D02*
X209846D01*
X191868Y61732D02*
X192568D01*
X193500Y60800D01*
X191600Y62000D02*
X191868Y61732D01*
X193500Y60800D02*
X197700D01*
X215500Y4900D02*
X215700Y5100D01*
Y14400D01*
X215901Y14600D01*
X205500Y4900D02*
X205500Y4900D01*
Y14600D01*
X205501Y14600D01*
X177700Y57600D02*
X187653D01*
X197700Y60800D02*
X200573Y63673D01*
X211656D01*
X211944Y63386D01*
X209846Y61000D02*
X210520Y60327D01*
X211656D01*
X199357Y56800D02*
X200309Y57752D01*
X210283D01*
X210869Y57166D01*
Y56980D02*
Y57166D01*
X211157Y56693D02*
X211944D01*
X210869Y56980D02*
X211157Y56693D01*
X211656Y60327D02*
X211944Y60039D01*
X197500Y64700D02*
X199500Y66700D01*
X209012D01*
X209044Y66732D01*
X211656Y73138D02*
X211944Y73425D01*
X207455Y70800D02*
X209793Y73138D01*
X199100Y70800D02*
X207455D01*
X209793Y73138D02*
X211656D01*
X209044Y66732D02*
X211944D01*
X208183Y68700D02*
X209511Y70028D01*
X211893D01*
X191200Y68700D02*
X208183D01*
X211893Y70028D02*
X211944Y70079D01*
X198000Y71900D02*
X199100Y70800D01*
X173000Y81870D02*
X173681Y82551D01*
X174951D01*
X169470Y81870D02*
X173000D01*
X175211Y78811D02*
X177038Y80638D01*
X173681Y78811D02*
X175211D01*
X177038Y80638D02*
X178437D01*
X179000Y81201D01*
X173000Y78130D02*
X173681Y78811D01*
X167600Y80000D02*
X169470Y81870D01*
X195000Y30100D02*
X211765D01*
X211944Y29921D01*
X219412Y22453D02*
Y28488D01*
X219400Y28500D02*
X219412Y28488D01*
Y22453D02*
X219424Y22441D01*
X246196D02*
Y26958D01*
X239503Y22441D02*
Y26958D01*
X232810Y22441D02*
Y26958D01*
X242849Y22441D02*
Y33497D01*
X226117Y22441D02*
Y26958D01*
X235500Y4900D02*
X240200Y9600D01*
X248700D01*
X259294Y20194D01*
Y22153D01*
X259582Y22441D01*
X249495Y5933D02*
X262928Y19366D01*
X245500Y4900D02*
X246533Y5933D01*
X249495D01*
X262928Y19366D02*
Y22441D01*
X229464Y73042D02*
Y77559D01*
X232810Y66503D02*
Y77559D01*
X236157Y73042D02*
Y77559D01*
X239503Y66503D02*
Y77559D01*
X222771Y73042D02*
Y77559D01*
X226117Y66503D02*
Y77559D01*
X216078Y73042D02*
Y77559D01*
X219424Y66503D02*
Y77559D01*
X246196Y66503D02*
Y77559D01*
X216078Y22441D02*
Y33497D01*
X249542Y22441D02*
Y33497D01*
X236157Y22441D02*
Y33497D01*
X229464Y22441D02*
Y33497D01*
X222771Y22441D02*
Y33497D01*
X242849Y73042D02*
Y77559D01*
X249500Y73000D02*
Y77517D01*
X249542Y77559D01*
D17*
X58900Y60801D02*
D03*
Y57399D02*
D03*
X102200Y68501D02*
D03*
Y82699D02*
D03*
X38500Y16201D02*
D03*
Y23499D02*
D03*
X43000Y83299D02*
D03*
Y77501D02*
D03*
Y74099D02*
D03*
Y86701D02*
D03*
X102200Y65099D02*
D03*
X165950Y27150D02*
D03*
X38500Y26901D02*
D03*
X102200Y86101D02*
D03*
X165950Y30552D02*
D03*
X38500Y12799D02*
D03*
X179000Y18799D02*
D03*
Y22201D02*
D03*
Y81201D02*
D03*
Y77799D02*
D03*
D18*
X74937Y69459D02*
D03*
X69032D02*
D03*
X71000Y84541D02*
D03*
Y69459D02*
D03*
X67063D02*
D03*
X72969Y84541D02*
D03*
X69032D02*
D03*
X67063D02*
D03*
X72969Y69459D02*
D03*
D19*
X84021Y56089D02*
D03*
X55501Y74556D02*
D03*
X90699Y86300D02*
D03*
X55501Y79656D02*
D03*
X67201Y51400D02*
D03*
X72099D02*
D03*
X87391Y61189D02*
D03*
X87423Y56089D02*
D03*
X202099Y14600D02*
D03*
X84073Y66289D02*
D03*
X83989Y61189D02*
D03*
X212499Y14600D02*
D03*
X195899Y52000D02*
D03*
X192498D02*
D03*
Y44800D02*
D03*
X195899D02*
D03*
D03*
Y52000D02*
D03*
X198901Y85300D02*
D03*
X195499D02*
D03*
X198901Y80200D02*
D03*
X195499D02*
D03*
X215901Y14600D02*
D03*
X94101Y86300D02*
D03*
X75501Y51400D02*
D03*
X63799D02*
D03*
X199301Y44800D02*
D03*
Y52000D02*
D03*
X205501Y14600D02*
D03*
X87475Y66289D02*
D03*
X52099Y79656D02*
D03*
Y74556D02*
D03*
D20*
X63459Y75032D02*
D03*
Y73063D02*
D03*
X78541Y80937D02*
D03*
Y77000D02*
D03*
X63459D02*
D03*
X78541Y78969D02*
D03*
Y73063D02*
D03*
Y75032D02*
D03*
X63459Y80937D02*
D03*
Y78969D02*
D03*
D21*
X90707Y81300D02*
D03*
X55393Y69556D02*
D03*
X72107Y56400D02*
D03*
Y61300D02*
D03*
X43668Y63023D02*
D03*
X46193Y37100D02*
D03*
X52207Y88000D02*
D03*
X245303Y86555D02*
D03*
X266996D02*
D03*
X263607Y13300D02*
D03*
X257310Y86555D02*
D03*
X75493Y56400D02*
D03*
Y61300D02*
D03*
X94093Y81300D02*
D03*
X52007Y69556D02*
D03*
X40282Y63023D02*
D03*
X42807Y37100D02*
D03*
X55593Y88000D02*
D03*
X248689Y86555D02*
D03*
X263610D02*
D03*
X266993Y13300D02*
D03*
X253924Y86555D02*
D03*
D22*
X109271Y79260D02*
D03*
Y64789D02*
D03*
X116756Y68529D02*
D03*
Y83000D02*
D03*
D23*
X32295Y62900D02*
D03*
X32212Y37100D02*
D03*
X34771D02*
D03*
X34854Y62900D02*
D03*
D24*
X23484Y34798D02*
D03*
Y9602D02*
D03*
Y92298D02*
D03*
Y67102D02*
D03*
Y12751D02*
D03*
Y31649D02*
D03*
Y70251D02*
D03*
Y89149D02*
D03*
D25*
X164350Y64776D02*
D03*
X166050Y18712D02*
D03*
X56000Y33807D02*
D03*
Y24593D02*
D03*
X51100D02*
D03*
X63900Y57407D02*
D03*
Y60793D02*
D03*
X166050Y22098D02*
D03*
X164350Y68162D02*
D03*
X56000Y37193D02*
D03*
Y21207D02*
D03*
X51100D02*
D03*
D26*
X155650Y83858D02*
D03*
X124350D02*
D03*
X155650Y33858D02*
D03*
X124350D02*
D03*
Y16142D02*
D03*
X155650D02*
D03*
Y66142D02*
D03*
X124350D02*
D03*
D27*
X90303Y29000D02*
D03*
D28*
X65697D02*
D03*
Y19945D02*
D03*
Y38055D02*
D03*
D29*
X36000Y85559D02*
D03*
Y74721D02*
D03*
X32600Y24479D02*
D03*
Y15021D02*
D03*
Y21921D02*
D03*
X36000Y83000D02*
D03*
Y77280D02*
D03*
X32600Y17580D02*
D03*
D30*
X173000Y18130D02*
D03*
X173000Y81870D02*
D03*
Y78130D02*
D03*
X173000Y21870D02*
D03*
D31*
X267062Y77559D02*
D03*
X211944D02*
D03*
X267062Y22441D02*
D03*
X211944D02*
D03*
D32*
X262928Y77559D02*
D03*
X259582D02*
D03*
X252889Y22441D02*
D03*
X256235D02*
D03*
X246196D02*
D03*
X256235Y77559D02*
D03*
X252889D02*
D03*
X249542D02*
D03*
X246196D02*
D03*
X242849D02*
D03*
X239503D02*
D03*
X236157D02*
D03*
X232810D02*
D03*
X229464D02*
D03*
X226117D02*
D03*
X222771D02*
D03*
X219424D02*
D03*
X216078D02*
D03*
Y22441D02*
D03*
X219424D02*
D03*
X222771D02*
D03*
X226117D02*
D03*
X229464D02*
D03*
X232810D02*
D03*
X236157D02*
D03*
X239503D02*
D03*
X242849D02*
D03*
X249542D02*
D03*
X259582D02*
D03*
X262928D02*
D03*
D33*
X267062Y26575D02*
D03*
Y29921D02*
D03*
Y33268D02*
D03*
Y36614D02*
D03*
Y39961D02*
D03*
Y43307D02*
D03*
Y46654D02*
D03*
Y50000D02*
D03*
Y53347D02*
D03*
Y56693D02*
D03*
Y60039D02*
D03*
Y63386D02*
D03*
Y66732D02*
D03*
Y70079D02*
D03*
Y73425D02*
D03*
X211944Y46654D02*
D03*
Y50000D02*
D03*
Y73425D02*
D03*
Y70079D02*
D03*
Y66732D02*
D03*
Y63386D02*
D03*
Y60039D02*
D03*
Y56693D02*
D03*
Y53347D02*
D03*
Y43307D02*
D03*
Y39961D02*
D03*
Y36614D02*
D03*
Y33268D02*
D03*
Y29921D02*
D03*
Y26575D02*
D03*
D34*
X239503Y50000D02*
D03*
X245999D02*
D03*
Y43504D02*
D03*
X239503D02*
D03*
X233007D02*
D03*
Y50000D02*
D03*
Y56496D02*
D03*
X239503D02*
D03*
D35*
X74937Y84541D02*
D03*
D36*
X23484Y21216D02*
D03*
Y25153D02*
D03*
Y27121D02*
D03*
Y29090D02*
D03*
Y23184D02*
D03*
Y19247D02*
D03*
Y17279D02*
D03*
Y15310D02*
D03*
Y86590D02*
D03*
Y84621D02*
D03*
Y82653D02*
D03*
Y80684D02*
D03*
Y78716D02*
D03*
Y76747D02*
D03*
Y74779D02*
D03*
Y72810D02*
D03*
D37*
X109271Y72269D02*
D03*
Y86740D02*
D03*
D47*
X71000Y77000D02*
D03*
D54*
X21220Y5192D02*
D03*
Y39208D02*
D03*
Y62692D02*
D03*
Y96708D02*
D03*
D55*
X5472Y5192D02*
D03*
Y39208D02*
D03*
Y62692D02*
D03*
Y96708D02*
D03*
D59*
X245999Y56496D02*
D03*
D60*
X51100Y44900D02*
X84772D01*
X93850Y53978D01*
X41000Y55000D02*
X51100Y44900D01*
X58593Y21207D02*
X59855Y19945D01*
X51100Y21207D02*
X58593D01*
X59855Y19945D02*
X65697D01*
X51500Y16700D02*
X55300D01*
X48300D02*
X51500D01*
Y20894D01*
X51187Y21207D02*
X51500Y20894D01*
X90699Y86300D02*
X90703Y86296D01*
Y81304D02*
X90707Y81300D01*
X57270Y57712D02*
X58587D01*
X58900Y57399D01*
X90703Y81304D02*
Y86296D01*
X90707Y81300D02*
Y81418D01*
X82981Y82099D02*
X89017D01*
X90394Y81731D02*
X90707Y81418D01*
X82981Y82100D02*
X82981Y82099D01*
X89017D02*
X89385Y81731D01*
X90394D01*
X81800Y82100D02*
X82981D01*
X55969Y59013D02*
X57270Y57712D01*
X55969Y59013D02*
Y63219D01*
X56073Y63324D01*
X55393Y66610D02*
X56073Y65930D01*
Y63324D02*
Y65930D01*
X55393Y66610D02*
Y69674D01*
X55706Y69987D02*
X57144D01*
X55393Y69674D02*
X55706Y69987D01*
X57144D02*
X59800Y72643D01*
X69032Y64494D02*
Y66732D01*
Y64494D02*
X72107Y61418D01*
Y61300D02*
Y61418D01*
Y56400D02*
Y61300D01*
X72103Y56396D02*
X72107Y56400D01*
X72103Y51404D02*
Y56396D01*
X67201Y51400D02*
X72099D01*
X72103Y51404D01*
X256235Y22441D02*
Y26958D01*
X262545Y26575D02*
X267062D01*
X262545Y29921D02*
X267062D01*
X262545Y33268D02*
X267062D01*
X262545Y36614D02*
X267062D01*
X262545Y39961D02*
X267062D01*
X262545Y43307D02*
X267062D01*
X262545Y46654D02*
X267062D01*
X262545Y50000D02*
X267062D01*
X262545Y53347D02*
X267062D01*
X262545Y56693D02*
X267062D01*
X262545Y60039D02*
X267062D01*
X262545Y63386D02*
X267062D01*
X262545Y66732D02*
X267062D01*
X262545Y70079D02*
X267062D01*
X262545Y73425D02*
X267062D01*
X259582Y73042D02*
Y77559D01*
X257310Y83710D02*
Y86555D01*
X257300Y83700D02*
X257310Y83710D01*
X260921Y83700D02*
X263992Y80629D01*
X257300Y83700D02*
X260921D01*
X263992Y80629D02*
X267062Y77559D01*
X262928D02*
X262966Y77596D01*
Y79603D01*
X263992Y80629D01*
X265500Y97000D02*
X266996Y95504D01*
Y86555D02*
Y95504D01*
X245303Y86555D02*
X245616Y86242D01*
Y83784D02*
Y86242D01*
Y83784D02*
X245900Y83500D01*
X263607Y13182D02*
Y13300D01*
X255500Y5075D02*
X263607Y13182D01*
X255500Y4900D02*
Y5075D01*
X252889Y22441D02*
Y26958D01*
X163000Y18700D02*
X163006Y18706D01*
X166044D01*
X166050Y18712D01*
X172915Y18215D02*
X173000Y18130D01*
X169400Y18300D02*
X169485Y18215D01*
X172915D01*
X161262Y64838D02*
X164288D01*
X161200Y64900D02*
X161262Y64838D01*
X164288D02*
X164350Y64776D01*
X75493Y61300D02*
X75593Y61200D01*
X76921D01*
X77800Y60321D01*
Y59600D02*
Y60321D01*
X75493Y56282D02*
Y56400D01*
Y56282D02*
X75806Y55969D01*
X78231D01*
X78900Y55300D01*
X62172Y55172D02*
Y55797D01*
X63782Y57407D02*
X63900D01*
X62000Y55000D02*
X62172Y55172D01*
Y55797D02*
X63782Y57407D01*
X51951Y69500D02*
X52007Y69556D01*
X48600Y69500D02*
X51951D01*
X49400Y88000D02*
X52207D01*
X46193Y37100D02*
X46506Y36787D01*
Y34694D02*
Y36787D01*
Y34694D02*
X47500Y33700D01*
X42000Y24378D02*
Y29500D01*
X41121Y23499D02*
X42000Y24378D01*
X38500Y23499D02*
X41121D01*
X40863Y16137D02*
X42000Y15000D01*
X38500Y16201D02*
X38563Y16137D01*
X40863D01*
X42000Y10000D02*
Y15000D01*
X23484Y67102D02*
X24567D01*
X26900Y64768D01*
Y63300D02*
Y64768D01*
X27949Y92349D02*
X28000Y92400D01*
X23484Y92298D02*
X23535Y92349D01*
X27949D01*
X43431Y83269D02*
X46988D01*
X43000Y83299D02*
X43401D01*
X48102Y82154D02*
X48346D01*
X46988Y83269D02*
X48102Y82154D01*
X43401Y83299D02*
X43431Y83269D01*
X43313Y77188D02*
X44630D01*
X46428Y75390D01*
X43000Y77501D02*
X43313Y77188D01*
X46428Y73172D02*
Y75390D01*
Y73172D02*
X46600Y73000D01*
X163617Y34798D02*
X165659Y36841D01*
X163617Y32768D02*
Y34798D01*
X253900Y82600D02*
Y89100D01*
X163617Y32768D02*
X165832Y30552D01*
X165950D01*
X256198Y77596D02*
Y80302D01*
X253900Y82600D02*
X256198Y80302D01*
Y77596D02*
X256235Y77559D01*
X93850Y53978D02*
Y63050D01*
X87475Y66171D02*
X90729D01*
X93850Y63050D01*
X56400Y51400D02*
X63799D01*
X37500Y55000D02*
X41000D01*
X55500Y97000D02*
X55547Y96953D01*
Y88047D02*
Y96953D01*
Y88047D02*
X55593Y88000D01*
X78200Y51400D02*
X79100Y50500D01*
X75501Y51400D02*
X78200D01*
X98628Y84772D02*
Y85072D01*
Y84772D02*
X98800Y84600D01*
X97400Y86300D02*
X98628Y85072D01*
X94101Y86300D02*
X97400D01*
X265500Y4900D02*
X266993Y6393D01*
Y13300D01*
X248689Y86555D02*
X249002Y86868D01*
Y89859D02*
X250300Y91157D01*
X249002Y86868D02*
Y89859D01*
X250300Y91157D02*
Y91400D01*
D61*
X32212Y37100D02*
Y40488D01*
X30500Y42200D02*
X32212Y40488D01*
X54074Y37326D02*
X55867D01*
X37500Y50000D02*
X41400D01*
X55867Y37326D02*
X56000Y37193D01*
X41400Y50000D02*
X54074Y37326D01*
X56000Y37193D02*
X64835D01*
X32600Y24479D02*
X35588D01*
X32600Y15021D02*
X35449D01*
X36000Y74721D02*
X38421D01*
X39600Y75900D01*
Y76700D01*
X36000Y85559D02*
X36492D01*
X38500Y87567D01*
Y87600D01*
X32295Y59695D02*
Y62900D01*
X31000Y58400D02*
X32295Y59695D01*
X30900Y58400D02*
X31000D01*
X43668Y63023D02*
Y65943D01*
X45270Y66970D02*
X45500Y67200D01*
X44695Y66970D02*
X45270D01*
X43668Y65943D02*
X44695Y66970D01*
X64835Y37193D02*
X65697Y38055D01*
X37568Y62962D02*
X40220D01*
X34916D02*
X37568D01*
X40220D02*
X40282Y63023D01*
X34854Y62900D02*
X34916Y62962D01*
X34771Y37100D02*
X38789D01*
X42807D01*
Y39693D01*
X37500Y45000D02*
X42807Y39693D01*
D62*
X23484Y31649D02*
X37618D01*
X208059Y77559D02*
X211944D01*
X204000Y73500D02*
X208059Y77559D01*
X229000Y43508D02*
X233003D01*
X239499Y39497D02*
Y43500D01*
X246003D02*
X250006D01*
X246003Y49996D02*
X250006D01*
X246003Y56492D02*
X250006D01*
X239507Y56500D02*
Y60503D01*
X266500Y21879D02*
X267062Y22441D01*
X266500Y18100D02*
Y21879D01*
X155650Y33858D02*
X155700Y33909D01*
Y40900D01*
X211369Y23016D02*
X211944Y22441D01*
X207108Y24200D02*
X208293Y23016D01*
X211369D01*
X207000Y24200D02*
X207108D01*
X155591Y83800D02*
X155650Y83858D01*
X147500Y83800D02*
X155591D01*
X124300Y83808D02*
X124350Y83858D01*
X124300Y78100D02*
Y83808D01*
X94096Y78303D02*
X94100Y78300D01*
X94093Y81300D02*
X94096Y81296D01*
Y78303D02*
Y81296D01*
X87391Y61071D02*
Y61189D01*
Y61071D02*
X87454Y61007D01*
X90193D01*
X90900Y60300D01*
X87423Y55971D02*
Y56089D01*
Y55971D02*
X87485Y55907D01*
X89592D01*
X90600Y54900D01*
X124200Y34009D02*
X124350Y33858D01*
X124200Y34009D02*
Y40900D01*
X90303Y29000D02*
Y30655D01*
X92748Y33100D01*
X98000D01*
X51218Y24593D02*
Y27518D01*
X52700Y29000D01*
X49850D02*
X53600D01*
X57350Y28892D02*
Y29000D01*
X56000Y24593D02*
X56118D01*
X56181Y27723D02*
X57350Y28892D01*
X56118Y24593D02*
X56181Y24656D01*
Y27723D01*
X53600Y29000D02*
X57350D01*
X65697D01*
X57350D02*
Y29108D01*
X56107Y30351D02*
Y33744D01*
X56000Y33807D02*
X56044D01*
X56107Y30351D02*
X57350Y29108D01*
X56044Y33807D02*
X56107Y33744D01*
X23484Y9602D02*
X29098D01*
X29100Y9600D01*
X23484Y34798D02*
X24567D01*
X26969Y37200D01*
X27800D01*
X229000Y50004D02*
X233003D01*
Y56500D02*
X233007Y56496D01*
X229000Y56500D02*
X233003D01*
X165659Y36841D02*
X178819Y23681D01*
X152500Y50000D02*
X165659Y36841D01*
X178819Y22264D02*
Y23681D01*
X178882Y22201D02*
X179000D01*
X178819Y22264D02*
X178882Y22201D01*
X142500Y50000D02*
X152500D01*
X23484Y70251D02*
X27949D01*
X31000Y67200D01*
X36397D02*
X37568Y66028D01*
Y62962D02*
Y66028D01*
X31000Y67200D02*
X36397D01*
X37500Y62893D02*
X37568Y62962D01*
X37500Y55000D02*
Y62893D01*
X16800Y72572D02*
X18939Y70432D01*
X16800Y72572D02*
Y87300D01*
X18649Y89149D01*
X23303Y70432D02*
X23484Y70251D01*
X18939Y70432D02*
X23303D01*
X18649Y89149D02*
X23484D01*
X17372Y31649D02*
X23484D01*
X16200Y13923D02*
X17372Y12751D01*
X16200Y13923D02*
Y30477D01*
X17372Y31649D01*
Y12751D02*
X23484D01*
X38789Y32820D02*
Y37100D01*
X37618Y31649D02*
X38789Y32820D01*
X179000Y77799D02*
X179000Y77800D01*
X182700D01*
X182700Y77800D01*
X255500Y97000D02*
Y97000D01*
X263610Y86555D02*
Y88890D01*
X255500Y97000D02*
X263610Y88890D01*
D63*
X56262Y76051D02*
X56616Y76404D01*
X56262Y75317D02*
Y76051D01*
X55501Y74556D02*
X56262Y75317D01*
X56616Y76404D02*
X59230D01*
X60320Y75314D01*
X61905D02*
X62188Y75032D01*
X60320Y75314D02*
X61905D01*
X62188Y75032D02*
X63459D01*
X62188Y77000D02*
X63459D01*
X56262Y78161D02*
Y78894D01*
X55501Y79656D02*
X56262Y78894D01*
X60901Y76717D02*
X61905D01*
X62188Y77000D01*
X59811Y77807D02*
X60901Y76717D01*
X56262Y78161D02*
X56616Y77807D01*
X59811D01*
X188700Y45300D02*
X191998D01*
X188700Y51500D02*
X191998D01*
Y45300D02*
X192498Y44800D01*
X191998Y51500D02*
X192498Y52000D01*
X195899Y44800D02*
Y47272D01*
X196252Y47625D01*
X209572Y46654D02*
X211944D01*
X208600Y47625D02*
X209572Y46654D01*
X196252Y47625D02*
X208600D01*
X42753Y21597D02*
X43652Y22496D01*
X44005D01*
X40400Y21597D02*
X42753D01*
X39303Y20500D02*
X40400Y21597D01*
X33707Y20500D02*
X39303D01*
X33353Y20853D02*
Y21533D01*
X32966Y21921D02*
X33353Y21533D01*
Y20853D02*
X33707Y20500D01*
X32600Y21921D02*
X32966D01*
X20353Y21216D02*
X23484D01*
X20000Y21569D02*
X20353Y21216D01*
X20000Y21569D02*
Y24500D01*
X20653Y25153D01*
X23484D01*
X26847D01*
X30079Y21921D01*
X32600D01*
X195899Y49382D02*
Y52000D01*
Y49382D02*
X196252Y49028D01*
X209500Y50000D02*
X211944D01*
X208528Y49028D02*
X209500Y50000D01*
X196252Y49028D02*
X208528D01*
X36891Y80709D02*
X37690D01*
X36000Y81600D02*
X36891Y80709D01*
X33500Y80500D02*
X33809Y80191D01*
X34488D01*
X37690Y80709D02*
X38034Y80365D01*
X34488Y80191D02*
X36000Y78680D01*
X27979Y77280D02*
X36000D01*
X27447Y76747D02*
X27979Y77280D01*
X23484Y76747D02*
X27447D01*
X20353D02*
X23484D01*
X26838Y79407D02*
Y82653D01*
X26147Y78716D02*
X26838Y79407D01*
X23484Y78716D02*
X26147D01*
X26838Y82653D02*
X30191D01*
X23484D02*
X26838D01*
X30191D02*
X30539Y83000D01*
X36000D01*
X20584Y80684D02*
X23484D01*
X20000Y80100D02*
X20584Y80684D01*
X20000Y77100D02*
Y80100D01*
Y77100D02*
X20353Y76747D01*
X36000Y77280D02*
Y78680D01*
Y81600D02*
Y83000D01*
X51544Y75112D02*
X52099Y74556D01*
X49300Y75112D02*
X51544D01*
X49300Y79100D02*
X51544D01*
X52099Y79656D01*
X27753Y19247D02*
Y21077D01*
X25934Y22895D02*
X27753Y21077D01*
X23773Y22895D02*
X25934D01*
X23484Y23184D02*
X23773Y22895D01*
X32520Y17500D02*
X32600Y17580D01*
X29500Y17500D02*
X32520D01*
X27753Y19247D02*
X29500Y17500D01*
X23484Y19247D02*
X27753D01*
X32600Y17580D02*
X32991D01*
X33379Y17967D02*
Y18744D01*
X32991Y17580D02*
X33379Y17967D01*
X33732Y19097D02*
X39884D01*
X33379Y18744D02*
X33732Y19097D01*
X39884D02*
X40981Y20194D01*
X42748D02*
X43647Y19296D01*
X40981Y20194D02*
X42748D01*
X43647Y19296D02*
X44000D01*
X65500Y4900D02*
X69445D01*
X69798Y5253D01*
Y10204D01*
X76097Y16502D01*
X75199Y22647D02*
X76097Y21748D01*
Y16502D02*
Y21748D01*
X75199Y22647D02*
Y23000D01*
X71201Y5253D02*
X71555Y4900D01*
X75500D01*
X71201Y5253D02*
Y9623D01*
X77500Y15921D02*
Y21748D01*
X71201Y9623D02*
X77500Y15921D01*
Y21748D02*
X78399Y22647D01*
Y23000D01*
X199301Y44800D02*
X203200D01*
X199301Y52000D02*
X203200D01*
D64*
X79671Y80937D02*
X80834Y82100D01*
X78541Y80937D02*
X79671D01*
X80834Y82100D02*
X81800D01*
X63186Y72790D02*
X63459Y73063D01*
X59948Y72790D02*
X63186D01*
X59800Y72643D02*
X59948Y72790D01*
X71000Y84541D02*
Y88200D01*
X70200Y89000D02*
X71000Y88200D01*
X74932Y64088D02*
X77052D01*
X72420Y66600D02*
X74932Y64088D01*
X77052D02*
X77320Y63820D01*
X71000Y68020D02*
Y69459D01*
Y68020D02*
X72420Y66600D01*
D65*
X69032Y66732D02*
Y69459D01*
D66*
X35500Y4900D02*
D03*
X255500D02*
D03*
X45500Y97000D02*
D03*
X245500D02*
D03*
X215500Y4900D02*
D03*
X155500D02*
D03*
X45500D02*
D03*
X75500Y97000D02*
D03*
X195500Y4900D02*
D03*
X125500D02*
D03*
X105500Y97000D02*
D03*
X205500D02*
D03*
X165500Y4900D02*
D03*
X65500Y97000D02*
D03*
X235500D02*
D03*
X135500Y4900D02*
D03*
X55500D02*
D03*
X95500Y97000D02*
D03*
X225500Y4900D02*
D03*
X105500D02*
D03*
X195500Y97000D02*
D03*
X225500D02*
D03*
X175500Y4900D02*
D03*
X85500D02*
D03*
X235500D02*
D03*
X115500D02*
D03*
X85500Y97000D02*
D03*
X245500Y4900D02*
D03*
X185500D02*
D03*
X95500D02*
D03*
X215500Y97000D02*
D03*
X65500Y4900D02*
D03*
X75500D02*
D03*
X145500D02*
D03*
X205500D02*
D03*
X35500Y97000D02*
D03*
X55500D02*
D03*
X115500D02*
D03*
X125500D02*
D03*
X135500D02*
D03*
X145500D02*
D03*
X155500D02*
D03*
X165500D02*
D03*
X175500D02*
D03*
X185500D02*
D03*
X255500D02*
D03*
D67*
X265500D02*
D03*
Y4900D02*
D03*
D68*
X37500Y55000D02*
D03*
D69*
Y50000D02*
D03*
Y45000D02*
D03*
X142500Y50000D02*
D03*
D70*
X137500D02*
D03*
D71*
X182200Y61900D02*
D03*
X186500Y62500D02*
D03*
X56073Y63324D02*
D03*
X84675Y84075D02*
D03*
X256235Y26958D02*
D03*
X204000Y73500D02*
D03*
X262545Y26575D02*
D03*
Y29921D02*
D03*
Y33268D02*
D03*
Y36614D02*
D03*
Y39961D02*
D03*
Y43307D02*
D03*
Y46654D02*
D03*
Y50000D02*
D03*
Y53347D02*
D03*
Y56693D02*
D03*
Y60039D02*
D03*
Y63386D02*
D03*
Y66732D02*
D03*
Y70079D02*
D03*
Y73425D02*
D03*
X259582Y73042D02*
D03*
X229000Y56500D02*
D03*
Y50004D02*
D03*
Y43508D02*
D03*
X239499Y39497D02*
D03*
X250006Y43500D02*
D03*
Y49996D02*
D03*
Y56492D02*
D03*
X239507Y60503D02*
D03*
X242800Y53300D02*
D03*
X242700Y46700D02*
D03*
X236200D02*
D03*
X236300Y53200D02*
D03*
X257300Y83700D02*
D03*
X245900Y83500D02*
D03*
X266500Y18100D02*
D03*
X155700Y40900D02*
D03*
X252889Y26958D02*
D03*
X207000Y24200D02*
D03*
X163000Y18700D02*
D03*
X169400Y18300D02*
D03*
X147500Y83800D02*
D03*
X124300Y78100D02*
D03*
X161200Y64900D02*
D03*
X94100Y78300D02*
D03*
X90900Y60300D02*
D03*
X90600Y54900D02*
D03*
X77800Y59600D02*
D03*
X78900Y55300D02*
D03*
X62000Y55000D02*
D03*
X48600Y69500D02*
D03*
X49400Y88000D02*
D03*
X70200Y89000D02*
D03*
X73200Y79300D02*
D03*
X68800Y79200D02*
D03*
X73200Y74800D02*
D03*
X68600D02*
D03*
X124200Y40900D02*
D03*
X98000Y33100D02*
D03*
X101900D02*
D03*
X105800D02*
D03*
X109700D02*
D03*
X113600D02*
D03*
Y40700D02*
D03*
X109700D02*
D03*
X105800D02*
D03*
X101900D02*
D03*
X98000D02*
D03*
X113500Y47400D02*
D03*
X109600D02*
D03*
X105700D02*
D03*
X101800D02*
D03*
X97900D02*
D03*
X57350Y29000D02*
D03*
X53600D02*
D03*
X49850D02*
D03*
X29100Y9600D02*
D03*
X35588Y24479D02*
D03*
X35449Y15021D02*
D03*
X47500Y33700D02*
D03*
X27800Y37200D02*
D03*
X30500Y42200D02*
D03*
X73795Y20124D02*
D03*
X80000D02*
D03*
X206398Y52100D02*
D03*
Y45000D02*
D03*
X42000Y29500D02*
D03*
Y10000D02*
D03*
X185500Y51500D02*
D03*
Y45100D02*
D03*
X39600Y76700D02*
D03*
X38500Y87600D02*
D03*
X26900Y63300D02*
D03*
X31000Y58400D02*
D03*
X28000Y92400D02*
D03*
X48346Y82154D02*
D03*
X46600Y73000D02*
D03*
X45500Y67200D02*
D03*
X77320Y63820D02*
D03*
X133200Y61100D02*
D03*
X78900Y89800D02*
D03*
X98700Y61800D02*
D03*
X156800Y57900D02*
D03*
X188700Y51500D02*
D03*
Y45300D02*
D03*
X44005Y22496D02*
D03*
X163617Y32883D02*
D03*
X51500Y16700D02*
D03*
X48300D02*
D03*
X55300D02*
D03*
X56400Y51400D02*
D03*
X38034Y80365D02*
D03*
X33500Y80500D02*
D03*
X49300Y75112D02*
D03*
Y79100D02*
D03*
X182500Y36500D02*
D03*
X176059Y37259D02*
D03*
X188100Y30500D02*
D03*
X147691Y40809D02*
D03*
X44000Y19296D02*
D03*
X78399Y23000D02*
D03*
X75199D02*
D03*
X203200Y44800D02*
D03*
Y52000D02*
D03*
X172900Y54800D02*
D03*
X191600Y62000D02*
D03*
X79100Y50500D02*
D03*
X98800Y84600D02*
D03*
X182700Y77800D02*
D03*
X177700Y57600D02*
D03*
X197500Y64700D02*
D03*
X191200Y68700D02*
D03*
X198000Y71900D02*
D03*
X167600Y80000D02*
D03*
X194459Y38541D02*
D03*
X190500Y38400D02*
D03*
X195000Y30100D02*
D03*
X219400Y28500D02*
D03*
X246196Y26958D02*
D03*
X239503D02*
D03*
X232810D02*
D03*
X242849Y33497D02*
D03*
X226117Y26958D02*
D03*
X250300Y91400D02*
D03*
X253900Y89100D02*
D03*
X229464Y73042D02*
D03*
X236157D02*
D03*
X222771D02*
D03*
X216078D02*
D03*
X246196Y66503D02*
D03*
X216078Y33497D02*
D03*
X249542D02*
D03*
X236157D02*
D03*
X229464D02*
D03*
X222771D02*
D03*
X219424Y66503D02*
D03*
X226117D02*
D03*
X232810D02*
D03*
X239503D02*
D03*
X242849Y73042D02*
D03*
X249500Y73000D02*
D03*
M02*
