G04*
G04 #@! TF.GenerationSoftware,Altium Limited,Altium Designer,25.8.1 (18)*
G04*
G04 Layer_Physical_Order=4*
G04 Layer_Color=16711680*
%FSLAX25Y25*%
%MOIN*%
G70*
G04*
G04 #@! TF.SameCoordinates,32EA78B9-D10A-4EA7-89C3-F5576A3C80F4*
G04*
G04*
G04 #@! TF.FilePolarity,Positive*
G04*
G01*
G75*
%ADD12C,0.00600*%
G04:AMPARAMS|DCode=54|XSize=39.37mil|YSize=70.87mil|CornerRadius=19.68mil|HoleSize=0mil|Usage=FLASHONLY|Rotation=270.000|XOffset=0mil|YOffset=0mil|HoleType=Round|Shape=RoundedRectangle|*
%AMROUNDEDRECTD54*
21,1,0.03937,0.03150,0,0,270.0*
21,1,0.00000,0.07087,0,0,270.0*
1,1,0.03937,-0.01575,0.00000*
1,1,0.03937,-0.01575,0.00000*
1,1,0.03937,0.01575,0.00000*
1,1,0.03937,0.01575,0.00000*
%
%ADD54ROUNDEDRECTD54*%
G04:AMPARAMS|DCode=55|XSize=39.37mil|YSize=86.61mil|CornerRadius=19.68mil|HoleSize=0mil|Usage=FLASHONLY|Rotation=270.000|XOffset=0mil|YOffset=0mil|HoleType=Round|Shape=RoundedRectangle|*
%AMROUNDEDRECTD55*
21,1,0.03937,0.04724,0,0,270.0*
21,1,0.00000,0.08661,0,0,270.0*
1,1,0.03937,-0.02362,0.00000*
1,1,0.03937,-0.02362,0.00000*
1,1,0.03937,0.02362,0.00000*
1,1,0.03937,0.02362,0.00000*
%
%ADD55ROUNDEDRECTD55*%
%ADD63C,0.00603*%
%ADD66C,0.06400*%
%ADD67R,0.06400X0.06400*%
%ADD68R,0.04000X0.04000*%
%ADD69C,0.04000*%
%ADD70R,0.04000X0.04000*%
%ADD71C,0.02400*%
%ADD72C,0.04000*%
D12*
X157715Y74600D02*
X169815Y62500D01*
X181221D01*
X181821Y61900D01*
X182200D01*
X132932Y60832D02*
X133200Y61100D01*
X116011Y60832D02*
X132932D01*
X87043Y89800D02*
X116011Y60832D01*
X78900Y89800D02*
X87043D01*
X98700Y61800D02*
X102582Y57918D01*
X156782D02*
X156800Y57900D01*
X102582Y57918D02*
X156782D01*
X134800Y24100D02*
X154300Y43600D01*
X173537D02*
X180369Y36768D01*
X154300Y43600D02*
X173537D01*
X94800Y55386D02*
Y73500D01*
X90900Y77400D02*
Y82800D01*
Y77400D02*
X94800Y73500D01*
X85900Y87800D02*
X90900Y82800D01*
X80718Y87800D02*
X85900D01*
X77486Y87100D02*
X80018D01*
X80718Y87800D01*
X68619Y95967D02*
X77486Y87100D01*
X95386Y54800D02*
X172900D01*
X94800Y55386D02*
X95386Y54800D01*
X66533Y95967D02*
X68619D01*
X65500Y97000D02*
X66533Y95967D01*
X80300Y92200D02*
X87472D01*
X75500Y97000D02*
X80300Y92200D01*
X180369Y36768D02*
X182232D01*
X152482Y45600D02*
X174600D01*
X178900Y41300D02*
X195700D01*
X174600Y45600D02*
X178900Y41300D01*
X182232Y36768D02*
X182500Y36500D01*
X162572Y41500D02*
X171818D01*
X176059Y37259D01*
X195700Y41300D02*
X200500Y36500D01*
X184753Y33800D02*
X186153Y35200D01*
X188775D01*
X169728Y39500D02*
X175428Y33800D01*
X188775Y35200D02*
X190232Y36658D01*
X175428Y33800D02*
X184753D01*
X186982Y33200D02*
X189603D01*
X192232Y35829D01*
X168900Y37500D02*
X174600Y31800D01*
X185582D01*
X186982Y33200D01*
X187021Y29800D02*
X187721Y30500D01*
X188100D01*
X159543Y29800D02*
X187021D01*
X245500Y4900D02*
X246385D01*
X259600Y18115D01*
X147691Y40809D02*
X152482Y45600D01*
X259600Y18115D02*
Y29800D01*
X252900Y36500D02*
X259600Y29800D01*
X200500Y36500D02*
X252900D01*
X191253Y62000D02*
X191600D01*
X188053Y65200D02*
X191253Y62000D01*
X169943Y65200D02*
X188053D01*
X105815Y88200D02*
X107815Y86200D01*
X87472Y92200D02*
X91472Y88200D01*
X105815D01*
X142386Y72600D02*
X149200D01*
X161300Y60500D02*
X174800D01*
X127886Y82200D02*
X132786D01*
X142386Y72600D01*
X149200D02*
X161300Y60500D01*
X174800D02*
X177700Y57600D01*
X107815Y86200D02*
X118013D01*
X120513Y83700D01*
X126386D01*
X127886Y82200D01*
X92300Y90200D02*
X106643D01*
X85500Y97000D02*
X92300Y90200D01*
X106643D02*
X108643Y88200D01*
X118842D01*
X121342Y85700D01*
X127215D01*
X128715Y84200D01*
X133615D01*
X143215Y74600D01*
X157715D01*
X158543Y76600D02*
X169943Y65200D01*
X144043Y76600D02*
X158543D01*
X134443Y86200D02*
X144043Y76600D01*
X129543Y86200D02*
X134443D01*
X119670Y90200D02*
X122170Y87700D01*
X128043D02*
X129543Y86200D01*
X122170Y87700D02*
X128043D01*
X109472Y90200D02*
X119670D01*
X95500Y97000D02*
X100300Y92200D01*
X107472D02*
X109472Y90200D01*
X100300Y92200D02*
X107472D01*
X122699Y90000D02*
X128572D01*
X105500Y97000D02*
X110300Y92200D01*
X120499D01*
X122699Y90000D01*
X128572D02*
X130372Y88200D01*
X135272D02*
X144572Y78900D01*
X130372Y88200D02*
X135272D01*
X159072Y78900D02*
X170772Y67200D01*
X144572Y78900D02*
X159072D01*
X170772Y67200D02*
X188882D01*
X191382Y64700D01*
X197500D01*
X190914Y68700D02*
X191200D01*
X189914Y69700D02*
X190914Y68700D01*
X159900Y80900D02*
X171100Y69700D01*
X189914D01*
X145400Y80900D02*
X159900D01*
X136100Y90200D02*
X145400Y80900D01*
X131200Y90200D02*
X136100D01*
X119337Y96190D02*
X123527Y92000D01*
X129400D01*
X131200Y90200D01*
X115500Y97000D02*
X116310Y96190D01*
X119337D01*
X148643Y88200D02*
X155500D01*
X171800Y71900D02*
X198000D01*
X155500Y88200D02*
X171800Y71900D01*
X139672Y90000D02*
X146843D01*
X128533Y95967D02*
X132300Y92200D01*
X137472D01*
X139672Y90000D01*
X146843D02*
X148643Y88200D01*
X125500Y97000D02*
X126533Y95967D01*
X128533D01*
X167600Y80000D02*
X169700Y82100D01*
X183430D02*
X186129Y79400D01*
X169700Y82100D02*
X183430D01*
X193729Y78300D02*
X201573D01*
X186129Y79400D02*
X192630D01*
X193729Y78300D01*
X201573D02*
X203673Y76200D01*
X216724Y65385D02*
X218409Y63700D01*
X246196Y64286D02*
Y66503D01*
X245610Y63700D02*
X246196Y64286D01*
X218409Y63700D02*
X245610D01*
X203673Y76200D02*
X210801D01*
X213378Y71924D02*
Y73623D01*
Y71924D02*
X216724Y68577D01*
X210801Y76200D02*
X213378Y73623D01*
X216724Y65385D02*
Y68577D01*
X186758Y81600D02*
X193258D01*
X194558Y80300D01*
X202401D01*
X184058Y84300D02*
X186758Y81600D01*
X202401Y80300D02*
X204465Y78236D01*
X184886Y86300D02*
X187486Y83700D01*
X193986D01*
X195386Y82300D01*
X203229D02*
X205294Y80236D01*
X195386Y82300D02*
X203229D01*
X185715Y88300D02*
X188115Y85900D01*
X194615D01*
X196215Y84300D01*
X204058D01*
X206122Y82236D01*
X195243Y88100D02*
X197043Y86300D01*
X186543Y90300D02*
X188743Y88100D01*
X195243D01*
X197043Y86300D02*
X204886D01*
X206950Y84236D01*
X189572Y90100D02*
X196072D01*
X187372Y92300D02*
X189572Y90100D01*
X196072D02*
X197872Y88300D01*
X205715D02*
X207779Y86236D01*
X197872Y88300D02*
X205715D01*
X135500Y97000D02*
X140500Y92000D01*
X147672D02*
X149372Y90300D01*
X140500Y92000D02*
X147672D01*
X165715Y88300D02*
X167915Y86100D01*
X158543Y88300D02*
X165715D01*
X156643Y90200D02*
X158543Y88300D01*
X167915Y86100D02*
X175086D01*
X176886Y84300D02*
X184058D01*
X175086Y86100D02*
X176886Y84300D01*
X211594Y78236D02*
X215523Y74306D01*
X204465Y78236D02*
X211594D01*
X216078Y73042D02*
Y73421D01*
X215523Y73976D02*
Y74306D01*
Y73976D02*
X216078Y73421D01*
X149500Y90200D02*
X156643D01*
X149400Y90300D02*
X149500Y90200D01*
X149372Y90300D02*
X149400D01*
X45500Y4900D02*
X52600Y12000D01*
X87243D01*
X89043Y13800D01*
X97915D02*
X99915Y15800D01*
X89043Y13800D02*
X97915D01*
X104700Y15800D02*
X107100Y18200D01*
X99915Y15800D02*
X104700D01*
X117900Y18200D02*
X119800Y20100D01*
X126700D01*
X107100Y18200D02*
X117900D01*
X130630Y23900D02*
X130830Y24100D01*
X134800D01*
X126700Y20100D02*
X130500Y23900D01*
X130630D01*
X98743Y11800D02*
X100743Y13800D01*
X89872Y11800D02*
X98743D01*
X55500Y4900D02*
X60600Y10000D01*
X88072D01*
X89872Y11800D01*
X100743Y13800D02*
X105643D01*
X107843Y16000D01*
X118586D01*
X120586Y18000D01*
X127558D01*
X131658Y22100D01*
X143172D01*
X162572Y41500D01*
X192232Y35829D02*
X193792Y37389D01*
X192232Y35829D02*
Y35829D01*
X194459Y38162D02*
Y38541D01*
X193792Y37495D02*
X194459Y38162D01*
X193792Y37389D02*
Y37495D01*
X190232Y38132D02*
X190500Y38400D01*
X190232Y36658D02*
Y38132D01*
X163400Y39500D02*
X169728D01*
X164415Y37500D02*
X168900D01*
X132486Y20100D02*
X144000D01*
X163400Y39500D01*
X145015Y18100D02*
X164415Y37500D01*
X90700Y9800D02*
X99572D01*
X85500Y4900D02*
X85800D01*
X90700Y9800D01*
X99572D02*
X101372Y11600D01*
X101400D01*
X101600Y11800D02*
X106472D01*
X101400Y11600D02*
X101600Y11800D01*
X108672Y14000D02*
X119415D01*
X121415Y16000D01*
X106472Y11800D02*
X108672Y14000D01*
X128386Y16000D02*
X132486Y20100D01*
X121415Y16000D02*
X128386D01*
X95500Y4900D02*
X96533Y5933D01*
X98533D02*
X102200Y9600D01*
X107100D01*
X96533Y5933D02*
X98533D01*
X107100Y9600D02*
X109500Y12000D01*
X120243D01*
X122243Y14000D01*
X129215D01*
X133315Y18100D01*
X145015D01*
X105500Y4900D02*
X110600Y10000D01*
X121072D01*
X123072Y12000D01*
X130043D02*
X134143Y16100D01*
X123072Y12000D02*
X130043D01*
X145843Y16100D02*
X159543Y29800D01*
X134143Y16100D02*
X145843D01*
X115500Y4900D02*
X116173Y5573D01*
X119473D02*
X123900Y10000D01*
X130872D01*
X116173Y5573D02*
X119473D01*
X130872Y10000D02*
X134972Y14100D01*
X146672D01*
X160372Y27800D01*
X192700D01*
X195000Y30100D01*
X214000Y28800D02*
X217600Y25200D01*
X195100Y18400D02*
X205500Y28800D01*
X214000D01*
X162000Y23200D02*
X197072D01*
X140400Y9800D02*
X148600D01*
X162000Y23200D01*
X197072D02*
X204772Y30900D01*
X135800Y12100D02*
X147500D01*
X160900Y25500D02*
X196543D01*
X147500Y12100D02*
X160900Y25500D01*
X196543D02*
X204540Y33497D01*
X204772Y30900D02*
X214728D01*
X217128Y28500D02*
X219400D01*
X214728Y30900D02*
X217128Y28500D01*
X217600Y25200D02*
X220900D01*
X222771Y27071D01*
Y33497D01*
X204540D02*
X216078D01*
X125500Y4900D02*
X126273Y5673D01*
X129373D02*
X135800Y12100D01*
X126273Y5673D02*
X129373D01*
X135500Y4900D02*
X140400Y9800D01*
X153400Y9600D02*
X157200D01*
X145500Y4900D02*
X146223Y5623D01*
X149423D01*
X153400Y9600D01*
X159300Y11700D02*
X169300D01*
X157200Y9600D02*
X159300Y11700D01*
X171500Y13900D02*
X178443D01*
X169300Y11700D02*
X171500Y13900D01*
X178443D02*
X180643Y16100D01*
X187700D01*
X190000Y18400D01*
X195100D01*
X155500Y4900D02*
X160200Y9600D01*
X172400Y11800D02*
X179172D01*
X160200Y9600D02*
X170200D01*
X172400Y11800D01*
X179172D02*
X181472Y14100D01*
X188572D01*
X190672Y16200D01*
X195843D01*
X198343Y18700D01*
X205672D01*
X207872Y20900D01*
X215843D01*
X217443Y22500D01*
X221915D01*
X226117Y26702D01*
Y26958D01*
X222743Y20500D02*
X226043Y23800D01*
X216672Y18900D02*
X218272Y20500D01*
X226043Y23800D02*
X228878D01*
X218272Y20500D02*
X222743D01*
X208700Y18900D02*
X216672D01*
X206500Y16700D02*
X208700Y18900D01*
X199172Y16700D02*
X206500D01*
X196672Y14200D02*
X199172Y16700D01*
X191500Y14200D02*
X196672D01*
X189400Y12100D02*
X191500Y14200D01*
X180000Y9800D02*
X182300Y12100D01*
X173300Y9800D02*
X180000D01*
X182300Y12100D02*
X189400D01*
X169273Y5773D02*
X173300Y9800D01*
X166373Y5773D02*
X169273D01*
X165500Y4900D02*
X166373Y5773D01*
X228878Y23800D02*
X229464Y24386D01*
Y33497D01*
X219100Y18500D02*
X223572D01*
X226872Y21800D01*
X217500Y16900D02*
X219100Y18500D01*
X209800Y16900D02*
X217500D01*
X207300Y14400D02*
X209800Y16900D01*
X199700Y14400D02*
X207300D01*
X197500Y12200D02*
X199700Y14400D01*
X190200Y9900D02*
X192500Y12200D01*
X197500D01*
X183600Y9900D02*
X190200D01*
X179373Y5673D02*
X183600Y9900D01*
X176273Y5673D02*
X179373D01*
X175500Y4900D02*
X176273Y5673D01*
X226872Y21800D02*
X232220D01*
X232810Y22390D01*
Y26958D01*
X225200Y14200D02*
X228800Y17800D01*
X238817D01*
X220100Y10200D02*
X221900Y12000D01*
X219800Y16300D02*
X224200D01*
X229700Y15500D02*
X242264D01*
X220800Y14200D02*
X225200D01*
X218200Y14700D02*
X219800Y16300D01*
X226200Y12000D02*
X229700Y15500D01*
X221900Y12000D02*
X226200D01*
X224200Y16300D02*
X227700Y19800D01*
X219100Y12500D02*
X220800Y14200D01*
X227700Y19800D02*
X235171D01*
X219273Y5773D02*
X223300Y9800D01*
X227000D01*
X210900Y14700D02*
X218200D01*
X211800Y12500D02*
X219100D01*
X227000Y9800D02*
X230400Y13200D01*
X213500Y10200D02*
X220100D01*
X208400Y12200D02*
X210900Y14700D01*
X209173Y5873D02*
X213500Y10200D01*
X199273Y5773D02*
X203500Y10000D01*
X200800Y12200D02*
X208400D01*
X203500Y10000D02*
X209300D01*
X215500Y4900D02*
X216373Y5773D01*
X209300Y10000D02*
X211800Y12500D01*
X216373Y5773D02*
X219273D01*
X230400Y13200D02*
X245610D01*
X230900Y10300D02*
X248957D01*
X225500Y4900D02*
X230900Y10300D01*
X238817Y17800D02*
X239503Y18486D01*
X242264Y15500D02*
X242849Y16086D01*
X245610Y13200D02*
X246196Y13786D01*
X236157Y20786D02*
Y33497D01*
X235171Y19800D02*
X236157Y20786D01*
X239503Y18486D02*
Y26958D01*
X198500Y9900D02*
X200800Y12200D01*
X193600Y9900D02*
X198500D01*
X189373Y5673D02*
X193600Y9900D01*
X186273Y5673D02*
X189373D01*
X185500Y4900D02*
X186273Y5673D01*
X195500Y4900D02*
X196373Y5773D01*
X199273D01*
X248957Y10300D02*
X249542Y10886D01*
X206473Y5873D02*
X209173D01*
X205500Y4900D02*
X206473Y5873D01*
X242849Y16086D02*
Y33497D01*
X246196Y13786D02*
Y26958D01*
X249542Y10886D02*
Y33497D01*
X198700Y90300D02*
X206543D01*
X190200Y92300D02*
X196700D01*
X198700Y90300D01*
X235500Y97000D02*
X236500Y96000D01*
X239500D01*
X249500Y86000D01*
Y73000D02*
Y86000D01*
X219372Y90300D02*
X238917D01*
X242849Y73042D02*
Y89254D01*
X220200Y92300D02*
X239804D01*
X239503Y66503D02*
Y89714D01*
X239804Y92300D02*
X242849Y89254D01*
X238917Y90300D02*
X239503Y89714D01*
X219424Y66503D02*
Y77563D01*
X214509Y78149D02*
X218839D01*
X219424Y77563D01*
X212422Y80236D02*
X214509Y78149D01*
X217372Y92300D02*
X219372Y90300D01*
X215500Y97000D02*
X220200Y92300D01*
X218500Y88300D02*
X235200D01*
X216500Y90300D02*
X218500Y88300D01*
X217672Y86300D02*
X232224D01*
X216843Y84300D02*
X228878D01*
X215186Y80300D02*
X222185D01*
X214907Y86236D02*
X216843Y84300D01*
X215736Y88236D02*
X217672Y86300D01*
X214079Y84236D02*
X216015Y82300D01*
X213250Y82236D02*
X215186Y80300D01*
X216015Y82300D02*
X225531D01*
X222771Y73042D02*
Y79714D01*
X222185Y80300D02*
X222771Y79714D01*
X226117Y66503D02*
Y81714D01*
X225531Y82300D02*
X226117Y81714D01*
X228878Y84300D02*
X229464Y83714D01*
Y73042D02*
Y83714D01*
X232224Y86300D02*
X232810Y85714D01*
Y66503D02*
Y85714D01*
X236157Y73042D02*
Y87344D01*
X235200Y88300D02*
X236157Y87344D01*
X209064Y88236D02*
X215736D01*
X206950Y84236D02*
X214079D01*
X205294Y80236D02*
X212422D01*
X185500Y97000D02*
X190200Y92300D01*
X205500Y97000D02*
X210200Y92300D01*
X200200D02*
X207372D01*
X209000Y88300D02*
X209064Y88236D01*
X207779Y86236D02*
X214907D01*
X210200Y92300D02*
X217372D01*
X206543Y90300D02*
X208543Y88300D01*
X209372Y90300D02*
X216500D01*
X207372Y92300D02*
X209372Y90300D01*
X206122Y82236D02*
X213250D01*
X208543Y88300D02*
X209000D01*
X145500Y97000D02*
X150200Y92300D01*
X157372D01*
X159371Y90300D01*
X166543D01*
X168543Y88300D01*
X175715D01*
X177715Y86300D01*
X184886D01*
X155500Y97000D02*
X160200Y92300D01*
X167371D01*
X169372Y90300D01*
X176543D01*
X178543Y88300D01*
X185715D01*
X165500Y97000D02*
X170200Y92300D01*
X177372D01*
X179372Y90300D01*
X186543D01*
X175500Y97000D02*
X180200Y92300D01*
X187372D01*
X195500Y97000D02*
X200200Y92300D01*
D54*
X21220Y5192D02*
D03*
Y39208D02*
D03*
Y62692D02*
D03*
Y96708D02*
D03*
D55*
X5472Y5192D02*
D03*
Y39208D02*
D03*
Y62692D02*
D03*
Y96708D02*
D03*
D63*
X149516Y52000D02*
X174000D01*
X79919Y28500D02*
X126016D01*
X150097Y50597D02*
X174581D01*
X80500Y27097D02*
X126597D01*
X126016Y28500D02*
X149516Y52000D01*
X126597Y27097D02*
X150097Y50597D01*
X188700Y49455D02*
Y51500D01*
X188347Y49101D02*
X188700Y49455D01*
X150617Y49101D02*
X188347D01*
Y47699D02*
X188700Y47345D01*
X126016Y24500D02*
X150617Y49101D01*
X188700Y45300D02*
Y47345D01*
X151198Y47699D02*
X188347D01*
X126597Y23097D02*
X151198Y47699D01*
X92928Y23097D02*
X126597D01*
X84831Y15000D02*
X92928Y23097D01*
X60255Y15000D02*
X84831D01*
X55063Y20192D02*
X60255Y15000D01*
X45252Y20192D02*
X55063D01*
X44355Y19296D02*
X45252Y20192D01*
X44000Y19296D02*
X44355D01*
X92347Y24500D02*
X126016D01*
X84250Y16403D02*
X92347Y24500D01*
X60836Y16403D02*
X84250D01*
X44356Y22496D02*
X45257Y21595D01*
X44005Y22496D02*
X44356D01*
X45257Y21595D02*
X55644D01*
X60836Y16403D01*
X47700Y76397D02*
X48985Y75112D01*
X49300D01*
X44200Y78319D02*
X46122Y76397D01*
X47700D01*
X42800Y83400D02*
X44200Y82000D01*
Y78319D02*
Y82000D01*
X36822Y83400D02*
X42800D01*
X36469Y81998D02*
Y83047D01*
X36822Y83400D01*
X38034Y80365D02*
Y80432D01*
X36469Y81998D02*
X38034Y80432D01*
X49000Y79100D02*
X49300D01*
X47700Y77800D02*
X49000Y79100D01*
X45603Y78900D02*
X46703Y77800D01*
X47700D01*
X43381Y84803D02*
X45603Y82581D01*
Y78900D02*
Y82581D01*
X36241Y84803D02*
X43381D01*
X35066Y81998D02*
Y83628D01*
X36241Y84803D01*
X33568Y80500D02*
X35066Y81998D01*
X33500Y80500D02*
X33568D01*
X177205Y55204D02*
X192796D01*
X177786Y53802D02*
X192214D01*
X198516Y47500D02*
X200500D01*
X199097Y48903D02*
X200103D01*
X192796Y55204D02*
X199097Y48903D01*
X192214Y53802D02*
X198516Y47500D01*
X200500D02*
X203200Y44800D01*
X200103Y48903D02*
X203200Y52000D01*
X174581Y50597D02*
X177786Y53802D01*
X174000Y52000D02*
X177205Y55204D01*
X78000Y23000D02*
X78399D01*
X77500Y23500D02*
X78000Y23000D01*
X77500Y24097D02*
X80500Y27097D01*
X77500Y23500D02*
Y24097D01*
X75597Y23000D02*
X76097Y23500D01*
X75199Y23000D02*
X75597D01*
X76097Y23500D02*
Y24678D01*
X79919Y28500D01*
D66*
X35500Y4900D02*
D03*
X255500D02*
D03*
X45500Y97000D02*
D03*
X245500D02*
D03*
X215500Y4900D02*
D03*
X155500D02*
D03*
X45500D02*
D03*
X75500Y97000D02*
D03*
X195500Y4900D02*
D03*
X125500D02*
D03*
X105500Y97000D02*
D03*
X205500D02*
D03*
X165500Y4900D02*
D03*
X65500Y97000D02*
D03*
X235500D02*
D03*
X135500Y4900D02*
D03*
X55500D02*
D03*
X95500Y97000D02*
D03*
X225500Y4900D02*
D03*
X105500D02*
D03*
X195500Y97000D02*
D03*
X225500D02*
D03*
X175500Y4900D02*
D03*
X85500D02*
D03*
X235500D02*
D03*
X115500D02*
D03*
X85500Y97000D02*
D03*
X245500Y4900D02*
D03*
X185500D02*
D03*
X95500D02*
D03*
X215500Y97000D02*
D03*
X65500Y4900D02*
D03*
X75500D02*
D03*
X145500D02*
D03*
X205500D02*
D03*
X35500Y97000D02*
D03*
X55500D02*
D03*
X115500D02*
D03*
X125500D02*
D03*
X135500D02*
D03*
X145500D02*
D03*
X155500D02*
D03*
X165500D02*
D03*
X175500D02*
D03*
X185500D02*
D03*
X255500D02*
D03*
D67*
X265500D02*
D03*
Y4900D02*
D03*
D68*
X37500Y55000D02*
D03*
D69*
Y50000D02*
D03*
Y45000D02*
D03*
X142500Y50000D02*
D03*
D70*
X137500D02*
D03*
D71*
X182200Y61900D02*
D03*
X186500Y62500D02*
D03*
X56073Y63324D02*
D03*
X84675Y84075D02*
D03*
X256235Y26958D02*
D03*
X204000Y73500D02*
D03*
X262545Y26575D02*
D03*
Y29921D02*
D03*
Y33268D02*
D03*
Y36614D02*
D03*
Y39961D02*
D03*
Y43307D02*
D03*
Y46654D02*
D03*
Y50000D02*
D03*
Y53347D02*
D03*
Y56693D02*
D03*
Y60039D02*
D03*
Y63386D02*
D03*
Y66732D02*
D03*
Y70079D02*
D03*
Y73425D02*
D03*
X259582Y73042D02*
D03*
X229000Y56500D02*
D03*
Y50004D02*
D03*
Y43508D02*
D03*
X239499Y39497D02*
D03*
X250006Y43500D02*
D03*
Y49996D02*
D03*
Y56492D02*
D03*
X239507Y60503D02*
D03*
X242800Y53300D02*
D03*
X242700Y46700D02*
D03*
X236200D02*
D03*
X236300Y53200D02*
D03*
X257300Y83700D02*
D03*
X245900Y83500D02*
D03*
X266500Y18100D02*
D03*
X155700Y40900D02*
D03*
X252889Y26958D02*
D03*
X207000Y24200D02*
D03*
X163000Y18700D02*
D03*
X169400Y18300D02*
D03*
X147500Y83800D02*
D03*
X124300Y78100D02*
D03*
X161200Y64900D02*
D03*
X94100Y78300D02*
D03*
X90900Y60300D02*
D03*
X90600Y54900D02*
D03*
X77800Y59600D02*
D03*
X78900Y55300D02*
D03*
X62000Y55000D02*
D03*
X48600Y69500D02*
D03*
X49400Y88000D02*
D03*
X70200Y89000D02*
D03*
X73200Y79300D02*
D03*
X68800Y79200D02*
D03*
X73200Y74800D02*
D03*
X68600D02*
D03*
X124200Y40900D02*
D03*
X98000Y33100D02*
D03*
X101900D02*
D03*
X105800D02*
D03*
X109700D02*
D03*
X113600D02*
D03*
Y40700D02*
D03*
X109700D02*
D03*
X105800D02*
D03*
X101900D02*
D03*
X98000D02*
D03*
X113500Y47400D02*
D03*
X109600D02*
D03*
X105700D02*
D03*
X101800D02*
D03*
X97900D02*
D03*
X57350Y29000D02*
D03*
X53600D02*
D03*
X49850D02*
D03*
X29100Y9600D02*
D03*
X35588Y24479D02*
D03*
X35449Y15021D02*
D03*
X47500Y33700D02*
D03*
X27800Y37200D02*
D03*
X30500Y42200D02*
D03*
X73795Y20124D02*
D03*
X80000D02*
D03*
X206398Y52100D02*
D03*
Y45000D02*
D03*
X42000Y29500D02*
D03*
Y10000D02*
D03*
X185500Y51500D02*
D03*
Y45100D02*
D03*
X39600Y76700D02*
D03*
X38500Y87600D02*
D03*
X26900Y63300D02*
D03*
X31000Y58400D02*
D03*
X28000Y92400D02*
D03*
X48346Y82154D02*
D03*
X46600Y73000D02*
D03*
X45500Y67200D02*
D03*
X77320Y63820D02*
D03*
X133200Y61100D02*
D03*
X78900Y89800D02*
D03*
X98700Y61800D02*
D03*
X156800Y57900D02*
D03*
X188700Y51500D02*
D03*
Y45300D02*
D03*
X44005Y22496D02*
D03*
X163617Y32883D02*
D03*
X51500Y16700D02*
D03*
X48300D02*
D03*
X55300D02*
D03*
X56400Y51400D02*
D03*
X38034Y80365D02*
D03*
X33500Y80500D02*
D03*
X49300Y75112D02*
D03*
Y79100D02*
D03*
X182500Y36500D02*
D03*
X176059Y37259D02*
D03*
X188100Y30500D02*
D03*
X147691Y40809D02*
D03*
X44000Y19296D02*
D03*
X78399Y23000D02*
D03*
X75199D02*
D03*
X203200Y44800D02*
D03*
Y52000D02*
D03*
X172900Y54800D02*
D03*
X191600Y62000D02*
D03*
X79100Y50500D02*
D03*
X98800Y84600D02*
D03*
X182700Y77800D02*
D03*
X177700Y57600D02*
D03*
X197500Y64700D02*
D03*
X191200Y68700D02*
D03*
X198000Y71900D02*
D03*
X167600Y80000D02*
D03*
X194459Y38541D02*
D03*
X190500Y38400D02*
D03*
X195000Y30100D02*
D03*
X219400Y28500D02*
D03*
X246196Y26958D02*
D03*
X239503D02*
D03*
X232810D02*
D03*
X242849Y33497D02*
D03*
X226117Y26958D02*
D03*
X250300Y91400D02*
D03*
X253900Y89100D02*
D03*
X229464Y73042D02*
D03*
X236157D02*
D03*
X222771D02*
D03*
X216078D02*
D03*
X246196Y66503D02*
D03*
X216078Y33497D02*
D03*
X249542D02*
D03*
X236157D02*
D03*
X229464D02*
D03*
X222771D02*
D03*
X219424Y66503D02*
D03*
X226117D02*
D03*
X232810D02*
D03*
X239503D02*
D03*
X242849Y73042D02*
D03*
X249500Y73000D02*
D03*
D72*
X58500Y60800D02*
X66300D01*
X56100Y63200D02*
X58500Y60800D01*
X56100Y63200D02*
Y63297D01*
X56073Y63324D02*
X56100Y63297D01*
X84675Y79175D02*
Y84075D01*
X66300Y60800D02*
X84675Y79175D01*
X42700Y50000D02*
Y57660D01*
X55500Y70460D01*
Y97000D01*
X42700Y50000D02*
X55000D01*
X56400Y51400D01*
X37500Y50000D02*
X42700D01*
M02*
