M48
;Layer_Color=9474304
;FILE_FORMAT=2:5
INCH,LZ
;TYPE=PLATED
T01F00S00C0.01200
T03F00S00C0.02800
T04F00S00C0.04000
%
T01
X00291Y00096
X0035449Y0015021
X0035588Y0024479
X0044005Y0022496
X0044Y0019296
X00483Y00167
X00515
X004985Y0029
X00536
X00475Y00337
X0042Y00295
Y001
X00278Y00372
X00305Y00422
X0031Y00584
X00269Y00633
X00455Y00672
X00486Y00695
X00466Y0073
X00493Y0075112
Y00791
X0048346Y0082154
X00494Y0088
X00385Y00876
X0038034Y0080365
X00335Y00805
X00396Y00767
X0028Y00924
X00702Y0089
X00789Y00898
X0084675Y0084075
X00988Y00846
X00941Y00783
X00987Y00618
X00909Y00603
X00906Y00549
X00789Y00553
X00791Y00505
X00778Y00596
X007732Y006382
X00732Y00748
Y00793
X00688Y00792
X00686Y00748
X0056073Y0063324
X00564Y00514
X0062Y0055
X005735Y0029
X00553Y00167
X0073795Y0020124
X0075199Y0023
X0078399
X008Y0020124
X0098Y00331
X01019
X01058
X01097
X01136
Y00407
X01097
X01058
X01019
X0098
X00979Y00474
X01018
X01057
X01096
X01135
X01242Y00409
X0147691Y0040809
X01557Y00409
X0163617Y0032883
X0163Y00187
X01694Y00183
X0176059Y0037259
X01825Y00365
X01905Y00384
X0194459Y0038541
X0195Y00301
X01881Y00305
X01887Y00453
X01855Y00451
Y00515
X01887
X01865Y00625
X01822Y00619
X01777Y00576
X01729Y00548
X01568Y00579
X01612Y00649
X01676Y008
X01827Y00778
X01912Y00687
X01916Y0062
X01975Y00647
X0198Y00719
X0204Y00735
X02032Y0052
X0206398Y00521
Y0045
X02032Y00448
X0207Y00242
X01332Y00611
X01243Y00781
X01475Y00838
X0216078Y0073042
X0222771
X0229464
X0236157
X0242849
X02495Y0073
X0246196Y0066503
X0239503
X0239507Y0060503
X02428Y00533
X02363Y00532
X02362Y00467
X02427
X0239499Y0039497
X0236157Y0033497
X0242849
X0249542
X0252889Y0026958
X0256235
X0262545Y0026575
Y0029921
Y0033268
Y0036614
Y0039961
Y0043307
Y0046654
Y005
Y0053347
Y0056693
Y0060039
Y0063386
Y0066732
Y0070079
Y0073425
X0259582Y0073042
X02573Y00837
X02539Y00891
X02503Y00914
X02459Y00835
X023281Y0066503
X0226117
X0219424
X0229Y00565
Y0050004
Y0043508
X0229464Y0033497
X0222771
X0216078
X02194Y00285
X0226117Y0026958
X023281
X0239503
X0246196
X0250006Y00435
Y0049996
Y0056492
X02665Y00181
T03
X00375Y0045
Y005
Y0055
X01375Y005
X01425
T04
X00355Y00049
X00455
Y0097
X00355
X00555
X00655
X00755
X00855
X00955
X01055
X01155
X01255
X01355
X01455
X01555
X01655
X01755
X01855
X01955
X02055
Y00049
X01955
X01855
X01755
X01655
X01555
X01455
X01355
X01255
X01155
X01055
X00955
X00855
X00755
X00655
X00555
X02155
X02255
X02355
X02455
X02555
X02655
Y0097
X02555
X02455
X02355
X02255
X02155
M30
